<?xml version="1.0" encoding="utf-8"?>
<!-- Generator: Adobe Illustrator 25.0.1, SVG Export Plug-In . SVG Version: 6.00 Build 0)  -->
<svg version="1.1" id="Layer_1" xmlns="http://www.w3.org/2000/svg" xmlns:xlink="http://www.w3.org/1999/xlink" x="0px" y="0px"
	 viewBox="0 0 1250 833" style="enable-background:new 0 0 1250 833;" xml:space="preserve">
<style type="text/css">
	.st0{fill:#26397B;}
</style>
<g transform="translate(0.000000,833.000000) scale(0.100000,-0.100000)">
	<path class="st0" d="M2241,5563c-8-17-142-332-196-463c-13-30-65-156-118-280c-281-665-538-1276-607-1440c-157-375-219-520-230-540
		s-10-20,383-20h393l100,260l99,260l503-2l504-3l103-255l103-255l396-3c218-1,396,0,396,2s-25,64-56,137c-31,74-78,188-106,254
		c-27,66-61,146-74,178c-13,31-35,84-49,117s-36,86-49,118c-13,31-46,111-74,177c-27,66-159,381-292,700s-252,605-265,635
		c-12,30-37,89-54,130c-18,41-38,91-46,110c-7,19-29,71-48,115l-34,80l-336,3C2275,5580,2250,5579,2241,5563z M2715,4333
		c76-208,140-384,142-390c4-10-57-13-286-13c-160,0-291,4-291,8c0,5,45,132,100,283c161,440,180,489,190,489
		C2574,4710,2639,4540,2715,4333z"/>
	<path class="st0" d="M4270,4200V2820h350h350v1380v1380h-350h-350V4200z"/>
	<path class="st0" d="M6076,4824c-346-68-637-305-768-626c-56-139-72-227-72-398c0-125,4-171,21-240c76-301,278-556,551-694
		c152-77,327-112,521-103c185,8,335,53,490,147c71,42,211,155,211,169c0,6-349,437-395,489c-2,2-30-23-62-55c-172-176-436-174-603,3
		c-28,30-63,80-78,111c-24,53-27,69-27,173c0,110,2,119,32,181c80,162,265,260,437,231c93-15,165-51,232-116l58-56l22,22
		c12,13,106,120,209,238l188,214l-59,54c-148,134-321,220-517,257C6370,4843,6171,4843,6076,4824z"/>
	<path class="st0" d="M8018,4829c-660-97-1063-781-826-1404c134-351,441-599,818-660c119-19,189-19,313,0c232,35,431,138,594,308
		c91,95,128,146,179,247c206,412,129,896-193,1213c-95,93-153,136-258,189C8448,4822,8227,4860,8018,4829z M8300,4193
		c244-80,355-363,233-595c-43-82-104-139-193-182c-61-29-73-31-175-31c-98,0-116,3-165,26c-113,54-196,146-230,256
		C7669,3995,7975,4298,8300,4193z"/>
	<path class="st0" d="M10585,4820c-132-18-270-82-364-166c-32-30-62-54-65-54s-6,38-6,85v85h-335h-335v-980v-980h345h344l3,593
		l3,592l24,58c30,72,97,148,154,176c32,15,63,21,115,21c118,0,175-33,221-130l26-55l5-625l5-625l348-3l347-2v647c0,691-4,755-51,896
		c-60,180-178,321-329,395c-47,23-111,48-143,57C10823,4823,10663,4831,10585,4820z"/>
</g>
</svg>
