<?xml version="1.0" encoding="utf-8"?>
<!-- Generator: Adobe Illustrator 25.0.1, SVG Export Plug-In . SVG Version: 6.00 Build 0)  -->
<svg version="1.1" id="Layer_1" xmlns="http://www.w3.org/2000/svg" xmlns:xlink="http://www.w3.org/1999/xlink" x="0px" y="0px"
	 viewBox="0 0 1250 833" style="enable-background:new 0 0 1250 833;" xml:space="preserve">
<style type="text/css">
	.st0{fill:none;}
	.st1{fill:#CBE9EF;}
	.st2{fill:#8FD1DB;}
	.st3{fill:#47B3C3;}
	.st4{fill:#0195AB;}
	.st5{fill:#45B1C1;}
	.st6{fill:#B5E1E7;}
	.st7{fill:#B3DFE7;}
	.st8{fill:#41AFBF;}
	.st9{fill:#4DB5C5;}
	.st10{fill:#91D1DB;}
	.st11{fill:#A9DBE3;}
	.st12{fill:#93D3DB;}
	.st13{fill:#B1DFE5;}
	.st14{fill:#79C7D3;}
	.st15{fill:#A1D9E1;}
	.st16{fill:#55B9C7;}
	.st17{fill:#59BBC9;}
	.st18{fill:#D7EDE1;}
	.st19{fill:#77C7D3;}
	.st20{fill:#67BFCD;}
	.st21{fill:#9FD7DF;}
	.st22{fill:#75C5D1;}
	.st23{fill:#BDE3E9;}
	.st24{fill:#69C1CD;}
	.st25{fill:#87CDD7;}
	.st26{fill:#95D3DD;}
	.st27{fill:#7BC9D5;}
	.st28{fill:#7FC39F;}
	.st29{fill:#EFF7F3;}
	.st30{fill:#BDE5E9;}
	.st31{fill:#4BB5C3;}
	.st32{fill:#9BD5DF;}
	.st33{fill:#8DCFD9;}
	.st34{fill:#2FA9BB;}
	.st35{fill:#73C5D1;}
	.st36{fill:#53B9C7;}
	.st37{fill:#71C5D1;}
	.st38{fill:#ADDDE5;}
	.st39{fill:#65BFCD;}
	.st40{fill:#5DBBC9;}
	.st41{fill:#97D5DD;}
	.st42{fill:#83CBD7;}
	.st43{fill:#ADDDE3;}
	.st44{fill:#6DC1CF;}
	.st45{fill:#53B7C7;}
	.st46{fill:#BFE5E9;}
	.st47{fill:#89CDD7;}
	.st48{fill:#51B7C5;}
	.st49{fill:#63BFCB;}
	.st50{fill:#5DBDC9;}
	.st51{fill:#59B9C9;}
	.st52{fill:#5BBBC9;}
	.st53{fill:#69C1CF;}
	.st54{fill:#5FBDCB;}
	.st55{fill:#7FCBD5;}
	.st56{fill:#BFE5EB;}
	.st57{fill:#4FB5C5;}
	.st58{fill:#63BFCD;}
	.st59{fill:#71C3CF;}
	.st60{fill:#2DA7B9;}
	.st61{fill:#A7DBE3;}
	.st62{fill:#33A9BB;}
	.st63{fill:#57B9C7;}
	.st64{fill:#DDF1F5;}
	.st65{fill:#61BDCB;}
	.st66{fill:#DBF1F3;}
	.st67{fill:#7DC9D5;}
	.st68{fill:#FFFFFF;}
	.st69{fill:#89CFD9;}
	.st70{fill:#6DC3CF;}
	.st71{fill:#75C7D3;}
	.st72{fill:#4FB7C5;}
	.st73{fill:#59B9C7;}
	.st74{fill:#2FA7B9;}
	.st75{fill:#37ADBD;}
	.st76{fill:#BBE3E9;}
	.st77{fill:#4DB5C3;}
	.st78{fill:#8FD1D9;}
	.st79{fill:#4BB3C3;}
	.st80{fill:#B7E1E7;}
	.st81{fill:#7BC9D3;}
	.st82{fill:#47B1C1;}
	.st83{fill:#7DC9D3;}
	.st84{fill:#9DD7DF;}
	.st85{fill:#A7DBE1;}
	.st86{fill:#53B7C5;}
	.st87{fill:#27A5B7;}
	.st88{fill:#B3DFE5;}
	.st89{fill:#A5D9E1;}
	.st90{fill:#DFF3FB;}
	.st91{fill:#AFE1F3;}
	.st92{fill:#65C5E9;}
	.st93{fill:#119BA9;}
	.st94{fill:#5DBDDD;}
	.st95{fill:#B9E5F5;}
	.st96{fill:#ABDDE3;}
	.st97{fill:#85CDD7;}
	.st98{fill:#67C1CD;}
	.st99{fill:#AFDDE5;}
	.st100{fill:#7FC9D5;}
	.st101{fill:#5DBDCB;}
	.st102{fill:#D9EFF3;}
	.st103{fill:#81CBD5;}
	.st104{fill:#27A5B9;}
	.st105{fill:#CDEBEF;}
	.st106{fill:#C1E5EB;}
	.st107{fill:#E5F5F7;}
	.st108{fill:#77C7D1;}
	.st109{fill:#D5EFF1;}
	.st110{fill:#CFEBEF;}
	.st111{fill:#83CBD5;}
	.st112{fill:#AFDFE5;}
	.st113{fill:#6FC3CF;}
	.st114{fill:#E9F5F7;}
	.st115{fill:#93D1DB;}
	.st116{fill:#73BBA3;}
	.st117{fill:#49B3C3;}
	.st118{fill:#6FC3D1;}
	.st119{fill:#3DAFBF;}
	.st120{fill:#97D3DD;}
	.st121{fill:#C5E7EB;}
	.st122{fill:#37ABBD;}
	.st123{fill:#3FAFBF;}
	.st124{fill:#ABDBE3;}
	.st125{fill:#E3F3F7;}
	.st126{fill:#71C5CF;}
	.st127{fill:#B5DDC7;}
	.st128{fill:#C3E5EB;}
</style>
<path class="st0" d="M1.7,0v833h1250V0H1.7z M634,178.4c-6.4,0-6.4-10,0-10C640.4,168.4,640.4,178.4,634,178.4z M963,171.4
	c-6.4,0-6.4-10,0-10C969.4,161.4,969.4,171.4,963,171.4z"/>
<path class="st1" d="M407.4,373.3c-0.4,0.4,0.6,0.4,0.7,0.3C408.5,373.2,407.4,373.3,407.4,373.3z"/>
<path class="st2" d="M409.4,373.3c-0.4,0.4,0.6,0.4,0.7,0.3C410.5,373.2,409.4,373.3,409.4,373.3z"/>
<path class="st3" d="M410.7,373c1.2,0.7,1.5,0.7,3,1C412.4,373.3,412.1,373.3,410.7,373z"/>
<path class="st4" d="M388.7,431c-3.6,5.8-7.9,11.5-10,18c19,12.5,59.6,19,65.1-12c0.7-4.2,0.6-7.8-0.2-12
	c-2.1-11-11.2-15.4-20.9-18.7c-4-1.3-9.8-2.4-12.6-5.7c-3.1-3.7,1.2-6.2,4.6-6.5c6.7-0.7,12.3,2.9,18,5.9c3.8-6.2,7.9-12.4,11-19
	c-20.2-10.6-56.4-13.2-61.4,16c-0.7,4.3-0.3,8.9,1,13c5.1,15.7,22.7,11.4,32.1,21.4c2.9,3.1,1,6.3-2.7,7.3c-4.3,1.1-9.1-0.2-13-2
	C395.9,434.9,392.6,432.5,388.7,431z"/>
<path class="st5" d="M418.7,373c1.2,0.7,1.5,0.7,3,1C420.4,373.3,420.1,373.3,418.7,373z"/>
<path class="st6" d="M422.4,373.3c-0.4,0.4,0.6,0.4,0.7,0.3C423.5,373.2,422.4,373.3,422.4,373.3z"/>
<path class="st7" d="M503.7,373c1.2,0.7,1.5,0.7,3,1C505.4,373.3,505.1,373.3,503.7,373z"/>
<path class="st8" d="M506.7,373c1.2,0.7,1.5,0.7,3,1C508.4,373.3,508.1,373.3,506.7,373z"/>
<path class="st4" d="M530.7,430c-6.9,2.9-12.9,8.4-21,6.5c-15.6-3.7-18.9-24.6-8.8-35.4c4.7-4.9,11.6-6.2,17.8-3.6
	c2.7,1.2,5.8,4.5,8.9,4.3c2.2-0.1,3.7-2.3,4.9-3.9c3.1-4,5.8-8.2,9.2-12c-13.8-17.9-45.7-15.6-61-0.9c-13.1,12.7-16.3,33.4-9.2,49.9
	c8.6,20,28.9,26.2,49.1,23.8c5.5-0.7,20-4.3,21.1-11c0.3-2.2-1.3-4.2-2.5-5.8C536.5,438,533.6,434,530.7,430z"/>
<path class="st9" d="M513.7,373c1.2,0.7,1.5,0.7,3,1C515.4,373.3,515.1,373.3,513.7,373z"/>
<path class="st10" d="M517.4,373.3c-0.4,0.4,0.6,0.4,0.7,0.3C518.5,373.2,517.4,373.3,517.4,373.3z"/>
<path class="st11" d="M911.7,373c1.2,0.7,1.5,0.7,3,1C913.4,373.3,913.1,373.3,911.7,373z"/>
<path class="st5" d="M914.7,373c1.2,0.7,1.5,0.7,3,1C916.4,373.3,916.1,373.3,914.7,373z"/>
<path class="st4" d="M917.7,373.4c-11.5,1.2-22.5,4.1-30.8,12.7c-17,17.5-15.3,50.7,4.8,65.1c10.9,7.8,24.1,9.2,37,7.6
	c37.4-4.5,50.7-58.1,18-78.4c-4.3-2.7-9-4.7-14-5.7C927.9,373.9,922.5,372.9,917.7,373.4z"/>
<path class="st3" d="M922.7,373c1.2,0.7,1.5,0.7,3,1C924.4,373.3,924.1,373.3,922.7,373z"/>
<path class="st12" d="M926.4,373.3c-0.4,0.4,0.6,0.4,0.7,0.3C927.5,373.2,926.4,373.3,926.4,373.3z"/>
<path class="st13" d="M77.7,374c4.2,1.8,9.5,1,14,1h27c-4.2-1.8-9.5-1-14-1H77.7 M193.7,374c8.4,3.5,21.9,1,31,1
	C216.3,371.5,202.8,374,193.7,374 M272.7,374c7.6,3.2,19.7,1,28,1C293,371.8,281,374,272.7,374 M326.7,374c7.4,3.1,19,1,27,1
	C346.3,371.9,334.7,374,326.7,374z"/>
<path class="st14" d="M403.7,374l1,1L403.7,374z"/>
<path class="st11" d="M427.4,374.3c-0.4,0.4,0.6,0.4,0.7,0.3C428.5,374.2,427.4,374.3,427.4,374.3z"/>
<path class="st15" d="M499.7,374l1,1L499.7,374z"/>
<path class="st16" d="M500.7,374l1,1L500.7,374z"/>
<path class="st17" d="M521.7,374l1,1L521.7,374z"/>
<path class="st13" d="M569.7,374c7.6,3.2,19.7,1,28,1C590,371.8,578,374,569.7,374 M619.7,374c7.4,3.1,19,1,27,1
	C639.3,371.9,627.7,374,619.7,374z"/>
<path class="st18" d="M712.7,374c7.4,3.1,19,1,27,1C732.3,371.9,720.7,374,712.7,374z"/>
<path class="st13" d="M805.7,374c7.2,3,18.2,1,26,1C824.5,372,813.4,374,805.7,374z"/>
<path class="st3" d="M908.4,374.3c-0.4,0.4,0.6,0.4,0.7,0.3C909.5,374.2,908.4,374.3,908.4,374.3z"/>
<path class="st19" d="M931.4,374.3c-0.4,0.4,0.6,0.4,0.7,0.3C932.5,374.2,931.4,374.3,931.4,374.3z"/>
<path class="st13" d="M985.7,374c7.4,3.1,19,1,27,1C1005.3,371.9,993.7,374,985.7,374 M1049.7,374c8.1,3.4,21.2,1,30,1
	C1071.6,371.6,1058.5,374,1049.7,374 M1105.7,374c4.2,1.8,9.5,1,14,1h28c-4.2-1.8-9.5-1-14-1H1105.7z"/>
<path class="st12" d="M76.7,375v83c2.4-5.7,1-13.8,1-20v-41C77.7,390.3,79.3,381.2,76.7,375z"/>
<path class="st4" d="M77.7,375v83h36c7.8,0,16.1,0.2,23-4.1c14-8.9,14.7-34.2-4-37.9c3-4,7.2-7.1,9-12c4.3-11.2-2.2-22.9-13-26.9
	c-6.8-2.5-13.9-2.1-21-2.1H77.7z"/>
<path class="st10" d="M123.4,375.3c-0.4,0.4,0.6,0.4,0.7,0.3C124.5,375.2,123.4,375.3,123.4,375.3z"/>
<path class="st4" d="M165.7,458h18c2.3,0,5.5,0.4,7.4-1c3.4-2.5,4.2-10.1,4.6-14h17c2.5,0,5.5-0.2,7.5,1.6c3.3,2.9,4,9.3,4.5,13.4
	h28c-1.3-8.8-5.4-17.6-8.3-26c-4.3-12.3-8.3-24.7-12.9-37c-1.8-4.8-3.2-16.9-8.2-19.4c-5.3-2.6-15.7-0.6-21.6-0.6
	c-2.3,0-5.4-0.4-7.3,1c-4.7,3.5-6.1,15.6-8.1,21c-4.9,13.2-9.5,26.6-13.9,40C170.1,443.9,166.8,450.8,165.7,458 M272.7,375v38
	c0,9.9,0.2,21.3,5.5,30c14.2,23.6,58.7,22.4,71.4-2c4.6-8.9,4.1-18.3,4.1-28v-38h-27c0,15.9,1.9,33.3-0.8,49
	c-1.1,6.6-5.4,14-13.2,13.5c-6.4-0.4-10.9-6.6-11.8-12.5c-2.4-15.9-0.2-33.9-0.2-50H272.7z"/>
<path class="st20" d="M325.7,375v48c1.7-4,1-8.7,1-13v-23C326.7,383,327.2,378.7,325.7,375z"/>
<path class="st21" d="M353.7,375v49c1.8-4.2,1-9.5,1-14v-23C354.7,383,355.2,378.7,353.7,375 M399.7,375l1,1L399.7,375z"/>
<path class="st5" d="M400.7,375l1,1L400.7,375z"/>
<path class="st22" d="M430.7,375l1,1L430.7,375z"/>
<path class="st23" d="M431.7,375l1,1L431.7,375z"/>
<path class="st24" d="M496.7,375l1,1L496.7,375z"/>
<path class="st25" d="M525.7,375l1,1L525.7,375z"/>
<path class="st4" d="M569.7,375v83h28v-29h22v29h27v-83h-27v30c-7,0-14.2-0.6-21,1c-2.3-9.8-1-20.9-1-31H569.7z"/>
<path class="st11" d="M597.7,375v30c1.3-3.2,1-6.6,1-10C598.7,388.8,600.1,380.7,597.7,375z"/>
<path class="st26" d="M618.7,375v30c2.4-5.7,1-13.8,1-20C619.7,381.6,620,378.2,618.7,375z"/>
<path class="st27" d="M646.7,375v83c2.4-5.7,1-13.8,1-20v-41C647.7,390.3,649.3,381.2,646.7,375z"/>
<path class="st28" d="M712.7,375v28h27v-28H712.7z"/>
<path class="st29" d="M739.7,375v27C742.2,395.9,742.2,381.1,739.7,375z"/>
<path class="st25" d="M804.7,375l1,1L804.7,375z"/>
<path class="st4" d="M804.7,458h55v-21h-28v-62h-18c-2.2,0-5.5-0.5-7.4,1c-1.7,1.4-1.6,4-1.6,6c-0.1,5,0,10,0,15V458z"/>
<path class="st30" d="M831.7,375v62c1.9-4.5,1-10.2,1-15v-30C832.7,386.6,833.8,380,831.7,375z"/>
<path class="st21" d="M903.7,375l1,1L903.7,375z"/>
<path class="st31" d="M904.7,375l1,1L904.7,375z"/>
<path class="st32" d="M935.7,375l1,1L935.7,375z"/>
<path class="st4" d="M985.7,375v83h26v-38c6.5,5.4,7.4,15,13.6,20.4c2.8,2.5,10.7,2.6,13.4,0c5.9-5.6,6.7-15,12.9-20.4v38h27v-83
	h-19c-2.7,0-6.2-0.5-8.8,0.6c-3.1,1.4-4.8,5.6-6.3,8.4c-4.1,7.4-8.5,15.2-11.9,23h-2c-2.3-8.1-7.8-15.7-12-23
	c-1.6-2.8-3.2-7-6.3-8.4c-2.5-1.1-6-0.6-8.7-0.6H985.7z"/>
<path class="st33" d="M1048.7,375l1,1L1048.7,375z"/>
<path class="st34" d="M1078.7,375v83c2.6-6.2,1-15.3,1-22v-41C1079.7,388.8,1081.1,380.7,1078.7,375z"/>
<path class="st4" d="M1105.7,375v83h34c8.9,0,18,0.3,26-4.4c14.9-8.7,13.1-34.4-5-37.6c3-3.7,7.1-6.5,9-11
	c4.8-11.1-0.8-23.6-12-27.9c-6.7-2.5-14-2.1-21-2.1H1105.7z"/>
<path class="st35" d="M1150.7,375c1.2,0.7,1.6,0.7,3,1C1152.4,375.3,1152.1,375.3,1150.7,375z"/>
<path class="st36" d="M126.7,376l1,1L126.7,376z"/>
<path class="st15" d="M224.7,376l1,1L224.7,376z"/>
<path class="st3" d="M397.7,376l1,1L397.7,376z"/>
<path class="st37" d="M433.7,376l1,1L433.7,376z"/>
<path class="st14" d="M493.7,376l1,1L493.7,376z"/>
<path class="st3" d="M527.7,376l1,1L527.7,376z"/>
<path class="st38" d="M938.7,376l1,1L938.7,376z"/>
<path class="st39" d="M1013.7,376l1,1L1013.7,376z"/>
<path class="st22" d="M1155.7,376l1,1L1155.7,376z"/>
<path class="st14" d="M129.7,377l1,1L129.7,377z"/>
<path class="st40" d="M491.7,377l1,1L491.7,377z"/>
<path class="st41" d="M898.7,377l1,1L898.7,377z"/>
<path class="st24" d="M940.7,377l1,1L940.7,377z"/>
<path class="st42" d="M1047.7,377l1,1L1047.7,377z"/>
<path class="st43" d="M1158.7,377l1,1L1158.7,377z"/>
<path class="st44" d="M131.7,378l1,1L131.7,378z"/>
<path class="st45" d="M489.7,378l1,1L489.7,378z"/>
<path class="st10" d="M896.7,378l1,1L896.7,378z"/>
<path class="st35" d="M942.7,378l1,1L942.7,378z"/>
<path class="st46" d="M133.7,379l1,1L133.7,379z"/>
<path class="st21" d="M191.7,379l1,1L191.7,379z"/>
<path class="st44" d="M225.7,379l1,1L225.7,379z"/>
<path class="st13" d="M391.7,379l1,1L391.7,379z"/>
<path class="st47" d="M487.7,379l1,1L487.7,379z"/>
<path class="st24" d="M533.7,379l1,1L533.7,379z"/>
<path class="st13" d="M944.7,379l1,1L944.7,379z"/>
<path class="st42" d="M1046.7,379l1,1L1046.7,379z"/>
<path class="st48" d="M1161.7,379l1,1L1161.7,379z"/>
<path class="st49" d="M134.7,380l1,1L134.7,380z"/>
<path class="st48" d="M390.7,380l1,1L390.7,380z"/>
<path class="st2" d="M441.7,380l1,1L441.7,380z"/>
<path class="st50" d="M893.7,380l1,1L893.7,380z"/>
<path class="st12" d="M484.7,381l1,1L484.7,381z"/>
<path class="st42" d="M536.7,381l1,1L536.7,381z"/>
<path class="st41" d="M947.7,381l1,1L947.7,381z"/>
<path class="st15" d="M1016.7,381l1,1L1016.7,381z"/>
<path class="st51" d="M1045.7,381l1,1L1045.7,381z"/>
<path class="st2" d="M1164.7,381l1,1L1164.7,381z"/>
<path class="st26" d="M190.7,382l1,1L190.7,382z"/>
<path class="st52" d="M226.7,382l1,1L226.7,382z"/>
<path class="st42" d="M442.7,382l1,1L442.7,382z"/>
<path class="st14" d="M890.7,382l1,1L890.7,382z"/>
<path class="st53" d="M1165.7,382l1,1L1165.7,382z"/>
<path class="st36" d="M1017.7,383l1,1L1017.7,383z"/>
<path class="st15" d="M1166.7,383l1,1L1166.7,383z"/>
<path class="st54" d="M138.7,384l1,1L138.7,384z"/>
<path class="st3" d="M386.7,384l1,1L386.7,384z"/>
<path class="st33" d="M540.7,384l1,1L540.7,384z"/>
<path class="st55" d="M189.7,385l1,1L189.7,385z"/>
<path class="st21" d="M385.7,385l1,1L385.7,385z"/>
<path class="st24" d="M440.7,385l1,1L440.7,385z"/>
<path class="st47" d="M1168.7,386l1,1L1168.7,386z"/>
<path class="st15" d="M140.7,387l1,1L140.7,387z"/>
<path class="st56" d="M228.7,387l1,1L228.7,387z"/>
<path class="st11" d="M439.7,387l1,1L439.7,387z"/>
<path class="st6" d="M539.7,387l1,1L539.7,387z"/>
<path class="st41" d="M188.7,388l1,1L188.7,388z"/>
<path class="st52" d="M538.7,388l1,1L538.7,388z"/>
<path class="st41" d="M1020.7,388l1,1L1020.7,388z"/>
<path class="st55" d="M1169.7,388l1,1L1169.7,388z"/>
<path class="st57" d="M883.7,389l1,1L883.7,389z"/>
<path class="st40" d="M141.7,390l1,1L141.7,390z"/>
<path class="st7" d="M229.7,390l1,1L229.7,390z"/>
<path class="st58" d="M437.7,390l1,1L437.7,390z"/>
<path class="st24" d="M475.7,390l1,1L475.7,390z"/>
<path class="st41" d="M882.7,390l1,1L882.7,390z"/>
<path class="st35" d="M956.7,390l1,1L956.7,390z"/>
<path class="st59" d="M1021.7,390l1,1L1021.7,390z"/>
<path class="st15" d="M1040.7,390l1,1L1040.7,390z"/>
<path class="st33" d="M187.7,391l1,1L187.7,391z"/>
<path class="st16" d="M229.7,391l1,1L229.7,391z"/>
<path class="st60" d="M383,391.7c-0.1,0.1-0.1,1.1,0.3,0.7C383.4,392.3,383.5,391.2,383,391.7z"/>
<path class="st61" d="M536.7,391l1,1L536.7,391z"/>
<path class="st62" d="M1170.7,391v3C1171.4,392.4,1171.4,392.6,1170.7,391z"/>
<path class="st32" d="M436.7,392l1,1L436.7,392z"/>
<path class="st5" d="M535.7,392l1,1L535.7,392z"/>
<path class="st63" d="M1022.7,392l1,1L1022.7,392z"/>
<path class="st11" d="M1039.7,392l1,1L1039.7,392z"/>
<path class="st64" d="M103.7,393c1.8,0.8,3,0.9,5,1C106.9,393.2,105.7,393.1,103.7,393z"/>
<path class="st25" d="M108.7,393c1.2,0.7,1.5,0.7,3,1C110.4,393.3,110.1,393.3,108.7,393z"/>
<path class="st38" d="M230.7,393l1,1L230.7,393z"/>
<path class="st65" d="M473.7,393l1,1L473.7,393z"/>
<path class="st26" d="M880.7,393l1,1L880.7,393z"/>
<path class="st14" d="M958.7,393l1,1L958.7,393z"/>
<path class="st66" d="M1132.7,393c1.5,0.7,2.3,0.8,4,1C1135.2,393.3,1134.4,393.2,1132.7,393z"/>
<path class="st67" d="M1136.7,393c1.5,0.7,2.3,0.8,4,1C1139.2,393.3,1138.4,393.2,1136.7,393z"/>
<path class="st68" d="M103.7,394v15c3.6-0.2,8.6-0.2,11.8-2.2c4-2.5,4.2-9.2,0.1-11.6C112.2,393.2,107.4,394,103.7,394z"/>
<path class="st69" d="M114.7,394l1,1L114.7,394z"/>
<path class="st26" d="M142.7,394v6C143.6,397.7,143.6,396.3,142.7,394z"/>
<path class="st70" d="M186.7,394l1,1L186.7,394z"/>
<path class="st16" d="M230.7,394l1,1L230.7,394z"/>
<path class="st71" d="M382,394.7c-0.1,0.1-0.1,1.1,0.3,0.7C382.4,395.3,382.5,394.2,382,394.7z"/>
<path class="st11" d="M420.7,394l1,1L420.7,394z"/>
<path class="st2" d="M1038.7,394l1,1L1038.7,394z"/>
<path class="st10" d="M1131.7,394v15C1133.4,404.9,1133.4,398.1,1131.7,394z"/>
<path class="st68" d="M1132.7,394v15c3.7-0.2,8.7-0.2,11.8-2.6c3.5-2.8,4.1-8.7,0-11.2C1141.2,393.2,1136.3,394,1132.7,394z"/>
<path class="st72" d="M408.7,395l1,1L408.7,395z"/>
<path class="st52" d="M434.7,395l1,1L434.7,395z"/>
<path class="st26" d="M533.7,395l1,1L533.7,395z"/>
<path class="st70" d="M879.7,395l1,1L879.7,395z"/>
<path class="st73" d="M917.4,395.3c-0.4,0.4,0.6,0.4,0.7,0.3C918.5,395.2,917.4,395.3,917.4,395.3z"/>
<path class="st61" d="M918.7,395c1.2,0.7,1.5,0.7,3,1C920.4,395.3,920.1,395.3,918.7,395z"/>
<path class="st74" d="M922.4,395.3c-0.4,0.4,0.6,0.4,0.7,0.3C923.5,395.2,922.4,395.3,922.4,395.3z"/>
<path class="st21" d="M1024.7,395l1,1L1024.7,395z"/>
<path class="st11" d="M231.7,396l1,1L231.7,396z"/>
<path class="st75" d="M382,396.7c-0.1,0.1-0.1,1.1,0.3,0.7C382.4,397.3,382.5,396.2,382,396.7z"/>
<path class="st10" d="M507.7,396l1,1L507.7,396z"/>
<path class="st32" d="M514.7,396l1,1L514.7,396z"/>
<path class="st52" d="M515.7,396l1,1L515.7,396z"/>
<path class="st65" d="M913.7,396l1,1L913.7,396z"/>
<path class="st68" d="M914.7,396.7c-21.3,6.7-12.5,47.1,11,39.7C947,429.7,938.2,389.3,914.7,396.7z"/>
<path class="st76" d="M924.7,396l1,1L924.7,396z"/>
<path class="st77" d="M925.7,396l1,1L925.7,396z"/>
<path class="st78" d="M1037.7,396l1,1L1037.7,396z"/>
<path class="st79" d="M185.7,397l1,1L185.7,397z"/>
<path class="st80" d="M408,397.7c-0.1,0.1-0.1,1.1,0.3,0.7C408.4,398.3,408.5,397.2,408,397.7z"/>
<path class="st23" d="M427.7,397l1,1L427.7,397z"/>
<path class="st11" d="M433.7,397l1,1L433.7,397z"/>
<path class="st55" d="M504.7,397l1,1L504.7,397z"/>
<path class="st65" d="M518.7,397l1,1L518.7,397z"/>
<path class="st54" d="M878.7,397l1,1L878.7,397z"/>
<path class="st81" d="M911.7,397l1,1L911.7,397z"/>
<path class="st82" d="M927.7,397l1,1L927.7,397z"/>
<path class="st24" d="M1025.7,397l1,1L1025.7,397z"/>
<path class="st63" d="M1146.7,397l1,1L1146.7,397z"/>
<path class="st83" d="M429.7,398l1,1L429.7,398z"/>
<path class="st49" d="M502.7,398l1,1L502.7,398z"/>
<path class="st16" d="M520.7,398l1,1L520.7,398z"/>
<path class="st84" d="M928.7,398l1,1L928.7,398z"/>
<path class="st45" d="M1036.7,398l1,1L1036.7,398z"/>
<path class="st54" d="M118.7,399v3C119.4,400.4,119.4,400.6,118.7,399z"/>
<path class="st6" d="M232.7,399l1,1L232.7,399z"/>
<path class="st24" d="M407.7,399l1,1L407.7,399z"/>
<path class="st37" d="M470.7,399l1,1L470.7,399z"/>
<path class="st85" d="M501.7,399l1,1L501.7,399z"/>
<path class="st14" d="M530.7,399l1,1L530.7,399z"/>
<path class="st33" d="M877.7,399l1,1L877.7,399z"/>
<path class="st86" d="M908.7,399l1,1L908.7,399z"/>
<path class="st17" d="M961.7,399l1,1L961.7,399z"/>
<path class="st87" d="M1170.7,399v3C1171.4,400.4,1171.4,400.6,1170.7,399z"/>
<path class="st88" d="M500.7,400l1,1L500.7,400z"/>
<path class="st48" d="M523.7,400l1,1L523.7,400z"/>
<path class="st86" d="M907.7,400l1,1L907.7,400z"/>
<path class="st9" d="M1035.7,400l1,1L1035.7,400z"/>
<path class="st21" d="M409.7,401l1,1L409.7,401z"/>
<path class="st56" d="M469.7,401l1,1L469.7,401z"/>
<path class="st43" d="M499.7,401l1,1L499.7,401z"/>
<path class="st89" d="M524.7,401l1,1L524.7,401z"/>
<path class="st82" d="M906.7,401l1,1L906.7,401z"/>
<path class="st43" d="M183.7,402l1,1L183.7,402z"/>
<path class="st55" d="M233.7,402l1,1L233.7,402z"/>
<path class="st20" d="M498.7,402l1,1L498.7,402z"/>
<path class="st76" d="M525.7,402l1,1L525.7,402z"/>
<path class="st90" d="M684.7,402c7.6,3.2,19.7,1,28,1C705,399.8,693,402,684.7,402 M739.7,402c7.6,3.2,19.7,1,28,1
	C760,399.8,748,402,739.7,402z"/>
<path class="st3" d="M876.7,402l1,1L876.7,402z"/>
<path class="st26" d="M1028.7,402l1,1L1028.7,402z"/>
<path class="st11" d="M1170.7,402l1,1L1170.7,402z"/>
<path class="st32" d="M141.7,403l1,1L141.7,403z"/>
<path class="st33" d="M413.7,403l1,1L413.7,403z"/>
<path class="st80" d="M526.7,403l1,1L526.7,403z"/>
<path class="st39" d="M527.7,403l1,1L527.7,403z"/>
<path class="st91" d="M683.7,403v27C686.2,423.9,686.2,409.1,683.7,403z"/>
<path class="st92" d="M684.7,403v27h28v-27H684.7z"/>
<path class="st93" d="M712.7,403v27h27v-27H712.7z"/>
<path class="st94" d="M739.7,403v27C742.2,423.9,742.2,409.1,739.7,403z"/>
<path class="st92" d="M740.7,403v27h19c2.4,0,6.3,0.6,8-1.6c2.3-2.9,1-9.9,1-13.4c0-3,1.1-8.9-1.6-11c-1.9-1.5-5.2-1-7.4-1H740.7z"
	/>
<path class="st95" d="M767.7,403l1,1L767.7,403z"/>
<path class="st56" d="M905.7,403l1,1L905.7,403z"/>
<path class="st69" d="M933.7,403l1,1L933.7,403z"/>
<path class="st13" d="M1146.7,403l1,1L1146.7,403z"/>
<path class="st96" d="M117.7,404l1,1L117.7,404z"/>
<path class="st31" d="M381.7,404v3C382.4,405.4,382.4,405.6,381.7,404z"/>
<path class="st89" d="M416.7,404l1,1L416.7,404z"/>
<path class="st13" d="M497.7,404l1,1L497.7,404z"/>
<path class="st4" d="M713.7,404v25h25v-25H713.7z"/>
<path class="st57" d="M904.7,404l1,1L904.7,404z"/>
<path class="st39" d="M1029.7,404l1,1L1029.7,404z"/>
<path class="st3" d="M1169.7,404l1,1L1169.7,404z"/>
<path class="st35" d="M140.7,405l1,1L140.7,405z"/>
<path class="st61" d="M182.7,405l1,1L182.7,405z"/>
<path class="st68" d="M207.7,405l-5,17h11c-0.5-5.8-2.7-11.3-4-17H207.7z"/>
<path class="st35" d="M234.7,405l1,1L234.7,405z"/>
<path class="st21" d="M419.7,405l1,1L419.7,405z"/>
<path class="st70" d="M468.7,405l1,1L468.7,405z"/>
<path class="st35" d="M599.4,405.3c-0.4,0.4,0.6,0.4,0.7,0.3C600.5,405.2,599.4,405.3,599.4,405.3z"/>
<path class="st41" d="M875.7,405l1,1L875.7,405z"/>
<path class="st80" d="M934.7,405l1,1L934.7,405z"/>
<path class="st52" d="M963.7,405v3C964.4,406.4,964.4,406.6,963.7,405z"/>
<path class="st33" d="M1145.7,405l1,1L1145.7,405z"/>
<path class="st71" d="M206.7,406l1,1L206.7,406z"/>
<path class="st39" d="M422.7,406l1,1L422.7,406z"/>
<path class="st89" d="M496.7,406l1,1L496.7,406z"/>
<path class="st52" d="M1030.7,406l1,1L1030.7,406z"/>
<path class="st97" d="M1144.7,406l1,1L1144.7,406z"/>
<path class="st9" d="M1168.7,406l1,1L1168.7,406z"/>
<path class="st53" d="M114.7,407l1,1L114.7,407z"/>
<path class="st26" d="M139.7,407l1,1L139.7,407z"/>
<path class="st98" d="M209.7,407l1,1L209.7,407z"/>
<path class="st15" d="M381.7,407l1,1L381.7,407z"/>
<path class="st53" d="M425.7,407l1,1L425.7,407z"/>
<path class="st99" d="M903.7,407l1,1L903.7,407z"/>
<path class="st25" d="M935.7,407l1,1L935.7,407z"/>
<path class="st23" d="M108.7,408c1.2,0.7,1.5,0.7,3,1C110.4,408.3,110.1,408.3,108.7,408z"/>
<path class="st36" d="M111.7,408l1,1L111.7,408z"/>
<path class="st3" d="M138.7,408l1,1L138.7,408z"/>
<path class="st33" d="M181.7,408l1,1L181.7,408z"/>
<path class="st32" d="M428.7,408l1,1L428.7,408z"/>
<path class="st23" d="M468,408.7c-0.1,0.1-0.1,1.1,0.3,0.7C468.4,409.3,468.5,408.2,468,408.7z"/>
<path class="st5" d="M495.7,408l1,1L495.7,408z"/>
<path class="st80" d="M1137.7,408c1.2,0.7,1.6,0.7,3,1C1139.4,408.3,1139.1,408.3,1137.7,408z"/>
<path class="st76" d="M1167.7,408l1,1L1167.7,408z"/>
<path class="st31" d="M205.7,409l1,1L205.7,409z"/>
<path class="st24" d="M430.7,409l1,1L430.7,409z"/>
<path class="st41" d="M495.7,409l1,1L495.7,409z"/>
<path class="st6" d="M964.7,409v3C965.4,410.4,965.4,410.6,964.7,409z"/>
<path class="st81" d="M1166.7,409l1,1L1166.7,409z"/>
<path class="st9" d="M210.7,410l1,1L210.7,410z"/>
<path class="st100" d="M382.7,410l1,1L382.7,410z"/>
<path class="st81" d="M432.7,410l1,1L432.7,410z"/>
<path class="st36" d="M468,410.7c-0.1,0.1-0.1,1.1,0.3,0.7C468.4,411.3,468.5,410.2,468,410.7z"/>
<path class="st26" d="M875,410.7c-0.1,0.1-0.1,1.1,0.3,0.7C875.4,411.3,875.5,410.2,875,410.7z"/>
<path class="st39" d="M1165.7,410l1,1L1165.7,410z"/>
<path class="st26" d="M180.7,411l1,1L180.7,411z"/>
<path class="st87" d="M494.7,411v9C495.9,417,495.9,414,494.7,411z"/>
<path class="st25" d="M1164.7,411l1,1L1164.7,411z"/>
<path class="st101" d="M134.7,412l1,1L134.7,412z"/>
<path class="st16" d="M383.7,412l1,1L383.7,412z"/>
<path class="st67" d="M435.7,412l1,1L435.7,412z"/>
<path class="st31" d="M874.7,412v9C875.9,418,875.9,415,874.7,412z"/>
<path class="st70" d="M965,412.7c-0.1,0.1-0.1,1.1,0.3,0.7C965.4,413.3,965.5,412.2,965,412.7z"/>
<path class="st23" d="M133.7,413l1,1L133.7,413z"/>
<path class="st14" d="M204.7,413l1,1L204.7,413z"/>
<path class="st6" d="M237.7,413l1,1L237.7,413z"/>
<path class="st9" d="M436.7,413l1,1L436.7,413z"/>
<path class="st52" d="M1161.7,413l1,1L1161.7,413z"/>
<path class="st41" d="M179.7,414l1,1L179.7,414z"/>
<path class="st11" d="M211.7,414l1,1L211.7,414 M384.7,414l1,1L384.7,414z"/>
<path class="st102" d="M133.4,415.3c-0.4,0.4,0.6,0.4,0.7,0.3C134.5,415.2,133.4,415.3,133.4,415.3z"/>
<path class="st5" d="M385.7,415l1,1L385.7,415 M438.7,415l1,1L438.7,415z"/>
<path class="st80" d="M1161.4,415.3c-0.5,0.4,0.6,0.4,0.7,0.3C1162.5,415.2,1161.4,415.3,1161.4,415.3z"/>
<path class="st6" d="M135.7,416l1,1L135.7,416 M238.7,416l1,1L238.7,416z"/>
<path class="st14" d="M439.7,416l1,1L439.7,416z"/>
<path class="st37" d="M1163.7,416l1,1L1163.7,416z"/>
<path class="st69" d="M178.7,417l1,1L178.7,417z"/>
<path class="st103" d="M212.7,417l1,1L212.7,417z"/>
<path class="st39" d="M238.7,417l1,1L238.7,417z"/>
<path class="st48" d="M1165.7,417l1,1L1165.7,417z"/>
<path class="st37" d="M138.7,418l1,1L138.7,418z"/>
<path class="st56" d="M1167.7,418l1,1L1167.7,418z"/>
<path class="st38" d="M239.7,419l1,1L239.7,419z"/>
<path class="st19" d="M389.7,419l1,1L389.7,419z"/>
<path class="st43" d="M441.7,419l1,1L441.7,419z"/>
<path class="st33" d="M965,419.7c-0.1,0.1-0.1,1.1,0.3,0.7C965.4,420.3,965.5,419.2,965,419.7z"/>
<path class="st21" d="M1168.7,419l1,1L1168.7,419z"/>
<path class="st54" d="M177.7,420l1,1L177.7,420z"/>
<path class="st21" d="M202.7,420l1,1L202.7,420z"/>
<path class="st16" d="M213.7,420l1,1L213.7,420z"/>
<path class="st31" d="M239.7,420l1,1L239.7,420z"/>
<path class="st104" d="M1011.7,420v38c1.4-3.4,1-7.3,1-11C1012.7,439,1014.8,427.4,1011.7,420z"/>
<path class="st105" d="M1049.7,420c2.8,11.9,1,25.8,1,38c3.2-7.6,1-19.7,1-28C1051.7,426.5,1052.5,422.4,1049.7,420z"/>
<path class="st39" d="M1169.7,420l1,1L1169.7,420z"/>
<path class="st11" d="M214,421.7c-0.1,0.1-0.1,1.1,0.3,0.7C214.4,422.3,214.5,421.2,214,421.7z"/>
<path class="st100" d="M392.7,421l1,1L392.7,421z"/>
<path class="st89" d="M874.7,421v3C875.4,422.4,875.4,422.6,874.7,421z"/>
<path class="st106" d="M965,421.7c-0.1,0.1-0.1,1.1,0.3,0.7C965.4,422.3,965.5,421.2,965,421.7z"/>
<path class="st80" d="M1013.7,421l1,1L1013.7,421z"/>
<path class="st24" d="M1048.7,421l1,1L1048.7,421z"/>
<path class="st26" d="M1170.7,421l1,1L1170.7,421z"/>
<path class="st107" d="M202.7,422c3.4,1.4,7.3,1,11,1C210.3,421.6,206.4,422,202.7,422z"/>
<path class="st76" d="M240.7,422l1,1L240.7,422z"/>
<path class="st70" d="M394.7,422l1,1L394.7,422z"/>
<path class="st49" d="M442.7,422l1,1L442.7,422z"/>
<path class="st108" d="M468,422.7c-0.1,0.1-0.1,1.1,0.3,0.7C468.4,423.3,468.5,422.2,468,422.7z"/>
<path class="st80" d="M495.7,422l1,1L495.7,422z"/>
<path class="st35" d="M902.7,422l1,1L902.7,422z"/>
<path class="st12" d="M936.7,422l1,1L936.7,422z"/>
<path class="st32" d="M143.7,423l1,1L143.7,423z"/>
<path class="st5" d="M176.7,423l1,1L176.7,423z"/>
<path class="st100" d="M396.7,423l1,1L396.7,423z"/>
<path class="st62" d="M496,423.7c-0.1,0.1-0.1,1.1,0.3,0.7C496.4,424.3,496.5,423.2,496,423.7z"/>
<path class="st70" d="M1047.7,423l1,1L1047.7,423z"/>
<path class="st85" d="M103.7,424c3.7,1.6,8,1,12,1C112,423.4,107.7,424,103.7,424z"/>
<path class="st109" d="M300.7,424v3C301.4,425.4,301.4,425.6,300.7,424z"/>
<path class="st36" d="M399.7,424l1,1L399.7,424z"/>
<path class="st16" d="M1015.7,424l1,1L1015.7,424z"/>
<path class="st39" d="M1131.7,424l1,1L1131.7,424z"/>
<path class="st110" d="M1132.7,424c3.4,1.4,7.3,1,11,1C1140.3,423.6,1136.4,424,1132.7,424z"/>
<path class="st70" d="M1144.4,424.3c-0.5,0.4,0.6,0.4,0.7,0.3C1145.5,424.2,1144.4,424.3,1144.4,424.3z"/>
<path class="st54" d="M1172.7,424l1,1L1172.7,424z"/>
<path class="st68" d="M103.7,425v14c4.5,0,10.9,1.1,14.9-1.2c5.1-2.9,4.6-10.1-0.9-12.2C113.6,424,108,425,103.7,425z"/>
<path class="st9" d="M144.7,425l1,1L144.7,425z"/>
<path class="st76" d="M175.7,425l1,1L175.7,425z"/>
<path class="st41" d="M241.7,425l1,1L241.7,425z"/>
<path class="st54" d="M273,425.7c-0.1,0.1-0.1,1.1,0.3,0.7C273.4,426.3,273.5,425.2,273,425.7z"/>
<path class="st43" d="M401.7,425l1,1L401.7,425z"/>
<path class="st5" d="M402.7,425l1,1L402.7,425z"/>
<path class="st100" d="M903.7,425l1,1L903.7,425z"/>
<path class="st80" d="M935.7,425l1,1L935.7,425z"/>
<path class="st111" d="M1046.7,425l1,1L1046.7,425z"/>
<path class="st6" d="M1131.7,425v15C1133.4,435.9,1133.4,429.1,1131.7,425z"/>
<path class="st68" d="M1132.7,425v14c4.4,0,10.9,1.2,14.8-1.2c4.1-2.4,4.1-9.4,0-11.8C1143.7,423.8,1137,425,1132.7,425z"/>
<path class="st15" d="M119.7,426l1,1L119.7,426z"/>
<path class="st112" d="M404.7,426l1,1L404.7,426z"/>
<path class="st72" d="M405.7,426l1,1L405.7,426z"/>
<path class="st65" d="M443.7,426v3C444.4,427.4,444.4,427.6,443.7,426z"/>
<path class="st20" d="M496.7,426l1,1L496.7,426z"/>
<path class="st85" d="M964,426.7c-0.1,0.1-0.1,1.1,0.3,0.7C964.4,427.3,964.5,426.2,964,426.7z"/>
<path class="st39" d="M1016.7,426l1,1L1016.7,426z"/>
<path class="st113" d="M1148.7,426l1,1L1148.7,426z"/>
<path class="st72" d="M1173.7,426l1,1L1173.7,426z"/>
<path class="st96" d="M120.7,427l1,1L120.7,427z"/>
<path class="st87" d="M146,427.7c-0.1,0.1-0.1,1.1,0.3,0.7C146.4,428.3,146.5,427.2,146,427.7z"/>
<path class="st21" d="M273,427.7c-0.1,0.1-0.1,1.1,0.3,0.7C273.4,428.3,273.5,427.2,273,427.7z"/>
<path class="st3" d="M300.7,427l1,1L300.7,427z"/>
<path class="st54" d="M408.7,427l1,1L408.7,427z"/>
<path class="st108" d="M875.7,427l1,1L875.7,427z"/>
<path class="st11" d="M904.7,427l1,1L904.7,427z"/>
<path class="st2" d="M1045.7,427l1,1L1045.7,427z"/>
<path class="st57" d="M1149.7,427l1,1L1149.7,427z"/>
<path class="st7" d="M174.7,428l1,1L174.7,428z"/>
<path class="st25" d="M242.7,428l1,1L242.7,428z"/>
<path class="st27" d="M324.7,428l1,1L324.7,428z"/>
<path class="st23" d="M410.7,428l1,1L410.7,428z"/>
<path class="st35" d="M468.7,428l1,1L468.7,428z"/>
<path class="st37" d="M497.7,428l1,1L497.7,428z"/>
<path class="st55" d="M1017.7,428l1,1L1017.7,428z"/>
<path class="st41" d="M1174.7,428l1,1L1174.7,428z"/>
<path class="st11" d="M597.7,429v29c2.3-5.5,1-13.1,1-19C598.7,435.6,599,432.2,597.7,429z"/>
<path class="st114" d="M599.7,429c5.5,2.3,13.1,1,19,1C613.2,427.7,605.6,429,599.7,429z"/>
<path class="st26" d="M618.7,429v29c2.3-5.5,1-13.1,1-19C619.7,435.6,620,432.2,618.7,429z"/>
<path class="st115" d="M905.7,429l1,1L905.7,429z"/>
<path class="st46" d="M933.7,429l1,1L933.7,429z"/>
<path class="st85" d="M1044.7,429l1,1L1044.7,429z"/>
<path class="st58" d="M146.7,430v3C147.4,431.4,147.4,431.6,146.7,430z"/>
<path class="st67" d="M352.7,430l1,1L352.7,430z"/>
<path class="st80" d="M389.4,430.3c-0.4,0.4,0.6,0.4,0.7,0.3C390.5,430.2,389.4,430.3,389.4,430.3z"/>
<path class="st90" d="M684.7,430c7.6,3.2,19.7,1,28,1C705,427.8,693,430,684.7,430z"/>
<path class="st116" d="M712.7,430c7.4,3.1,19,1,27,1C732.3,427.9,720.7,430,712.7,430z"/>
<path class="st90" d="M739.7,430c7.6,3.2,19.7,1,28,1C760,427.8,748,430,739.7,430z"/>
<path class="st35" d="M962.7,430l1,1L962.7,430z"/>
<path class="st15" d="M1018.7,430l1,1L1018.7,430z"/>
<path class="st67" d="M1150.7,430v4C1151.4,432.2,1151.4,431.8,1150.7,430z"/>
<path class="st32" d="M173.7,431l1,1L173.7,431z"/>
<path class="st65" d="M243.7,431l1,1L243.7,431z"/>
<path class="st86" d="M274,431.7c-0.1,0.1-0.1,1.1,0.3,0.7C274.4,432.3,274.5,431.2,274,431.7z"/>
<path class="st3" d="M323.7,431l1,1L323.7,431z"/>
<path class="st26" d="M390.7,431l1,1L390.7,431z"/>
<path class="st3" d="M469.7,431l1,1L469.7,431z"/>
<path class="st28" d="M712.7,431v27h27v-27H712.7z"/>
<path class="st29" d="M739.7,431v27C742.2,451.9,742.2,437.1,739.7,431z"/>
<path class="st23" d="M876.7,431l1,1L876.7,431z"/>
<path class="st80" d="M322.7,432l1,1L322.7,432z"/>
<path class="st9" d="M391.7,432l1,1L391.7,432z"/>
<path class="st85" d="M525.7,432l1,1L525.7,432z"/>
<path class="st111" d="M531.7,432l1,1L531.7,432z"/>
<path class="st117" d="M931.7,432l1,1L931.7,432z"/>
<path class="st7" d="M1176,432.7c0,0.1-0.1,1.1,0.3,0.7C1176.4,433.3,1176.5,432.2,1176,432.7z"/>
<path class="st118" d="M122,433.7c-0.1,0.1-0.1,1.1,0.3,0.7C122.4,434.3,122.5,433.2,122,433.7z"/>
<path class="st15" d="M273.7,433l1,1L273.7,433z"/>
<path class="st70" d="M303.7,433l1,1L303.7,433z"/>
<path class="st76" d="M386.7,433l1,1L386.7,433z"/>
<path class="st80" d="M393.7,433l1,1L393.7,433z"/>
<path class="st49" d="M877.7,433l1,1L877.7,433z"/>
<path class="st79" d="M930.7,433l1,1L930.7,433z"/>
<path class="st33" d="M961.7,433l1,1L961.7,433z"/>
<path class="st115" d="M172.7,434l1,1L172.7,434z"/>
<path class="st54" d="M244.7,434l1,1L244.7,434z"/>
<path class="st67" d="M304.7,434l1,1L304.7,434z"/>
<path class="st20" d="M351.7,434l1,1L351.7,434z"/>
<path class="st45" d="M394.7,434l1,1L394.7,434z"/>
<path class="st119" d="M418,434.7c-0.1,0.1-0.1,1.1,0.3,0.7C418.4,435.3,418.5,434.2,418,434.7z"/>
<path class="st40" d="M443.7,434v3C444.4,435.4,444.4,435.6,443.7,434z"/>
<path class="st81" d="M470.7,434l1,1L470.7,434z"/>
<path class="st89" d="M503.7,434l1,1L503.7,434z"/>
<path class="st3" d="M522.7,434l1,1L522.7,434z"/>
<path class="st25" d="M1176,434.7c0,0.1-0.1,1.1,0.3,0.7C1176.4,435.3,1176.5,434.2,1176,434.7z"/>
<path class="st32" d="M319.7,435l1,1L319.7,435z"/>
<path class="st16" d="M385.7,435l1,1L385.7,435z"/>
<path class="st100" d="M396.7,435l1,1L396.7,435z"/>
<path class="st21" d="M505.7,435l1,1L505.7,435z"/>
<path class="st112" d="M519.7,435l1,1L519.7,435z"/>
<path class="st16" d="M911.7,435l1,1L911.7,435z"/>
<path class="st22" d="M927.7,435l1,1L927.7,435z"/>
<path class="st52" d="M960.7,435l1,1L960.7,435z"/>
<path class="st40" d="M1021.7,435l1,1L1021.7,435z"/>
<path class="st2" d="M274.7,436l1,1L274.7,436z"/>
<path class="st53" d="M307.7,436l1,1L307.7,436z"/>
<path class="st88" d="M317.7,436l1,1L317.7,436z"/>
<path class="st55" d="M398.7,436l1,1L398.7,436z"/>
<path class="st72" d="M471.7,436l1,1L471.7,436z"/>
<path class="st76" d="M509.4,436.3c-0.4,0.4,0.6,0.4,0.7,0.3C510.5,436.2,509.4,436.3,509.4,436.3z"/>
<path class="st42" d="M516.7,436l1,1L516.7,436z"/>
<path class="st120" d="M534.7,436l1,1L534.7,436z"/>
<path class="st117" d="M913.7,436l1,1L913.7,436z"/>
<path class="st49" d="M925.7,436l1,1L925.7,436z"/>
<path class="st86" d="M1040.7,436l1,1L1040.7,436z"/>
<path class="st121" d="M1176,436.7c0,0.1-0.1,1.1,0.3,0.7C1176.4,437.3,1176.5,436.2,1176,436.7z"/>
<path class="st31" d="M119.7,437l1,1L119.7,437z"/>
<path class="st65" d="M146.7,437v3C147.4,438.4,147.4,438.6,146.7,437z"/>
<path class="st41" d="M171.7,437l1,1L171.7,437z"/>
<path class="st10" d="M310.7,437c1.8,0.8,3,0.9,5,1C313.9,437.2,312.7,437.1,310.7,437z"/>
<path class="st71" d="M350.7,437l1,1L350.7,437z"/>
<path class="st48" d="M400.7,437l1,1L400.7,437z"/>
<path class="st5" d="M879.7,437l1,1L879.7,437z"/>
<path class="st16" d="M917.7,437l1,1L917.7,437z"/>
<path class="st11" d="M918.7,437c1.2,0.7,1.5,0.7,3,1C920.4,437.3,920.1,437.3,918.7,437z"/>
<path class="st122" d="M922.4,437.3c-0.4,0.4,0.6,0.4,0.7,0.3C923.5,437.2,922.4,437.3,922.4,437.3z"/>
<path class="st20" d="M959.7,437l1,1L959.7,437z"/>
<path class="st24" d="M1022.7,437l1,1L1022.7,437z"/>
<path class="st80" d="M117.7,438l1,1L117.7,438z"/>
<path class="st19" d="M383.7,438l1,1L383.7,438z"/>
<path class="st35" d="M403.7,438l1,1L403.7,438z"/>
<path class="st23" d="M414.7,438l1,1L414.7,438z"/>
<path class="st39" d="M472.7,438l1,1L472.7,438z"/>
<path class="st19" d="M1039.7,438l1,1L1039.7,438z"/>
<path class="st2" d="M1146.7,438l1,1L1146.7,438z"/>
<path class="st110" d="M103.7,439c3.2,1.3,6.6,1,10,1C110.5,438.7,107.1,439,103.7,439z"/>
<path class="st123" d="M114.4,439.3c-0.4,0.4,0.6,0.4,0.7,0.3C115.5,439.2,114.4,439.3,114.4,439.3z"/>
<path class="st30" d="M246.7,439l1,1L246.7,439z"/>
<path class="st31" d="M536.7,439l1,1L536.7,439z"/>
<path class="st24" d="M880.7,439l1,1L880.7,439z"/>
<path class="st15" d="M958.7,439l1,1L958.7,439z"/>
<path class="st111" d="M1023.7,439l1,1L1023.7,439z"/>
<path class="st107" d="M1132.7,439c2.9,1.2,5.9,1,9,1C1138.8,438.8,1135.8,439,1132.7,439z"/>
<path class="st124" d="M1141.7,439c1.2,0.7,1.6,0.7,3,1C1143.4,439.3,1143.1,439.3,1141.7,439z"/>
<path class="st26" d="M170.7,440l1,1L170.7,440z"/>
<path class="st53" d="M246.7,440l1,1L246.7,440z"/>
<path class="st35" d="M442.7,440l1,1L442.7,440z"/>
<path class="st25" d="M473.7,440l1,1L473.7,440z"/>
<path class="st112" d="M537.7,440l1,1L537.7,440z"/>
<path class="st24" d="M1038.7,440l1,1L1038.7,440z"/>
<path class="st5" d="M348.7,441l1,1L348.7,441z"/>
<path class="st11" d="M381.7,441l1,1L381.7,441z"/>
<path class="st6" d="M881.7,441l1,1L881.7,441 M1024.7,441l1,1L1024.7,441z"/>
<path class="st25" d="M1174.7,441l1,1L1174.7,441z"/>
<path class="st79" d="M145.7,442l1,1L145.7,442z"/>
<path class="st6" d="M247.7,442l1,1L247.7,442z"/>
<path class="st40" d="M882.7,442l1,1L882.7,442z"/>
<path class="st11" d="M956.7,442l1,1L956.7,442z"/>
<path class="st112" d="M145.7,443l1,1L145.7,443z"/>
<path class="st35" d="M169.7,443l1,1L169.7,443z"/>
<path class="st72" d="M195.7,443l1,1L195.7,443z"/>
<path class="st125" d="M197.7,443c6.4,2.7,16,1,23,1C214.2,441.3,204.7,443,197.7,443z"/>
<path class="st52" d="M247.7,443l1,1L247.7,443z"/>
<path class="st70" d="M347.7,443l1,1L347.7,443z"/>
<path class="st40" d="M380.7,443l1,1L380.7,443z"/>
<path class="st85" d="M441.7,443l1,1L441.7,443 M475.7,443l1,1L475.7,443z"/>
<path class="st65" d="M539.7,443l1,1L539.7,443z"/>
<path class="st17" d="M955.7,443l1,1L955.7,443z"/>
<path class="st26" d="M220.7,444l1,1L220.7,444z"/>
<path class="st42" d="M278.7,444l1,1L278.7,444z"/>
<path class="st63" d="M476.7,444l1,1L476.7,444z"/>
<path class="st30" d="M540.7,444l1,1L540.7,444z"/>
<path class="st26" d="M1173.7,444l1,1L1173.7,444z"/>
<path class="st7" d="M144.7,445l1,1L144.7,445z"/>
<path class="st30" d="M248.7,445l1,1L248.7,445z"/>
<path class="st41" d="M440.7,445l1,1L440.7,445z"/>
<path class="st72" d="M168.7,446l1,1L168.7,446z"/>
<path class="st31" d="M248.7,446l1,1L248.7,446z"/>
<path class="st42" d="M345.7,446l1,1L345.7,446z"/>
<path class="st2" d="M378.7,446l1,1L378.7,446z"/>
<path class="st89" d="M1172.7,446l1,1L1172.7,446z"/>
<path class="st11" d="M194.7,447l1,1L194.7,447z"/>
<path class="st53" d="M221.7,447l1,1L221.7,447z"/>
<path class="st52" d="M344.7,447l1,1L344.7,447z"/>
<path class="st14" d="M542.7,447l1,1L542.7,447z"/>
<path class="st41" d="M142.7,448l1,1L142.7,448z"/>
<path class="st11" d="M249.7,448l1,1L249.7,448z"/>
<path class="st46" d="M281.7,448l1,1L281.7,448z"/>
<path class="st41" d="M438.7,448l1,1L438.7,448z"/>
<path class="st23" d="M542.7,448l1,1L542.7,448z"/>
<path class="st63" d="M141.7,449l1,1L141.7,449 M437.7,449l1,1L437.7,449z"/>
<path class="st79" d="M140.7,450l1,1L140.7,450z"/>
<path class="st70" d="M193.7,450l1,1L193.7,450z"/>
<path class="st48" d="M222.7,450l1,1L222.7,450z"/>
<path class="st31" d="M341.7,450l1,1L341.7,450z"/>
<path class="st55" d="M380.7,450l1,1L380.7,450z"/>
<path class="st9" d="M436.7,450l1,1L436.7,450z"/>
<path class="st25" d="M482.7,450l1,1L482.7,450z"/>
<path class="st79" d="M539.7,450l1,1L539.7,450z"/>
<path class="st35" d="M948.7,450l1,1L948.7,450z"/>
<path class="st39" d="M139.7,451l1,1L139.7,451z"/>
<path class="st102" d="M223,451.7c-0.1,0.1-0.1,1.1,0.3,0.7C223.4,452.3,223.5,451.2,223,451.7z"/>
<path class="st21" d="M250.7,451l1,1L250.7,451z"/>
<path class="st44" d="M340.7,451l1,1L340.7,451z"/>
<path class="st31" d="M435.7,451l1,1L435.7,451z"/>
<path class="st99" d="M538.7,451l1,1L538.7,451z"/>
<path class="st41" d="M891.7,451l1,1L891.7,451z"/>
<path class="st23" d="M138.7,452l1,1L138.7,452z"/>
<path class="st26" d="M383.7,452l1,1L383.7,452z"/>
<path class="st126" d="M434.7,452l1,1L434.7,452z"/>
<path class="st79" d="M485.7,452l1,1L485.7,452z"/>
<path class="st52" d="M945.7,452l1,1L945.7,452z"/>
<path class="st9" d="M136.7,453l1,1L136.7,453z"/>
<path class="st31" d="M192.7,453l1,1L192.7,453z"/>
<path class="st11" d="M287.7,453l1,1L287.7,453z"/>
<path class="st45" d="M337.7,453l1,1L337.7,453z"/>
<path class="st16" d="M385.7,453l1,1L385.7,453z"/>
<path class="st80" d="M433.7,453l1,1L433.7,453z"/>
<path class="st43" d="M486.7,453l1,1L486.7,453z"/>
<path class="st11" d="M535.7,453l1,1L535.7,453z"/>
<path class="st41" d="M894.7,453l1,1L894.7,453z"/>
<path class="st78" d="M1165.7,453l1,1L1165.7,453z"/>
<path class="st11" d="M165.7,454l1,1L165.7,454z"/>
<path class="st54" d="M223.7,454l1,1L223.7,454z"/>
<path class="st22" d="M251.7,454l1,1L251.7,454z"/>
<path class="st17" d="M289.7,454l1,1L289.7,454z"/>
<path class="st31" d="M387.7,454l1,1L387.7,454z"/>
<path class="st14" d="M488.7,454l1,1L488.7,454z"/>
<path class="st20" d="M533.7,454l1,1L533.7,454z"/>
<path class="st53" d="M896.7,454l1,1L896.7,454z"/>
<path class="st120" d="M942.7,454l1,1L942.7,454z"/>
<path class="st54" d="M1163.7,454l1,1L1163.7,454z"/>
<path class="st17" d="M291.7,455l1,1L291.7,455z"/>
<path class="st11" d="M334.7,455l1,1L334.7,455z"/>
<path class="st36" d="M389.7,455l1,1L389.7,455z"/>
<path class="st37" d="M490.7,455l1,1L490.7,455z"/>
<path class="st52" d="M531.7,455l1,1L531.7,455z"/>
<path class="st59" d="M898.7,455l1,1L898.7,455z"/>
<path class="st26" d="M940.7,455l1,1L940.7,455z"/>
<path class="st108" d="M1161.7,455l1,1L1161.7,455z"/>
<path class="st32" d="M130.7,456l1,1L130.7,456z"/>
<path class="st19" d="M293.7,456l1,1L293.7,456z"/>
<path class="st5" d="M331.7,456l1,1L331.7,456z"/>
<path class="st32" d="M391.7,456l1,1L391.7,456z"/>
<path class="st43" d="M428.7,456l1,1L428.7,456z"/>
<path class="st21" d="M492.7,456l1,1L492.7,456z"/>
<path class="st19" d="M529.7,456l1,1L529.7,456z"/>
<path class="st32" d="M900.7,456l1,1L900.7,456z"/>
<path class="st57" d="M937.7,456l1,1L937.7,456z"/>
<path class="st16" d="M1158.7,456l1,1L1158.7,456z"/>
<path class="st76" d="M1159.7,456l1,1L1159.7,456z"/>
<path class="st25" d="M126.4,457.3c-0.4,0.4,0.6,0.4,0.7,0.3C127.5,457.2,126.4,457.3,126.4,457.3z"/>
<path class="st11" d="M165,457.7c-0.1,0.1-0.1,1.1,0.3,0.7C165.4,458.3,165.5,457.2,165,457.7z"/>
<path class="st15" d="M191.7,457l1,1L191.7,457z"/>
<path class="st5" d="M252.7,457l1,1L252.7,457z"/>
<path class="st24" d="M296.7,457l1,1L296.7,457z"/>
<path class="st9" d="M328.7,457l1,1L328.7,457z"/>
<path class="st41" d="M329.7,457l1,1L329.7,457z"/>
<path class="st12" d="M394.7,457l1,1L394.7,457z"/>
<path class="st24" d="M425.7,457l1,1L425.7,457z"/>
<path class="st19" d="M495.7,457l1,1L495.7,457z"/>
<path class="st20" d="M526.7,457l1,1L526.7,457z"/>
<path class="st55" d="M903.7,457l1,1L903.7,457z"/>
<path class="st57" d="M934.7,457l1,1L934.7,457z"/>
<path class="st11" d="M935.7,457l1,1L935.7,457z"/>
<path class="st58" d="M1153.7,457c1.2,0.7,1.6,0.7,3,1C1155.4,457.3,1155.1,457.3,1153.7,457z"/>
<path class="st70" d="M77.7,458c4.2,1.8,9.5,1,14,1h26c-4.2-1.8-9.5-1-14-1H77.7z"/>
<path class="st13" d="M117.7,458c1.5,0.7,2.3,0.8,4,1C120.2,458.3,119.4,458.2,117.7,458z"/>
<path class="st70" d="M165.7,458c7.2,3,18.2,1,26,1C184.5,456,173.4,458,165.7,458 M225.7,458c7.6,3.2,19.7,1,28,1
	C246,455.8,234,458,225.7,458z"/>
<path class="st13" d="M299.7,458l1,1L299.7,458z"/>
<path class="st58" d="M300.7,458l1,1L300.7,458z"/>
<path class="st69" d="M325.4,458.3c-0.4,0.4,0.6,0.4,0.7,0.3C326.5,458.2,325.4,458.3,325.4,458.3z"/>
<path class="st26" d="M398.4,458.3c-0.4,0.4,0.6,0.4,0.7,0.3C399.5,458.2,398.4,458.3,398.4,458.3z"/>
<path class="st9" d="M399.7,458l1,1L399.7,458z"/>
<path class="st5" d="M421.7,458l1,1L421.7,458z"/>
<path class="st2" d="M422.7,458l1,1L422.7,458z"/>
<path class="st80" d="M498.7,458l1,1L498.7,458z"/>
<path class="st62" d="M500.4,458.3c-0.4,0.4,0.6,0.4,0.7,0.3C501.5,458.2,500.4,458.3,500.4,458.3z"/>
<path class="st79" d="M522.7,458l1,1L522.7,458z"/>
<path class="st26" d="M523.7,458l1,1L523.7,458z"/>
<path class="st44" d="M569.7,458c7.6,3.2,19.7,1,28,1C590,455.8,578,458,569.7,458 M619.7,458c7.4,3.1,19,1,27,1
	C639.3,455.9,627.7,458,619.7,458z"/>
<path class="st127" d="M712.7,458c7.4,3.1,19,1,27,1C732.3,455.9,720.7,458,712.7,458z"/>
<path class="st70" d="M805.7,458c5.2,2.2,12.4,1,18,1h36c-5.2-2.2-12.4-1-18-1H805.7z"/>
<path class="st55" d="M907.4,458.3c-0.4,0.4,0.6,0.4,0.7,0.3C908.5,458.2,907.4,458.3,907.4,458.3z"/>
<path class="st3" d="M930.7,458l1,1L930.7,458z"/>
<path class="st110" d="M932.4,458.3c-0.4,0.4,0.6,0.4,0.7,0.3C933.5,458.2,932.4,458.3,932.4,458.3z"/>
<path class="st44" d="M985.7,458c7.4,3.1,19,1,27,1C1005.3,455.9,993.7,458,985.7,458 M1051.7,458c7.7,3.2,19.7,1,28,1
	C1072,455.8,1060,458,1051.7,458z"/>
<path class="st15" d="M1105.7,458l1,1L1105.7,458z"/>
<path class="st44" d="M1106.7,458c4,1.7,8.7,1,13,1h26c-4-1.7-8.7-1-13-1H1106.7z"/>
<path class="st6" d="M1145.7,458c1.8,0.8,3,0.9,5,1C1148.9,458.2,1147.6,458.1,1145.7,458z"/>
<path class="st83" d="M306.4,459.3c-0.4,0.4,0.6,0.4,0.7,0.3C307.5,459.2,306.4,459.3,306.4,459.3z"/>
<path class="st5" d="M307.7,459c1.2,0.7,1.5,0.7,3,1C309.4,459.3,309.1,459.3,307.7,459z"/>
<path class="st3" d="M315.7,459c1.5,0.7,2.3,0.8,4,1C318.2,459.3,317.4,459.2,315.7,459z"/>
<path class="st85" d="M320.4,459.3c-0.4,0.4,0.6,0.4,0.7,0.3C321.5,459.2,320.4,459.3,320.4,459.3z"/>
<path class="st80" d="M403.4,459.3c-0.4,0.4,0.6,0.4,0.7,0.3C404.5,459.2,403.4,459.3,403.4,459.3z"/>
<path class="st44" d="M405.4,459.3c-0.4,0.4,0.6,0.4,0.7,0.3C406.5,459.2,405.4,459.3,405.4,459.3z"/>
<path class="st3" d="M406.7,459c1.2,0.7,1.5,0.7,3,1C408.4,459.3,408.1,459.3,406.7,459 M413.7,459c1.2,0.7,1.5,0.7,3,1
	C415.4,459.3,415.1,459.3,413.7,459z"/>
<path class="st10" d="M417.4,459.3c-0.4,0.4,0.6,0.4,0.7,0.3C418.5,459.2,417.4,459.3,417.4,459.3z"/>
<path class="st128" d="M503.4,459.3c-0.4,0.4,0.6,0.4,0.7,0.3C504.5,459.2,503.4,459.3,503.4,459.3z"/>
<path class="st44" d="M505.4,459.3c-0.4,0.4,0.6,0.4,0.7,0.3C506.5,459.2,505.4,459.3,505.4,459.3z"/>
<path class="st3" d="M506.7,459c1.2,0.7,1.5,0.7,3,1C508.4,459.3,508.1,459.3,506.7,459z"/>
<path class="st79" d="M513.7,459c1.2,0.7,1.5,0.7,3,1C515.4,459.3,515.1,459.3,513.7,459z"/>
<path class="st2" d="M517.4,459.3c-0.4,0.4,0.6,0.4,0.7,0.3C518.5,459.2,517.4,459.3,517.4,459.3z"/>
<path class="st1" d="M911.4,459.3c-0.4,0.4,0.6,0.4,0.7,0.3C912.5,459.2,911.4,459.3,911.4,459.3z"/>
<path class="st14" d="M913.4,459.3c-0.4,0.4,0.6,0.4,0.7,0.3C914.5,459.2,913.4,459.3,913.4,459.3z"/>
<path class="st5" d="M914.7,459c1.2,0.7,1.5,0.7,3,1C916.4,459.3,916.1,459.3,914.7,459z"/>
<path class="st9" d="M921.7,459c1.5,0.7,2.3,0.8,4,1C924.2,459.3,923.4,459.2,921.7,459z"/>
<path class="st89" d="M926.4,459.3c-0.4,0.4,0.6,0.4,0.7,0.3C927.5,459.2,926.4,459.3,926.4,459.3z"/>
</svg>
