<?xml version="1.0" encoding="utf-8"?>
<!DOCTYPE svg PUBLIC "-//W3C//DTD SVG 20010904//EN" "http://www.w3.org/TR/2001/REC-SVG-20010904/DTD/svg10.dtd">
<svg version="1.0" xmlns="http://www.w3.org/2000/svg" width="1200px" height="560px" viewBox="0 0 1200 560" preserveAspectRatio="xMidYMid meet">
 <g fill="#008daf">
  <path d="M175.7 180.8 c0.2 -97.4 0.4 -177.3 0.6 -177.5 0.6 -0.6 837.8 -0.3 838.8 0.3 0.5 0.3 0.9 72.2 0.9 177.5 l0 176.9 -420.2 0 -420.3 0 0.2 -177.2z m436.2 118.7 c10.8 -1.9 15.7 -3.2 24.7 -6.1 7.5 -2.4 26.5 -11 27.4 -12.3 0.3 -0.5 1.5 -1.1 2.7 -1.5 2.3 -0.7 15.8 -9.3 18.3 -11.7 0.9 -0.8 2.3 -1.8 3.2 -2.4 3.9 -2.5 12.5 -9.5 14.9 -12.1 1.4 -1.6 4.9 -5 7.7 -7.6 2.9 -2.6 5.2 -4.9 5.2 -5.2 0 -0.2 2.5 -3.1 5.5 -6.3 3 -3.2 5.5 -6.1 5.5 -6.5 0 -0.8 2.1 -3.5 5.5 -7.2 2.8 -3 6.5 -8.4 6.5 -9.3 0 -0.4 1.4 -2.8 3 -5.3 3.9 -5.8 7 -12.6 7 -15.6 0 -1.2 0.5 -2.6 1 -2.9 1.2 -0.8 1.3 -10.5 0.1 -10.5 -0.5 0 -1.1 -1.7 -1.4 -3.7 -0.6 -4.8 -2.9 -10.9 -5.1 -13.4 -0.9 -1.1 -1.6 -2.3 -1.6 -2.8 0 -0.7 -7.7 -12.9 -9 -14.1 -0.3 -0.3 -1.8 -2.3 -3.4 -4.5 -6.8 -9.2 -16.8 -19.9 -25.8 -27.5 -1.6 -1.4 -5.2 -4.6 -8.1 -7.3 -2.9 -2.6 -6 -5 -6.9 -5.3 -1 -0.3 -1.8 -1 -1.8 -1.5 0 -0.5 -0.6 -0.9 -1.4 -0.9 -0.8 0 -1.6 -0.4 -1.8 -0.8 -0.1 -0.4 -3.1 -2.5 -6.6 -4.6 -3.4 -2.1 -6.8 -4.3 -7.5 -4.9 -2.8 -2.6 -24.9 -12.8 -32.7 -15.2 -3 -0.9 -6.4 -2 -7.5 -2.5 -4.5 -1.8 -28.7 -6 -34.7 -6 -5.5 0 -21.4 2.5 -28.8 4.6 -10.3 2.8 -16.5 4.7 -18 5.4 -0.8 0.4 -2.6 1.2 -4 1.8 -3.5 1.3 -20.9 9.8 -24.5 12 -2.6 1.5 -7.6 4.8 -16.9 11.2 -6.9 4.8 -16.6 13.5 -27.6 24.7 -12.8 13.1 -16 16.7 -16 18.1 0 0.4 -0.9 1.4 -2 2.2 -1.1 0.8 -2 2 -2 2.7 0 0.7 -0.4 1.3 -0.9 1.3 -0.5 0 -1.2 0.8 -1.6 1.9 -0.3 1 -1.4 2.9 -2.5 4.1 -1.1 1.3 -2 3.1 -2 4.2 0 1 -0.4 1.8 -0.9 1.8 -0.5 0 -1.4 1.4 -2 3 -0.5 1.7 -1.9 4.3 -2.9 5.8 -2.6 3.9 -4.5 12.6 -3.7 17 1 5.2 4.5 15.2 6.4 18.2 0.9 1.4 2.7 4.6 4.1 7.3 1.3 2.6 2.8 4.7 3.2 4.7 0.5 0 0.8 0.5 0.8 1.1 0 0.6 1 2.4 2.3 3.9 1.2 1.5 3 3.8 3.9 5.1 4.8 6.8 12.1 14.7 24.2 26.7 2.9 2.8 5.7 5.2 6.1 5.2 0.4 0 2 1.2 3.5 2.8 4.6 4.5 7.7 7.2 8.4 7.2 0.7 0 2 1 5.1 3.8 0.7 0.6 1.7 1.2 2.1 1.2 0.4 0 2.2 1.1 4 2.5 1.8 1.4 3.7 2.5 4.3 2.5 0.6 0 1.1 0.4 1.1 0.9 0 1.6 25.7 13.7 36 17 10 3.2 29.5 6.4 41.9 6.9 4 0.1 11.2 -0.5 16 -1.3z"/>
  <path d="M525.5 260.5 c-2.7 -1.9 -5.4 -3.8 -6 -4.2 -0.5 -0.5 -3 -2.4 -5.5 -4.3 -7.6 -5.9 -8.1 -6.3 -13.9 -12.1 -10.5 -10.4 -22.1 -24.3 -22.1 -26.5 0 -0.4 -0.6 -1.2 -1.4 -1.8 -0.8 -0.6 -3.6 -5.1 -6.1 -10 -5.7 -11 -7.9 -22.7 -5.3 -28.6 0.9 -1.9 2.3 -5.3 3.2 -7.5 2.3 -5.5 6.6 -13.7 8.2 -15.6 0.8 -0.8 1.4 -1.9 1.4 -2.2 0 -0.4 0.8 -1.5 1.8 -2.5 0.9 -1 3.5 -4 5.7 -6.7 4.5 -5.3 6.3 -7.5 8.6 -10.2 0.8 -1 4.4 -4.3 7.9 -7.3 3.5 -3 7.7 -6.7 9.4 -8.3 1.7 -1.5 3.4 -2.7 3.8 -2.7 0.3 0 1.3 -0.6 2 -1.3 1.5 -1.3 3.7 -2.8 8.2 -5.5 1.5 -0.9 4.2 -2.7 6 -3.9 4.9 -3.4 11.6 -6.3 14.7 -6.3 2.5 0 2.9 0.4 2.9 2.8 0 4.2 -1.1 7.2 -2.6 7.2 -0.7 0 -1.7 0.6 -2.1 1.3 -0.4 0.8 -3.1 3 -6 5 -6 4.2 -12.9 11.1 -14.9 15 -0.8 1.5 -1.9 2.7 -2.4 2.7 -0.6 0 -1 0.7 -1 1.5 0 0.8 -0.4 1.5 -1 1.5 -0.5 0 -1 0.7 -1 1.5 0 0.8 -0.3 1.5 -0.8 1.5 -0.6 0 -4.3 6.8 -6.2 11.5 -0.5 1.1 -2 4.7 -3.5 8 -1.7 3.9 -2.8 8.6 -3.2 13.7 -0.3 4.3 -1 7.8 -1.4 7.8 -1.1 0 -1.1 11.5 0.1 20 1.1 8.3 2.7 14.5 5.1 19.5 1 2.2 1.9 4.6 1.9 5.4 0 1.9 5.8 11.9 9.2 15.9 1.5 1.8 2.8 3.6 2.8 4.1 0 0.9 7.5 8.7 12.9 13.4 2.8 2.5 3.2 3.4 2.9 7 -0.3 4 -0.4 4.2 -3.8 4.4 -2.6 0.2 -4.8 -0.7 -8.5 -3.2z"/>
  <path d="M657.8 259.3 c-1.2 -0.3 -1.8 -1.4 -1.8 -3.5 0 -2.4 1.3 -4.4 6.8 -9.7 7.3 -7.3 12.5 -14.2 13.7 -18.1 0.4 -1.4 1.6 -3.6 2.5 -5 3.6 -5.1 7.9 -21.3 8.7 -32.7 l0.5 -6.3 -14.5 0 -14.4 0 -0.7 8.6 c-0.4 5.4 -1.3 9.9 -2.6 12.2 -1 2 -2.9 5.9 -4.1 8.7 -2.7 5.8 -3.4 6.8 -11.8 15.7 -6.7 7.1 -9.8 9.1 -22.1 14.1 -7.2 2.9 -8.2 3 -22.5 3.1 -14.7 0.1 -15.2 0 -24 -3.3 -8.6 -3.3 -15.7 -7.3 -19.7 -11.3 -1 -1 -2.2 -1.8 -2.8 -1.8 -0.5 0 -1 -0.4 -1 -1 0 -0.5 -0.8 -1.8 -1.7 -2.8 -3.3 -3.5 -5.3 -6.2 -5.3 -7.2 0 -0.6 -0.4 -1 -1 -1 -0.5 0 -1 -0.7 -1 -1.6 0 -0.9 -1.1 -3.7 -2.5 -6.3 -3.4 -6.5 -4.7 -13.5 -5.2 -29.3 -0.4 -13.2 -0.3 -14 2.1 -19.2 1.4 -3 2.6 -5.9 2.6 -6.4 0 -1.4 3 -7.1 4.1 -7.7 0.5 -0.4 0.9 -1.3 0.9 -2.1 0 -1.2 2.2 -4.2 5.8 -8 0.6 -0.7 1.2 -1.6 1.2 -1.9 0 -0.8 7.2 -7.4 8.1 -7.5 0.3 0 1.8 -1 3.3 -2.3 1.5 -1.3 5 -3.2 7.9 -4.2 2.9 -1 5.8 -2.3 6.6 -2.9 0.9 -0.7 7.3 -1.1 17.5 -1.1 15.2 0 16.4 0.1 21.6 2.6 7.3 3.4 9 5.3 9 9.7 0 3.4 -1.4 5 -24 27.4 -23.9 23.7 -26.7 27.2 -24.1 30.7 0.6 0.9 1.4 2.3 1.7 3.1 3 8.1 6.7 11 13.8 11 5.7 0 8.3 -1.6 16.1 -9.8 3.3 -3.4 17.9 -18.4 32.5 -33.2 14.6 -14.8 27.6 -28.2 29.1 -29.8 l2.5 -3 -2.3 -2.8 c-1.3 -1.6 -3.2 -3.9 -4.1 -5.1 -0.9 -1.2 -4.5 -4.5 -7.9 -7.4 -5.8 -4.7 -6.3 -5.4 -6.3 -9 l0 -3.9 5 0 c3.6 0 5.2 0.4 5.6 1.5 0.4 0.8 1.2 1.5 2 1.5 0.8 0 1.4 0.4 1.4 1 0 0.5 1.1 1.2 2.5 1.6 1.4 0.3 2.5 1 2.5 1.5 0 0.5 1.9 2.1 4.2 3.6 2.3 1.6 5.6 4 7.2 5.6 1.7 1.5 3.6 2.7 4.3 2.7 0.7 0 1.3 0.7 1.3 1.5 0 0.8 0.4 1.5 0.8 1.5 1.2 0 13.1 11.7 17.8 17.5 2.2 2.8 5.9 7.9 8.2 11.5 2.3 3.6 4.5 7 4.9 7.5 0.8 1 2.5 4.5 4.2 8.8 1.7 4.1 2.9 9.1 3.6 15 0.7 6 0.3 7.8 -3.6 16.3 -1.1 2.2 -1.9 4.5 -1.9 5.1 0 0.6 -2 4 -4.5 7.6 -2.5 3.7 -4.5 7 -4.5 7.6 0 0.5 -0.3 1.1 -0.8 1.3 -0.4 0.2 -2.3 2.3 -4.2 4.8 -4.7 6 -20.5 21.9 -25.5 25.5 -2.2 1.7 -5.3 4.2 -6.8 5.7 -1.6 1.6 -3.5 2.8 -4.3 2.8 -0.8 0 -1.7 0.7 -2 1.5 -0.6 1.5 -4.7 1.8 -8.6 0.8z"/>
 </g>
 <g fill="#6d6e70">
  <path d="M800 557 c-0.8 -0.5 -4.5 -1 -8.2 -1 -3.7 0 -7 -0.4 -7.3 -1 -0.3 -0.5 -2.1 -1 -3.9 -1 -1.9 0 -3.9 -0.7 -4.6 -1.5 -0.7 -0.9 -1.9 -1.4 -2.6 -1.1 -0.7 0.3 -1.8 -0.2 -2.4 -1 -0.7 -0.8 -2 -1.4 -3 -1.4 -0.9 0 -3.4 -1.1 -5.4 -2.5 -2 -1.4 -3.9 -2.5 -4.3 -2.5 -1.6 0 -16.3 -13.5 -16.3 -15.1 0 -0.5 -0.4 -0.9 -0.8 -0.9 -1 0 -7.2 -8.7 -7.2 -10 0 -0.6 -0.4 -1 -1 -1 -0.5 0 -1 -0.8 -1 -1.9 0 -1 -0.7 -2.4 -1.5 -3.1 -0.8 -0.7 -1.5 -2.1 -1.5 -3.1 0 -1.1 -0.4 -1.9 -1 -1.9 -0.5 0 -1 -1.3 -1 -2.8 0 -1.5 -0.5 -3.3 -1 -3.8 -2.8 -2.8 -5.3 -33.4 -3.1 -37.9 0.5 -1.1 1.2 -4 1.5 -6.5 0.2 -2.4 1 -4.6 1.5 -4.8 0.6 -0.2 1.1 -1.7 1.1 -3.2 0 -1.6 0.5 -3.2 1 -3.5 0.6 -0.3 1 -1.4 1 -2.4 0 -1 0.7 -2.4 1.5 -3.1 0.8 -0.7 1.5 -2.1 1.5 -3.1 0 -1.1 0.5 -1.9 1 -1.9 0.6 0 1 -0.7 1 -1.5 0 -0.9 0.7 -1.8 1.5 -2.1 0.8 -0.4 1.5 -1.2 1.5 -2 0 -3.1 22.5 -23.4 26 -23.4 0.4 0 1 -0.3 1.2 -0.7 0.5 -1.3 6.8 -4.3 8.8 -4.3 1 0 2.2 -0.4 2.5 -1 0.3 -0.5 1.7 -1 3.1 -1 1.4 0 3.6 -0.7 5 -1.7 3.8 -2.5 36.9 -2.5 40.4 0 1.4 0.9 3.7 1.7 5.2 1.7 1.5 0 3 0.5 3.3 1 0.3 0.6 1.7 1 3 1 1.3 0 2.7 0.4 3 1 0.3 0.5 2.3 1.7 4.3 2.6 7.4 3.4 25.2 18.4 25.2 21.2 0 0.5 0.7 1.2 1.5 1.6 0.8 0.3 1.5 1.2 1.5 2.1 0 0.8 0.3 1.5 0.8 1.5 0.7 0 1.4 1 4.6 7.7 5 10.4 6.6 15.3 6.6 19.9 0 2.4 0.5 4.4 1 4.4 0.6 0 1 5.1 1 13.4 0 7.9 -0.4 13.7 -1 14.1 -0.5 0.3 -1 2.3 -1 4.4 0 3.4 -0.9 6.4 -3.9 13.6 -3.3 7.6 -4.3 9.5 -5.1 9.5 -0.6 0 -1 0.8 -1 1.9 0 1 -1.1 3 -2.5 4.5 -1.4 1.5 -2.5 2.9 -2.5 3.2 0 0.5 -11.6 11.8 -15.3 14.9 -1.3 1.1 -3.9 2.8 -5.8 3.9 -1.9 1 -4.9 2.7 -6.7 3.7 -1.8 1.1 -4.1 1.9 -5.1 1.9 -1 0 -2.4 0.7 -3.1 1.5 -0.7 0.8 -2.7 1.5 -4.4 1.5 -1.8 0 -3.6 0.4 -4.1 0.9 -0.6 0.5 -4.4 1.2 -8.5 1.4 -4.1 0.3 -8.8 0.8 -10.5 1.1 -1.6 0.4 -3.7 0.2 -4.5 -0.4z m19.5 -29 c0.6 -0.4 2.2 -1 3.8 -1.4 1.5 -0.3 2.7 -1.1 2.7 -1.6 0 -0.6 0.7 -1 1.5 -1 0.8 0 2.5 -0.6 3.7 -1.2 4.3 -2.5 14.8 -12.3 14.8 -13.8 0 -0.6 0.5 -1 1 -1 0.6 0 1 -0.7 1 -1.5 0 -0.7 0.6 -1.8 1.3 -2.2 1.6 -1.1 3.7 -4.9 3.7 -6.8 0 -0.9 0.7 -1.8 1.5 -2.1 1 -0.4 1.5 -2 1.5 -4.5 0 -2.1 0.5 -3.9 1 -3.9 0.6 0 1 -4.5 1 -11.5 0 -7 -0.4 -11.5 -1 -11.5 -0.5 0 -1 -1.2 -1 -2.7 0 -4.8 -8 -18.9 -14.3 -25.3 -3.9 -4 -9 -7.6 -11.9 -8.6 -1 -0.4 -1.8 -1 -1.8 -1.5 0 -0.5 -1.1 -0.9 -2.5 -0.9 -1.4 0 -2.5 -0.4 -2.5 -0.9 0 -0.6 -2 -1.3 -4.5 -1.7 -2.5 -0.3 -4.8 -1 -5.1 -1.5 -0.7 -1.2 -20.1 -1.2 -20.8 0 -0.4 0.5 -2.4 1.2 -4.6 1.6 -2.2 0.4 -4 1.1 -4 1.6 0 0.5 -1.1 0.9 -2.5 0.9 -1.4 0 -2.5 0.4 -2.5 0.9 0 0.5 -1.1 1.2 -2.5 1.5 -1.4 0.4 -2.5 1.1 -2.5 1.6 0 0.6 -0.5 1 -1 1 -1.3 0 -2.8 1.2 -9.1 7.4 -2.7 2.7 -4.9 5.3 -4.9 5.8 0 0.8 -0.9 2 -3.7 5.3 -0.7 0.7 -1.3 2 -1.3 2.9 0 0.8 -0.4 1.8 -1 2.1 -0.5 0.3 -1 1.7 -1 3 0 1.3 -0.7 3 -1.5 3.9 -1 1 -1.5 3.5 -1.5 7.5 0 3.3 -0.5 6.3 -1.1 6.7 -0.8 0.4 -0.8 0.9 0 1.7 0.6 0.6 1.1 3.7 1.1 7 0 3.9 0.5 6.4 1.5 7.3 0.8 0.9 1.5 2.6 1.5 4 0 1.3 0.5 2.4 1 2.4 0.6 0 1 0.9 1 2 0 1.2 1.1 3.3 2.5 4.8 1.4 1.5 2.5 3 2.5 3.4 0 1.1 10.9 11.8 12 11.8 0.5 0 1 0.4 1 0.8 0 0.7 10.1 6.1 15.5 8.3 4.4 1.8 29.6 1.7 32 -0.1z"/>
  <path d="M239.4 552.5 c-1 -0.8 -3.1 -1.5 -4.7 -1.5 -1.5 0 -3.5 -0.4 -4.5 -0.9 -3.4 -1.8 -9 -4.1 -10.1 -4.1 -0.6 0 -1.1 -0.3 -1.1 -0.8 0 -0.4 -1.5 -1.3 -3.2 -2.1 -1.8 -0.8 -4.5 -2.4 -5.9 -3.5 -1.4 -1.2 -4.1 -3.2 -5.9 -4.6 -1.9 -1.4 -4.1 -3.3 -4.9 -4.4 -0.9 -1 -2.8 -3.1 -4.3 -4.6 -1.6 -1.6 -2.8 -3.3 -2.8 -3.8 0 -0.5 -0.7 -1.2 -1.5 -1.6 -0.8 -0.3 -1.5 -1.2 -1.5 -2.1 0 -0.8 -0.4 -1.5 -1 -1.5 -0.5 0 -1 -0.6 -1 -1.4 0 -0.7 -0.7 -1.9 -1.5 -2.6 -0.8 -0.7 -1.5 -2.1 -1.5 -3.1 0 -1.1 -0.4 -1.9 -1 -1.9 -0.5 0 -1 -1.1 -1 -2.4 0 -1.3 -0.7 -2.9 -1.5 -3.6 -0.8 -0.7 -1.5 -2.7 -1.5 -4.6 0 -1.8 -0.5 -3.6 -1 -3.9 -0.6 -0.3 -1 -3.2 -1 -6.3 0 -3.1 -0.4 -6.2 -0.8 -6.9 -0.9 -1.4 1 -26.8 2 -27.9 0.5 -0.4 0.8 -2 0.8 -3.5 0 -1.5 0.7 -3.4 1.5 -4.3 0.8 -0.8 1.5 -2.3 1.6 -3.3 0 -1 0.9 -3.1 2 -4.8 1.1 -1.6 2.2 -3.8 2.5 -4.8 0.4 -0.9 1 -1.7 1.5 -1.7 0.5 0 0.9 -0.7 0.9 -1.5 0 -0.9 0.7 -1.8 1.5 -2.1 0.8 -0.4 1.5 -1.2 1.5 -2 0 -0.8 0.5 -1.4 1 -1.4 0.6 0 1 -0.4 1 -1 0 -1 11.1 -12 12.2 -12 0.4 0 1.3 -0.7 2.1 -1.5 1.8 -1.7 7 -4.9 11.7 -7.1 1.9 -0.9 4.3 -2 5.2 -2.5 1 -0.5 2.4 -0.9 3.2 -0.9 0.7 0 1.9 -0.7 2.6 -1.5 0.7 -0.8 2.7 -1.5 4.6 -1.5 1.8 0 3.6 -0.4 3.9 -1 0.8 -1.3 34.2 -1.3 35 0 0.3 0.6 2.3 1 4.4 1 2.2 0 4.4 0.6 5.1 1.5 0.7 0.8 2.1 1.5 3.1 1.5 1.1 0 2.7 0.4 3.7 0.9 0.9 0.5 3.4 1.7 5.5 2.7 2 1 3.7 2.2 3.7 2.6 0 0.5 0.7 0.8 1.5 0.8 0.8 0 1.5 0.4 1.5 0.9 0 0.5 1 1.3 2.3 1.7 3.1 1 17.7 16.1 17.7 18.4 0 1.9 -58 60.8 -63.2 64.3 -2.9 1.8 -13.8 2.5 -13.8 0.8 0 -0.5 -1 -1.3 -2.2 -1.7 -3 -0.9 -4.8 -2.9 -4.8 -5.2 0 -1.1 -0.5 -2.2 -1.1 -2.4 -0.5 -0.2 -1.3 -2.2 -1.6 -4.6 -0.4 -3.3 -0.2 -4.3 1.1 -4.8 0.9 -0.3 1.6 -1.4 1.6 -2.5 0 -1 0.6 -2.2 1.4 -2.6 0.8 -0.4 7.4 -6.5 14.7 -13.6 7.4 -7 16.1 -15.1 19.3 -18.1 5.8 -5.3 5.9 -5.5 4.4 -7.8 -0.8 -1.3 -2.8 -3 -4.4 -3.8 -1.6 -0.8 -3.7 -2.1 -4.7 -2.9 -2.7 -2.2 -25.8 -2.2 -30.7 0 -1.9 0.9 -5 2.3 -6.7 3 -1.8 0.8 -3.3 1.7 -3.3 2.1 0 0.5 -0.6 0.8 -1.3 0.8 -0.7 0 -3.4 2.1 -5.9 4.7 -7.2 7.3 -7.8 8.1 -7.8 9.2 0 0.6 -0.4 1.1 -1 1.1 -0.5 0 -1.7 1.7 -2.6 3.8 -0.9 2 -2.7 6 -3.9 8.7 -2.5 5.4 -4.5 18.3 -3.3 21.2 0.3 1 0.7 4.4 0.7 7.6 0.1 3.1 0.6 5.7 1.1 5.7 0.6 0 1 0.7 1 1.7 0 2.1 4.8 11.9 6.6 13.4 0.8 0.6 1.4 1.6 1.4 2.2 0 3.7 20.8 17.6 26.4 17.7 1.1 0 3 0.7 4 1.5 1.5 1.1 4.8 1.5 12.6 1.5 7.8 0 11.1 -0.4 12.6 -1.5 1 -0.8 2.8 -1.5 4 -1.5 4.2 0 14.5 -6.2 20.9 -12.5 3.6 -3.5 6.5 -6.9 6.5 -7.5 0 -0.5 0.4 -1 0.9 -1 0.5 0 1.1 -0.8 1.5 -1.7 0.3 -1 0.9 -2.5 1.4 -3.3 2.3 -3.9 3.2 -6.1 3.2 -7.8 0 -1 0.7 -2.7 1.5 -3.8 0.8 -1.1 1.4 -4.1 1.5 -7.1 l0 -5.3 13.5 0 13.5 0 0 7.3 c-0.1 4.3 -0.6 8.2 -1.5 9.7 -0.8 1.4 -1.4 3.9 -1.5 5.7 0 1.7 -0.4 3.5 -1 3.8 -0.5 0.3 -1 1.7 -1 2.9 0 1.3 -0.7 2.9 -1.5 3.6 -0.8 0.7 -1.5 2 -1.6 2.9 0 0.9 -0.9 3 -2 4.6 -1.1 1.7 -2.2 3.8 -2.5 4.8 -0.4 0.9 -1 1.7 -1.5 1.7 -0.5 0 -0.9 0.5 -0.9 1 0 1.2 -12.4 14 -13.6 14 -0.5 0 -2.2 1.3 -3.9 2.8 -1.6 1.5 -4.6 3.4 -6.5 4.2 -1.9 0.7 -4.2 1.8 -5 2.4 -3.3 2.4 -6.1 3.6 -8.4 3.6 -1.4 0 -2.8 0.5 -3.1 1 -0.3 0.6 -2.1 1 -3.8 1 -1.8 0.1 -4.3 0.7 -5.7 1.5 -3.6 2.1 -30.8 2.1 -33.6 0z"/>
  <path d="M387.1 552.5 c-1.8 -0.8 -5.1 -1.5 -7.2 -1.5 -2.1 0 -4.1 -0.4 -4.4 -1 -0.3 -0.5 -1.5 -1 -2.6 -1 -1.2 0 -5.5 -1.7 -9.7 -3.8 -10.7 -5.3 -12.1 -6.2 -16.6 -9.9 -0.8 -0.7 -1.7 -1.3 -2 -1.3 -0.3 0 -1.9 -1.3 -3.6 -2.9 -3.1 -2.8 -3.2 -2.9 -1.5 -5.5 1 -1.4 2.1 -2.6 2.6 -2.6 0.5 0 0.9 -0.7 0.9 -1.5 0 -0.8 0.5 -1.5 1 -1.5 0.6 0 1 -0.5 1 -1.1 0 -1 1 -2.3 6.3 -8 0.9 -1 1.7 -2.2 1.7 -2.6 0 -0.5 0.7 -1.6 1.4 -2.6 1.3 -1.7 1.6 -1.5 5.2 1.8 4.5 4.2 15.1 11.5 16.8 11.5 0.7 0 1.6 0.3 2 0.7 0.4 0.4 2.8 1.5 5.4 2.5 5.2 2 22.6 2.6 23.7 0.8 0.3 -0.5 1.7 -1 2.9 -1 1.3 0 2.9 -0.7 3.6 -1.5 0.7 -0.8 1.7 -1.5 2.2 -1.5 1.3 0 3.8 -2.6 3.8 -3.9 0 -0.6 0.5 -1.1 1 -1.1 0.6 0 1 -1.3 1 -2.9 0 -1.7 0.4 -3.3 1 -3.6 0.9 -0.6 0.8 -3 -0.6 -9 -1.2 -5.1 -9.4 -11.4 -14.8 -11.5 -1.2 0 -3 -0.7 -4 -1.5 -1.1 -0.8 -3.4 -1.5 -5.2 -1.5 -1.8 0 -3.6 -0.4 -3.9 -1 -0.3 -0.5 -2.2 -1 -4.1 -1 -1.9 0 -4.8 -0.7 -6.5 -1.5 -1.6 -0.9 -3.4 -1.3 -4 -1 -0.5 0.4 -2.1 0 -3.4 -0.9 -1.3 -0.9 -3.3 -1.6 -4.5 -1.6 -6.2 0 -24 -13.4 -24 -18.1 0 -0.9 -0.5 -1.9 -1.1 -2.1 -2.6 -0.9 -4.2 -21.8 -2.4 -31 0.4 -2.1 1.3 -4.3 2.1 -4.9 0.8 -0.6 1.4 -2 1.4 -3 0 -1.1 0.5 -1.9 1 -1.9 0.6 0 1 -0.5 1 -1.2 0 -1.1 10.4 -11.8 11.5 -11.8 0.4 0 2.1 -1 3.8 -2.3 1.8 -1.3 5.2 -3.1 7.7 -4.1 2.5 -1 5.4 -2.2 6.5 -2.7 1.1 -0.4 4.3 -1 7 -1.2 2.8 -0.2 6.1 -0.8 7.5 -1.2 1.4 -0.4 3.5 -0.7 4.8 -0.6 5.7 0.3 8.1 0.7 8.8 1.3 0.4 0.5 4 0.8 8 0.8 4 0 7.6 0.5 7.9 1 0.3 0.6 1.5 1 2.5 1 2 0 8.3 3 8.8 4.3 0.2 0.4 1 0.7 1.7 0.7 0.7 0 3.9 2.3 6.9 5.1 l5.6 5.1 0 8.4 c0 4.9 -0.4 8.4 -1 8.4 -0.5 0 -1 0.6 -1 1.4 0 2.3 -8.6 5.9 -11.8 5 -1.5 -0.4 -3.2 -0.6 -3.8 -0.5 -0.6 0 -1.7 -0.6 -2.4 -1.4 -0.7 -0.8 -1.7 -1.5 -2.2 -1.5 -0.5 0 -2.8 -1.6 -5 -3.4 -2.2 -1.9 -5.3 -3.8 -6.9 -4.1 -1.6 -0.4 -3.1 -1.1 -3.4 -1.6 -0.4 -0.5 -5.7 -0.9 -12 -0.9 -9.9 0 -11.9 0.3 -15.2 2.2 -2.1 1.2 -4.4 3 -5.1 4 -0.7 0.9 -1.9 2.4 -2.7 3.2 -0.8 0.8 -1.5 2.4 -1.5 3.5 0 1.2 -0.4 2.1 -1 2.1 -1.4 0 -1.2 4.6 0.3 7.2 1.7 3 5.5 6.3 9.7 8.3 1.9 0.9 4.8 2.3 6.3 3.1 1.6 0.8 3.9 1.4 5.2 1.4 1.3 0 2.7 0.5 3 1 0.3 0.6 1.8 1 3.3 1 1.5 0.1 3.8 0.7 5.2 1.5 1.4 0.8 3.7 1.4 5.2 1.5 1.5 0 3 0.5 3.3 1 0.3 0.6 1.7 1 3.1 1 1.3 0 3.2 0.4 4.2 1 0.9 0.5 3.5 1.6 5.7 2.6 2.2 0.9 5.5 2.4 7.4 3.3 3.9 1.8 13.1 10.1 13.1 11.8 0 0.6 0.7 1.3 1.5 1.7 0.8 0.3 1.5 1.6 1.5 3 0 1.4 0.5 2.8 1 3.1 0.6 0.4 1 6.7 1 15.6 0 9.3 -0.4 14.9 -1 14.9 -0.5 0 -1 1.3 -1 2.9 0 1.6 -0.7 3.4 -1.5 4.1 -0.8 0.7 -1.5 1.8 -1.5 2.4 0 0.7 -1.4 2.8 -3.1 4.7 -1.7 1.9 -3.4 3.9 -3.7 4.4 -1.1 1.6 -8 6.5 -9.1 6.5 -0.6 0 -1.1 0.4 -1.1 0.9 0 0.5 -1.3 1.2 -3 1.6 -1.6 0.4 -3.2 1.1 -3.5 1.6 -0.4 0.5 -1.9 0.9 -3.5 0.9 -1.6 0 -3.2 0.5 -3.5 1 -0.3 0.6 -2.4 1 -4.5 1 -2.2 0 -6.5 0.7 -9.7 1.5 -7.1 1.9 -12.8 1.9 -17.2 0z"/>
  <path d="M508.5 552.5 c-1.6 -0.8 -4.7 -1.4 -6.7 -1.5 -2 0 -4 -0.4 -4.3 -1 -0.3 -0.5 -1.9 -1 -3.5 -1 -1.6 0 -3.1 -0.4 -3.5 -0.9 -0.3 -0.5 -1.9 -1.2 -3.5 -1.6 -1.7 -0.4 -3 -1.1 -3 -1.6 0 -0.5 -0.7 -0.9 -1.7 -0.9 -0.9 0 -3.1 -1.1 -4.9 -2.5 -1.8 -1.4 -3.6 -2.5 -4 -2.5 -1.2 0 -14.4 -10.3 -14.4 -11.2 0 -0.5 0.7 -1.1 1.5 -1.4 0.8 -0.4 1.5 -1.2 1.5 -2 0 -0.8 0.5 -1.4 1 -1.4 0.6 0 1 -0.7 1 -1.5 0 -0.9 0.7 -1.8 1.5 -2.1 0.8 -0.4 1.5 -1.2 1.5 -2 0 -0.8 0.3 -1.4 0.8 -1.4 0.4 0 1.8 -1.7 3.2 -3.7 1.4 -2 3.4 -4.7 4.6 -6 2 -2.2 2.1 -2.2 3.7 -0.3 4.7 5.5 18.8 14.2 25.5 15.7 1.2 0.3 2.2 0.9 2.2 1.4 0 0.5 4.7 0.9 10.5 0.9 6.3 0 10.5 -0.4 10.5 -1 0 -0.5 1.4 -1 3.1 -1 4.4 0 12.9 -8.8 12.9 -13.4 0 -1.8 0.6 -3.8 1.3 -4.5 1 -1.1 1 -1.4 0 -1.8 -0.7 -0.3 -1.3 -1.5 -1.3 -2.8 0 -1.3 -0.7 -3 -1.5 -3.9 -0.8 -0.8 -1.5 -1.9 -1.5 -2.5 0 -0.6 -0.7 -1.1 -1.5 -1.1 -0.8 0 -1.5 -0.4 -1.5 -0.8 0 -1.1 -7.1 -4.2 -9.6 -4.2 -1 0 -2.8 -0.7 -3.8 -1.5 -1.1 -0.8 -3.4 -1.5 -5.2 -1.5 -1.8 0 -3.6 -0.4 -3.9 -1 -0.3 -0.5 -2.1 -1 -3.9 -1 -1.8 0 -4.7 -0.7 -6.4 -1.6 -1.8 -0.8 -3.7 -1.2 -4.2 -0.9 -0.6 0.4 -2.2 0 -3.5 -0.9 -1.3 -0.9 -3.1 -1.6 -3.9 -1.6 -5 0 -19.9 -9.5 -21.9 -14 -0.4 -0.8 -1.6 -2.8 -2.6 -4.5 -1.1 -1.6 -2 -4.6 -2 -6.5 -0.1 -2 -0.6 -4.1 -1.2 -4.7 -0.7 -0.7 -1.4 -4.6 -1.7 -8.7 -0.4 -5.9 -0.1 -8.1 1.2 -10 0.9 -1.4 1.6 -3.4 1.6 -4.5 0 -3.2 5 -11.3 10 -16.1 3.6 -3.5 9.7 -8 10.8 -8 0.6 0 1.2 -0.3 1.4 -0.7 0.5 -1.3 6.8 -4.3 8.8 -4.3 1 0 2.1 -0.4 2.4 -0.9 0.3 -0.5 3.2 -1.1 6.3 -1.4 3.2 -0.3 6.9 -0.8 8.3 -1.2 2.8 -0.8 3.9 -0.8 9.2 -0.3 2 0.2 4 0.7 4.4 1.1 0.4 0.4 3.4 0.7 6.7 0.7 10.3 0 20.6 4.5 29.7 12.9 l6 5.6 0 7.3 c0 5.5 -0.4 7.4 -1.5 7.8 -0.8 0.4 -1.5 1 -1.5 1.6 0 2.9 -7.7 6.4 -11.7 5.3 -1.6 -0.5 -3.3 -0.7 -3.9 -0.6 -0.6 0 -1.7 -0.6 -2.4 -1.4 -0.7 -0.8 -1.7 -1.5 -2.2 -1.5 -0.5 0 -2.1 -1.1 -3.6 -2.5 -1.5 -1.4 -3.2 -2.5 -3.9 -2.5 -0.7 0 -1.3 -0.4 -1.3 -0.9 0 -0.5 -1.3 -1.2 -3 -1.6 -1.6 -0.4 -3 -1.1 -3 -1.6 0 -0.5 -5.4 -0.9 -12.1 -0.9 -11.9 0 -12.1 0 -17 3.2 -2.7 1.8 -4.9 3.8 -4.9 4.4 0 0.6 -0.7 1.7 -1.5 2.4 -0.8 0.7 -1.5 2.1 -1.5 3.1 0 1.1 -0.4 1.9 -1 1.9 -1.4 0 -1.2 3.3 0.3 6.4 1.6 3 7.7 8.6 9.5 8.6 0.6 0 1.2 0.5 1.2 1 0 0.6 1.1 1 2.4 1 1.3 0 2.9 0.7 3.6 1.5 0.7 0.8 2.5 1.5 4.1 1.5 1.5 0 3.1 0.5 3.4 1 0.3 0.6 1.9 1 3.4 1 1.5 0 3.6 0.7 4.7 1.5 1 0.8 3.3 1.5 5.1 1.5 1.7 0 3.5 0.5 3.8 1 0.3 0.6 1.9 1 3.4 1 1.6 0 3.4 0.7 4.1 1.5 0.7 0.9 1.9 1.4 2.6 1.1 0.6 -0.2 2 0.2 3.1 0.9 1 0.8 2.4 1.5 3.1 1.5 1.4 0 11.7 6.3 13.9 8.5 0.7 0.8 1.3 1.8 1.3 2.3 0 0.6 0.7 1.2 1.5 1.6 0.8 0.3 1.5 1.2 1.5 2.1 0 0.8 0.5 1.5 1 1.5 0.6 0 1 1.1 1 2.4 0 1.3 0.7 2.9 1.5 3.6 1.2 1 1.5 3.9 1.5 14.6 0 10.4 -0.3 13.6 -1.5 14.8 -0.8 0.8 -1.5 2.3 -1.5 3.4 0 2.4 -2.9 8.2 -4.1 8.2 -0.5 0 -0.9 0.6 -0.9 1.3 0 4.2 -18.9 17.7 -24.8 17.7 -1.2 0 -2.4 0.5 -2.7 1 -0.3 0.6 -2.6 1 -5 1 -2.4 0 -7 0.7 -10.2 1.5 -6.9 1.8 -12.8 1.8 -16.8 0z"/>
  <path d="M990.4 543.7 c-12.3 -12.4 -39.8 -39 -48.8 -47.2 l-6.6 -6 0 -7 c0 -6.8 0.1 -7.1 3.5 -10.3 l3.6 -3.2 19.3 0 c16 0 19.6 -0.3 20.6 -1.5 0.7 -0.8 1.8 -1.5 2.4 -1.5 1.6 0 5.6 -4.2 5.6 -5.8 0 -0.7 0.4 -1.2 0.9 -1.2 1.3 0 2.3 -5.6 2.3 -12.5 0 -6.9 -1 -12.5 -2.3 -12.5 -0.5 0 -0.9 -0.6 -0.9 -1.3 0 -1.8 -4.8 -6.7 -6.5 -6.7 -0.8 0 -1.5 -0.4 -1.5 -1 0 -0.6 -9.8 -1 -27.5 -1 l-27.5 0 -0.5 2.3 c-0.3 1.2 -0.4 29.1 -0.3 62 l0.3 59.7 -13.2 0 -13.3 0 0 -77 0 -77 42.4 0 c36.4 0 42.5 0.2 43.6 1.5 0.7 0.8 2.8 1.5 4.6 1.5 1.9 0 3.4 0.5 3.4 1 0 0.6 1.1 1 2.5 1 1.4 0 2.5 0.4 2.5 0.8 0 0.4 1.2 1.5 2.8 2.4 4.3 2.7 12.2 10.8 12.2 12.7 0 0.5 0.7 1.4 1.5 2.1 0.8 0.7 1.5 2.1 1.5 3.1 0 1.1 0.5 1.9 1 1.9 0.6 0 1 1.3 1 2.9 0 1.6 0.7 3.4 1.5 4.1 2.2 1.8 2.2 27.7 0 30.6 -0.8 1 -1.5 2.9 -1.5 4.1 0 1.2 -0.4 2.5 -1 2.8 -0.5 0.3 -1 1.5 -1 2.6 0 1.1 -0.7 2.2 -1.5 2.5 -0.8 0.4 -1.5 1 -1.5 1.6 0 0.5 -0.7 1.6 -1.5 2.4 -0.8 0.8 -2 2.3 -2.7 3.2 -1.8 2.3 -9.1 7.9 -12.2 9.3 -1.4 0.7 -2.6 1.6 -2.6 2.1 0 0.4 -0.8 0.8 -1.7 0.8 -1.8 0.1 -6.3 3.2 -6.3 4.4 0 0.8 0.5 1.3 19.5 20.6 l16 16.3 -0.1 7.3 c-0.1 6.9 -0.3 7.4 -3.5 10.3 -3.1 2.9 -3.8 3.1 -10.9 3 l-7.5 0 -10.1 -10.2z"/>
  <path d="M648 476.9 l0 -74.5 2.8 -3.1 c4.3 -4.9 14.9 -8.2 16.7 -5.3 0.3 0.6 1.3 1 2 1 1.9 0 5.5 3.1 5.5 4.7 0 0.7 0.5 1.3 1 1.3 0.7 0 1 21.3 1 62 l0 62 2.7 1.1 c1.6 0.6 11.7 0.9 26 0.7 l23.3 -0.3 0 12.5 0 12.5 -40.5 0 -40.5 0 0 -74.6z"/>
  <path d="M596.7 479.8 c0.1 -39.2 0.5 -73.2 0.8 -75.4 0.4 -2.6 1.5 -5 3 -6.4 4.2 -3.9 13.5 -6.4 15 -4 0.3 0.5 1.3 1 2.1 1 1.9 0 7.4 5.4 7.4 7.3 0 0.7 0.2 1.6 0.5 1.9 0.3 0.3 0.7 33.4 0.8 73.7 l0.2 73.1 -15 0 -15 0 0.2 -71.2z"/>
 </g>
 <g fill="#ffffff">
  <path d="M582.7 303.4 c-0.2 -0.2 -2.1 -0.6 -4.3 -0.8 -11.5 -1.4 -18.8 -2.9 -27.4 -5.7 -10.3 -3.3 -36 -15.4 -36 -17 0 -0.5 -0.5 -0.9 -1.1 -0.9 -0.6 0 -2.5 -1.1 -4.3 -2.5 -1.8 -1.4 -3.6 -2.5 -4 -2.5 -0.4 0 -1.4 -0.6 -2.1 -1.2 -3.1 -2.8 -4.4 -3.8 -5.1 -3.8 -0.7 0 -3.8 -2.7 -8.4 -7.2 -1.5 -1.6 -3.2 -2.8 -3.8 -2.8 -0.6 0 -1.9 -1.1 -3 -2.5 -1.1 -1.4 -2.5 -2.5 -3.2 -2.5 -0.6 0 -0.9 -0.4 -0.6 -0.9 0.3 -0.5 -1 -1.9 -2.9 -3.2 -1.9 -1.3 -3.5 -2.7 -3.5 -3.1 0 -0.4 -2.1 -2.9 -4.7 -5.6 -4.9 -4.9 -9 -9.8 -12.1 -14.1 -0.9 -1.3 -2.7 -3.6 -3.9 -5.1 -1.3 -1.5 -2.3 -3.2 -2.3 -3.8 0 -0.6 -0.3 -1.2 -0.7 -1.4 -1.1 -0.4 -6.5 -8.8 -5.7 -8.8 0.3 0 -0.3 -1.2 -1.4 -2.7 -1.6 -2.4 -3 -5.2 -3.7 -7.3 -0.6 -1.9 -2.9 -9.8 -3.2 -11 -1.5 -5.4 0.7 -18.5 3.8 -23.1 1 -1.4 1.6 -2.9 1.2 -3.3 -0.3 -0.3 -0.2 -0.6 0.4 -0.6 0.6 0 1.4 -1.1 1.7 -2.5 0.4 -1.4 1.1 -2.5 1.6 -2.5 0.6 0 1 -0.8 1 -1.8 0 -1.1 0.9 -2.9 2 -4.2 1.1 -1.2 2.2 -3.1 2.5 -4.1 0.4 -1.1 1.1 -1.9 1.6 -1.9 0.5 0 0.9 -0.6 0.9 -1.3 0 -0.7 0.9 -1.9 2 -2.7 1.1 -0.8 2 -1.8 2 -2.2 0 -3.4 32.2 -34.9 43.6 -42.8 1.2 -0.8 4.4 -3 7.1 -4.9 5 -3.6 7.5 -5.1 18.5 -11.2 3.8 -2.1 6.8 -3.5 6.8 -3.3 0 0.3 1 -0.2 2.2 -1 1.2 -0.9 3 -1.6 3.9 -1.6 0.9 0 2.2 -0.7 2.9 -1.5 0.7 -0.8 1.6 -1.2 2.1 -1 0.4 0.3 1.6 0.1 2.6 -0.5 2.8 -1.5 10.4 -4 14.2 -4.6 1.8 -0.2 4.1 -0.8 5 -1.3 0.9 -0.5 3.6 -1.2 6.1 -1.5 2.5 -0.3 7.2 -1.1 10.5 -1.6 11.7 -1.9 22 -1.2 43.5 3.1 3 0.6 6.4 1.5 7.5 1.9 1.1 0.5 4.5 1.6 7.5 2.5 3 0.9 8.4 3 12 4.6 9.2 4.2 19.4 9.3 20 9.9 1.6 1.8 6.8 4.8 7.4 4.3 0.3 -0.3 0.6 -0.2 0.6 0.4 0 0.5 1.6 1.8 3.5 2.9 1.9 1 3.5 2.2 3.5 2.6 0 0.5 0.7 0.8 1.5 0.8 0.8 0 1.5 0.4 1.5 0.9 0 0.5 0.8 1.2 1.8 1.5 0.9 0.3 4 2.7 6.9 5.3 2.9 2.7 6.5 5.9 8.1 7.3 9 7.6 19 18.3 25.8 27.5 1.6 2.2 3.1 4.2 3.4 4.5 1.1 1.1 9.3 13.9 9.3 14.7 0.1 0.4 0.9 1.7 1.9 2.7 1 1.1 1.8 2.5 1.8 3.2 0 0.6 1.2 3.7 2.6 6.8 2 4.5 2.6 7.3 2.7 13.4 0 4.3 -0.4 8.5 -0.9 9.3 -0.4 0.8 -1 2.3 -1.1 3.4 -0.4 3.1 -3.4 9.6 -6.5 14.1 -1.5 2.3 -2.4 4.4 -2.1 4.8 0.4 0.3 0.1 0.6 -0.5 0.6 -0.7 0 -1.2 0.5 -1.2 1 0 1.2 -3.5 6.3 -6.5 9.6 -3.2 3.4 -5 5.8 -5.3 6.9 -0.2 0.6 -2.8 3.6 -5.8 6.8 -3 3.2 -5.4 6.1 -5.4 6.3 0 0.3 -2.3 2.6 -5.2 5.2 -2.8 2.6 -6.3 6 -7.7 7.6 -2.4 2.6 -11 9.6 -14.9 12.1 -0.9 0.6 -2.3 1.6 -3.2 2.4 -2.5 2.4 -16 11 -18.3 11.7 -1.2 0.4 -2.4 1 -2.7 1.5 -0.6 0.9 -21.7 10.9 -23.1 10.9 -0.6 0 -2 0.5 -3.2 1.2 -1.2 0.6 -2.9 1.3 -3.7 1.4 -0.8 0.1 -3.3 0.7 -5.5 1.3 -11.6 3.2 -26.2 5.1 -37 5 -6.3 -0.1 -11.6 -0.4 -11.8 -0.5z m-47.7 -44.5 c0 -0.5 -1.4 -2.1 -3.1 -3.6 -5.4 -4.7 -12.9 -12.5 -12.9 -13.4 0 -0.5 -1.3 -2.3 -2.8 -4.1 -3.4 -3.9 -9 -13.7 -9.5 -16.4 -0.2 -1 -1.1 -3.4 -2.1 -5.2 -0.9 -1.8 -1.9 -4.9 -2.2 -6.8 -0.2 -2 -0.9 -4.4 -1.4 -5.5 -0.6 -1 -1.4 -8.7 -1.7 -17 -0.5 -12.4 -0.4 -15.2 0.8 -16 0.9 -0.6 1 -0.9 0.2 -0.9 -0.7 0 -1 -0.6 -0.8 -1.2 0.3 -0.7 0.7 -2.6 0.9 -4.3 1.1 -7.1 1.9 -10.2 3.6 -13.5 0.9 -1.9 1.5 -4.1 1.3 -4.7 -0.3 -0.7 0 -1.3 0.5 -1.3 0.8 0 1.8 -2 2.6 -5 0.4 -1.9 5.2 -10 5.8 -10 0.5 0 0.8 -0.7 0.8 -1.5 0 -0.8 0.5 -1.5 1 -1.5 0.6 0 1 -0.7 1 -1.5 0 -0.8 0.4 -1.5 1 -1.5 0.5 0 1.6 -1.2 2.4 -2.8 2 -3.8 8.9 -10.7 14.9 -14.9 2.9 -2 5.6 -4.2 6 -5 0.4 -0.7 1.4 -1.3 2.1 -1.3 0.8 0 1.6 -0.9 1.9 -1.9 0.5 -1.9 0.3 -1.9 -3.2 -0.3 -2 0.9 -4.5 2.4 -5.6 3.3 -1.1 0.9 -3.8 2.6 -6.1 3.7 -2.2 1.1 -4.6 2.8 -5.3 3.6 -0.8 0.9 -2 1.6 -2.7 1.6 -0.8 0 -1.4 0.4 -1.4 0.9 0 0.5 -0.8 1.2 -1.8 1.5 -0.9 0.3 -3.1 1.8 -4.8 3.3 -1.7 1.6 -5.9 5.3 -9.4 8.3 -7.4 6.5 -7.5 6.5 -12 12.1 -1.9 2.4 -4.7 5.7 -6.3 7.3 -1.5 1.7 -2.7 3.4 -2.7 3.8 0 0.4 -1.3 2.2 -2.8 4 -3.8 4.4 -7.9 12.1 -11.7 22.3 -0.5 1.1 -0.7 2.8 -0.6 3.9 0.2 1.2 -0.1 1.6 -1 1 -0.9 -0.5 -1 -0.2 -0.5 1.2 0.4 1 0.9 3.8 1.2 6.1 0.4 4.3 8.3 20.9 11 22.9 0.8 0.6 1.4 1.4 1.4 1.8 0 2.2 11.6 16.1 22.1 26.5 5.8 5.8 6.3 6.2 13.9 12.1 2.5 1.9 5 3.8 5.5 4.3 0.6 0.4 3.3 2.3 6 4.1 4.8 3.2 6.5 3.6 6.5 1.5z m130.5 -4.9 c0.7 0 2.6 -1.2 4.2 -2.8 1.5 -1.5 4.6 -4 6.8 -5.7 5 -3.6 20.8 -19.5 25.5 -25.5 1.9 -2.5 3.8 -4.6 4.2 -4.8 0.5 -0.2 0.8 -0.8 0.8 -1.4 0 -0.5 1.5 -3 3.2 -5.6 1.8 -2.6 3.2 -5 3 -5.4 -0.1 -0.5 0.2 -0.8 0.7 -0.8 0.5 0 1.5 -1.7 2.1 -3.7 0.7 -2.1 1.9 -4.8 2.6 -6 0.8 -1.3 1.2 -2.3 0.9 -2.3 -0.3 0 0 -1 0.6 -2.2 2 -3.6 1 -11.8 -2.2 -19.5 -1.7 -4.3 -3.4 -7.8 -4.2 -8.8 -0.4 -0.5 -2.6 -3.9 -4.9 -7.5 -2.3 -3.6 -6 -8.7 -8.2 -11.5 -4.7 -5.8 -16.6 -17.5 -17.8 -17.5 -0.4 0 -0.8 -0.7 -0.8 -1.5 0 -0.8 -0.6 -1.5 -1.3 -1.5 -0.7 0 -2.6 -1.2 -4.3 -2.8 -1.6 -1.5 -4.9 -3.9 -7.2 -5.5 -2.3 -1.5 -4.2 -3.2 -4.2 -3.8 0 -0.5 -0.4 -0.8 -0.8 -0.5 -0.5 0.3 -1.8 -0.4 -3 -1.4 -1.2 -1.1 -2.5 -2 -3.1 -2 -0.5 0 -1.1 -0.7 -1.5 -1.5 -0.6 -1.6 -4.6 -2.1 -4.6 -0.6 0 0.5 2.8 3.2 6.3 6 3.4 2.9 7 6.2 7.9 7.4 0.9 1.2 2.9 3.6 4.3 5.3 1.4 1.8 2.5 3.6 2.5 4.2 0 0.6 0.5 1.2 1 1.4 1.3 0.4 -1.7 3.8 -21 23.4 -8.7 8.9 -15.6 16.5 -15.3 16.8 0.4 0.3 0.1 0.6 -0.6 0.6 -1.4 0 -7.1 5.6 -7.1 7 0 0.6 -0.4 0.9 -0.8 0.7 -0.4 -0.1 -4.2 3.3 -8.3 7.6 -4 4.3 -10 10.5 -13.1 13.7 -7.2 7.6 -12.5 10.5 -17.4 9.5 -2.6 -0.4 -3.4 -0.3 -2.9 0.5 0.6 0.9 0.2 0.9 -1.4 0.1 -1.1 -0.7 -2.1 -0.9 -2.1 -0.6 0 0.4 -1.8 -0.4 -4 -1.6 -2.2 -1.3 -4 -2.5 -4 -2.8 0 -0.3 -1.1 -1.9 -2.5 -3.5 -2.7 -3.1 -3.3 -5.2 -1.2 -4 0.6 0.4 0.5 -0.1 -0.4 -1.2 -2.4 -2.9 -3.1 -8 -1.5 -11.9 0.9 -2 11 -12.8 25.1 -26.7 17.7 -17.6 23.4 -23.8 22.9 -25.1 -0.3 -0.9 -3.6 -3.2 -7.3 -4.9 -6.2 -3.1 -7.3 -3.3 -17.1 -3.3 -10.7 0 -14.6 0.5 -19 2.2 -1.4 0.6 -4.2 1.6 -6.2 2.4 -2.1 0.7 -4.9 2.3 -6.4 3.6 -1.5 1.3 -3 2.3 -3.3 2.3 -0.9 0.1 -8.1 6.7 -8.1 7.4 0 0.4 -1.1 1.9 -2.5 3.4 -1.4 1.5 -2.5 3.3 -2.5 4 0 0.7 -0.5 1 -1.2 0.6 -0.6 -0.4 -0.8 -0.3 -0.5 0.3 0.4 0.6 -0.1 2.1 -1.1 3.4 -2.7 3.7 -5.6 10.5 -4.9 11.9 0.1 0.3 -0.9 2 -2.3 3.9 -1.3 1.9 -1.7 3.1 -0.9 2.6 1.1 -0.7 1.2 -0.6 0.3 0.6 -2 2.6 -0.9 21 2 33.4 0.1 0.6 1.2 2.9 2.4 5.2 1.2 2.3 2.2 4.9 2.2 5.8 0 0.8 0.5 1.5 1 1.5 0.6 0 1 0.4 1 1 0 1 2 3.7 5.3 7.2 0.9 1 1.7 2.3 1.7 2.8 0 0.6 0.5 1 1 1 0.6 0 1.8 0.8 2.8 1.8 4 4 11.1 8 19.7 11.3 8.5 3.2 9.7 3.4 21 3.3 10.9 -0.1 12.7 -0.4 19.5 -3.2 4.2 -1.6 9.4 -4 11.7 -5.1 3.5 -1.9 13.5 -11.5 18.4 -17.7 2.1 -2.7 8.4 -16.4 8.1 -17.6 -0.1 -0.5 0.1 -0.8 0.5 -0.8 0.9 0 1.2 -1.9 1.6 -11.4 l0.3 -6.8 17.7 -0.2 c12.2 -0.1 17.8 0.2 18.1 1 0.6 1.5 -0.2 14.2 -1 17.4 -1 3.5 -1.1 4.1 -1.7 8 -0.9 5.4 -4.7 16.2 -6.7 19 -1 1.4 -1.9 3 -2 3.5 -1.2 4.8 -6 11.4 -14.3 19.6 -5.3 5.3 -6.4 6.8 -5 7.1 1 0.2 2.2 -0.2 2.6 -0.9 0.4 -0.7 1.4 -1.3 2.2 -1.3z"/>
 </g>
 <g fill="#e0f1f5">
  <path d="M580.6 303.2 c-0.3 -0.3 -1.8 -0.6 -3.3 -0.8 -1.6 -0.1 -3.1 -0.2 -3.5 -0.3 -0.5 -0.1 -0.8 -0.5 -0.8 -1.1 0 -0.6 2.8 -1 6.3 -1 4.9 0 6.6 0.4 7.9 1.9 1.6 1.9 1.5 2 -2.2 1.9 -2.2 0 -4.1 -0.3 -4.4 -0.6z"/>
  <path d="M600.2 302.4 c0.3 -1.6 1.4 -2 6.3 -2.2 3.2 -0.2 7.1 0 8.5 0.4 l2.5 0.6 -2.4 0.9 c-1.3 0.5 -5.2 1.2 -8.8 1.5 -6 0.6 -6.5 0.5 -6.1 -1.2z"/>
  <path d="M619.2 300.2 c0.4 -2 4.7 -2.9 5.8 -1.3 0.4 0.8 1.4 0.5 3 -0.9 2.7 -2.3 6.3 -3.5 8.4 -2.7 0.8 0.3 1.7 -0.1 2 -0.9 0.7 -1.8 3.6 -1.8 3.6 0 0 1.5 -2.7 3 -4.8 2.7 -0.8 -0.1 -1.9 0.2 -2.5 0.7 -0.9 0.7 -8.1 2.5 -9.4 2.4 -0.2 -0.1 -1.6 0.3 -3.3 0.8 -2.7 0.8 -3.1 0.6 -2.8 -0.8z"/>
  <path d="M565 299.5 c0 -0.8 0.9 -1.5 2 -1.5 1.1 0 2 0.7 2 1.5 0 0.8 -0.9 1.5 -2 1.5 -1.1 0 -2 -0.7 -2 -1.5z"/>
  <path d="M551.5 297.1 c-4.4 -1.5 -8.9 -3.2 -10 -3.8 -1.1 -0.6 -2.2 -1.1 -2.5 -1.1 -2 -0.2 -4 -1.7 -4 -3.1 0.1 -1.4 0.2 -1.4 1.3 -0.1 0.7 0.9 2 1.4 2.9 1.2 0.9 -0.2 2.6 0.6 3.8 1.8 1.4 1.4 2.8 1.9 4.1 1.5 1.3 -0.4 2.1 -0.1 2.5 1 0.4 0.9 1.2 1.4 2 1.1 0.7 -0.3 1.5 0 1.8 0.7 0.3 0.9 0.5 0.9 0.5 0 0.1 -2 2.3 -1.5 5.5 1.2 3.7 3.1 2.2 3.1 -7.9 -0.4z"/>
  <path d="M644 294.4 c0 -1.6 2.3 -4.4 3.5 -4.4 0.9 0 2.3 -0.4 3.3 -0.8 0.9 -0.5 4.3 -2.1 7.4 -3.7 3.6 -1.7 6.4 -2.5 7.5 -2 1.3 0.5 -1.1 2.1 -9.6 6.1 -11.9 5.7 -12.1 5.7 -12.1 4.8z"/>
  <path d="M523.2 284.9 c-5.4 -2.7 -8.2 -4.7 -8.2 -5.7 0.1 -1.5 0.2 -1.5 1.4 0 0.7 1 1.6 1.5 1.9 1.1 0.4 -0.3 0.7 -0.1 0.7 0.5 0 0.6 0.7 0.9 1.5 0.6 0.8 -0.4 1.7 0.1 2.1 1 0.3 0.9 1 1.3 1.5 1 0.5 -0.3 1.2 0.1 1.5 1 0.3 0.8 1.1 1.3 1.8 1 1.3 -0.5 5.4 2.1 4.6 3 -0.3 0.3 -4.3 -1.3 -8.8 -3.5z"/>
  <path d="M668.7 281.5 c-0.6 -1.3 1.9 -3 14.4 -10.1 2.1 -1.2 3.5 -2.5 3.2 -2.8 -0.4 -0.3 0.1 -0.6 1 -0.6 3.5 0 1.4 2.7 -6.1 7.7 -10.4 6.9 -11.9 7.6 -12.5 5.8z"/>
  <path d="M501.1 271.1 c-0.7 -0.5 -1.1 -1.5 -0.9 -2.2 0.3 -1 0.8 -0.7 1.7 0.9 1.3 2.4 1.2 2.6 -0.8 1.3z"/>
  <path d="M689.6 267.5 c-0.3 -0.9 0 -1.5 0.8 -1.5 0.8 0 1.6 -0.7 2 -1.5 0.6 -1.6 3.6 -2.1 3.6 -0.7 0 0.9 -2.5 3.3 -4.6 4.5 -0.7 0.4 -1.4 0 -1.8 -0.8z"/>
  <path d="M538.2 264.4 c-2.4 -1.2 -5.8 -3.5 -7.5 -4.9 l-3.2 -2.6 3.2 2.1 c3 1.9 5.3 1.4 3.8 -0.9 -1.4 -2.4 1.6 -1.8 4.4 0.8 1.6 1.5 3.3 2.6 3.6 2.3 0.7 -0.7 3.4 2.9 3.5 4.6 0 1.8 -2.9 1.3 -7.8 -1.4z"/>
  <path d="M650.1 261.6 c-0.9 -1.1 -0.6 -1.8 1.5 -3.5 1.5 -1.2 3.6 -2.1 4.6 -2.1 1.4 0 1.8 -0.5 1.4 -1.5 -0.3 -0.9 0 -1.5 1 -1.5 1 0 1.4 0.6 1 1.5 -0.3 0.9 0 1.5 0.9 1.5 0.8 0 1.5 0.3 1.5 0.6 0 1.1 -4.5 4.3 -6.2 4.4 -0.9 0 -2 0.5 -2.3 1 -0.9 1.4 -2 1.2 -3.4 -0.4z"/>
  <path d="M696.1 262.1 c-1.2 -0.8 -0.9 -1.1 1.2 -1.6 1.5 -0.4 2.4 -1.2 2 -1.8 -0.4 -0.6 0.2 -0.8 1.5 -0.5 2.3 0.6 4.8 -1.5 3.7 -3.2 -0.3 -0.5 0.1 -1 0.9 -1 2.6 0 1.9 1.5 -2.4 5.4 -4.3 3.9 -4.7 4 -6.9 2.7z"/>
  <path d="M484.3 257.3 c-1 -1 -1.4 -1.5 -0.8 -1.1 0.7 0.4 1.4 0.6 1.6 0.4 0.2 -0.2 1 0.2 1.7 1 1.8 2 -0.2 1.7 -2.5 -0.3z"/>
  <path d="M660.5 252 c-0.3 -0.5 0.1 -1 1 -1 0.9 0 1.3 -0.4 1 -1 -0.3 -0.5 0.1 -1 1 -1 0.9 0 1.3 -0.4 1 -1 -0.3 -0.5 0.1 -1 0.9 -1 2.1 0 2 1.3 -0.1 3.2 -2.9 2.4 -4.1 2.9 -4.8 1.8z"/>
  <path d="M708.6 251.5 c-0.4 -1.2 0 -1.9 1.4 -2.2 1.1 -0.3 1.7 -0.9 1.4 -1.4 -0.3 -0.5 0.2 -0.9 1 -0.9 2.2 0 2 1.3 -0.8 3.9 -2.1 1.9 -2.4 2 -3 0.6z"/>
  <path d="M671.3 249.8 c8.2 -6.6 10.2 -8 5.7 -3.8 -2.4 2.3 -5.4 4.6 -6.5 5.2 -1.1 0.5 -0.8 0 0.8 -1.4z"/>
  <path d="M474.7 248.2 c-1.5 -1.6 -2.7 -3.1 -2.7 -3.5 0 -0.4 1.4 0.6 3.1 2.4 1.7 1.7 2.9 3.3 2.6 3.5 -0.2 0.2 -1.6 -0.9 -3 -2.4z"/>
  <path d="M714.7 246.1 c-0.4 -1.7 -0.1 -2.1 2.1 -2.1 1.9 0 2.3 0.3 1.3 0.9 -0.7 0.5 -1.7 1.4 -2.1 2.1 -0.5 0.8 -0.9 0.5 -1.3 -0.9z"/>
  <path d="M668.9 245.8 c0.7 -1 1.1 -2.5 0.7 -3.3 -0.4 -1 0.1 -1.5 1.5 -1.5 1.6 0 1.8 0.3 1 1.8 -0.5 1 -1.8 2.5 -2.8 3.3 -1.6 1.3 -1.7 1.2 -0.4 -0.3z"/>
  <path d="M591.5 245 c-1.5 -0.6 -0.7 -0.9 2.9 -0.9 2.7 -0.1 4.7 0.1 4.5 0.3 -1.1 0.9 -5.6 1.3 -7.4 0.6z"/>
  <path d="M682 241.3 c0 -0.5 1.3 -1.7 2.8 -2.7 l2.7 -1.9 -2.4 2.6 c-2.6 2.8 -3.1 3.2 -3.1 2z"/>
  <path d="M719.6 240.5 c-0.3 -0.9 0 -1.5 0.9 -1.5 1.6 0 2 1.6 0.6 2.4 -0.5 0.3 -1.1 -0.1 -1.5 -0.9z"/>
  <path d="M570.5 239.5 c-3.9 -1.7 -2.1 -1.8 2.5 0 1.9 0.7 2.8 1.4 2 1.4 -0.8 0 -2.8 -0.6 -4.5 -1.4z"/>
  <path d="M672 238.9 c-1.2 -0.7 -1.1 -1 0.8 -1.5 1.3 -0.4 2.1 -1.2 1.8 -1.9 -0.2 -0.7 0.5 -1.5 1.6 -1.8 1.5 -0.4 1.9 -1.1 1.5 -2.6 -0.4 -1.6 0 -2.1 1.3 -2.1 1.6 0 1.7 0.3 0.7 2.5 -0.7 1.4 -1.5 2.5 -1.9 2.5 -0.5 0 -0.8 0.6 -0.8 1.3 0 2.3 -3.4 4.7 -5 3.6z"/>
  <path d="M461.7 233.9 c-1.6 -2.3 -2.6 -4.3 -2.4 -4.5 0.2 -0.3 1.2 0.8 2.2 2.3 1 1.5 2.4 3.2 3.2 3.6 0.7 0.4 1.3 1.2 1.3 1.7 0 2 -1.6 0.8 -4.3 -3.1z"/>
  <path d="M724.6 234.5 c-0.3 -1 0.1 -1.5 1.1 -1.5 0.9 0 2.6 -0.8 3.7 -1.7 1.2 -1 0.8 -0.3 -0.8 1.5 -3.5 3.7 -3.2 3.6 -4 1.7z"/>
  <path d="M492.2 227 c-2.4 -2.2 -3.9 -4 -3.5 -4 0.4 0 -0.1 -0.7 -1.1 -1.5 -1.1 -0.8 -1.6 -1.5 -1 -1.5 0.5 0 3.1 2.5 5.7 5.5 2.7 3 4.7 5.5 4.5 5.5 -0.2 0 -2.2 -1.8 -4.6 -4z"/>
  <path d="M694 229 c1.3 -1.1 2.5 -2 2.8 -2 0.3 0 -0.3 0.9 -1.3 2 -1 1.1 -2.3 2 -2.8 2 -0.6 0 0 -0.9 1.3 -2z"/>
  <path d="M639.2 224.5 c2.4 -2.8 4.9 -5.9 5.5 -7 0.7 -1.1 1.4 -1.7 1.8 -1.3 0.3 0.3 -2.2 3.5 -5.6 7 -3.7 3.8 -4.4 4.3 -1.7 1.3z"/>
  <path d="M729.5 228 c-0.3 -0.5 0.1 -1 1 -1 1.1 0 1.5 -0.5 1.1 -1.5 -0.3 -0.9 0 -1.5 0.9 -1.5 1.8 0 1.9 1 0.1 3.3 -1.5 1.9 -2.2 2.1 -3.1 0.7z"/>
  <path d="M679.7 226.7 c-0.4 -1 0.1 -1.7 1.4 -2 2.1 -0.6 2.6 -4.2 0.7 -5 -0.7 -0.3 -0.3 -0.6 0.8 -0.6 1.7 -0.1 2 0.4 1.7 2.2 -0.3 1.2 -1.2 3.3 -2.2 4.6 -1.5 1.9 -1.9 2.1 -2.4 0.8z"/>
  <path d="M506.7 222 c-0.3 -1.1 -0.2 -2 0.3 -2 0.4 0 1 0.9 1.3 2 0.3 1.1 0.2 2 -0.3 2 -0.4 0 -1 -0.9 -1.3 -2z"/>
  <path d="M451.7 221.2 c-1.9 -2 -2.3 -3.7 -0.7 -2.7 1 0.6 3.3 4.5 2.7 4.5 -0.2 0 -1.1 -0.8 -2 -1.8z"/>
  <path d="M736.6 218.5 c-0.3 -0.9 0 -1.5 0.9 -1.5 0.8 0 1.5 0.7 1.5 1.5 0 0.8 -0.4 1.5 -0.9 1.5 -0.5 0 -1.1 -0.7 -1.5 -1.5z"/>
  <path d="M484 218 c-0.8 -0.5 -1 -1 -0.5 -1 0.6 0 0.3 -0.6 -0.5 -1.3 -1.7 -1.4 -2.6 -4.2 -1 -3.2 0.9 0.6 4.4 6.5 3.8 6.5 -0.2 0 -1 -0.5 -1.8 -1z"/>
  <path d="M504 214.5 c-0.6 -1.5 -1.3 -3.2 -1.6 -3.6 -0.3 -0.5 -0.3 -0.9 0 -0.9 0.9 0 3.8 6.1 3.2 6.7 -0.3 0.3 -1 -0.7 -1.6 -2.2z"/>
  <path d="M684.6 213.4 c-0.9 -2.3 -0.8 -2.4 1.3 -2.4 1.4 0 1.8 0.5 1.4 2 -0.6 2.4 -1.9 2.6 -2.7 0.4z"/>
  <path d="M541.1 212.8 c-0.1 -0.9 -0.8 -2.1 -1.7 -2.6 -1.1 -0.6 -1.3 -1.2 -0.6 -1.6 1.3 -0.8 3.5 3 2.8 4.7 -0.2 0.7 -0.5 0.4 -0.5 -0.5z"/>
  <path d="M648 212.2 c0 -0.5 0.7 -1.7 1.5 -2.8 0.8 -1 1.5 -2.6 1.5 -3.5 0 -0.8 0.7 -2.4 1.5 -3.5 1.4 -1.8 1.4 -1.7 0.4 1.1 -3.2 8.1 -4.9 11.2 -4.9 8.7z"/>
  <path d="M501.3 205 c-0.6 -1.7 -0.7 -3 -0.2 -3 0.9 0 2.4 4.8 1.7 5.5 -0.2 0.2 -0.9 -0.9 -1.5 -2.5z"/>
  <path d="M746.1 205.9 c0.6 -1.2 0.9 -2.9 0.6 -3.9 -0.3 -1.2 0.2 -2 1.5 -2.3 1.6 -0.4 1.8 -0.2 1.2 1.6 -0.7 2.4 -3.4 6.7 -4.1 6.7 -0.2 0 0.1 -0.9 0.8 -2.1z"/>
  <path d="M593.5 203.6 c1.7 -1.4 4 -2.6 5.3 -2.6 1.3 0 2 -0.4 1.7 -1 -0.3 -0.5 0.1 -1 1 -1 0.9 0 1.3 -0.4 1 -1 -0.3 -0.5 0.4 -1 1.5 -1 1.6 0 2 -0.5 1.6 -1.5 -0.3 -0.9 0 -1.5 1 -1.5 0.8 0 1.2 -0.4 0.9 -1 -0.3 -0.5 0.4 -1 1.5 -1 1.6 0 2 -0.5 1.6 -1.5 -0.3 -0.9 0 -1.5 1 -1.5 0.8 0 1.2 -0.4 0.9 -1 -0.3 -0.5 0.1 -1 0.9 -1 2.7 0 1.9 1.4 -4.7 8.2 -6.5 6.7 -9.8 8.9 -15.2 10.2 l-3 0.8 3 -2.6z"/>
  <path d="M578.9 203.3 c-3 -1.9 -5.8 -5.6 -3.5 -4.7 0.8 0.3 1.7 1.2 2 2 0.3 0.9 1 1.2 1.6 0.9 0.6 -0.3 1.3 0.1 1.6 0.9 0.3 0.9 1 1.3 1.5 1 0.5 -0.3 0.9 0 0.9 0.5 0 1.5 -1 1.3 -4.1 -0.6z"/>
  <path d="M687 204 c-1.7 -1.1 -0.8 -2.3 1.4 -1.8 0.9 0.2 1.2 0.8 0.8 1.5 -0.5 0.8 -1.3 0.9 -2.2 0.3z"/>
  <path d="M439.3 200.5 c-0.6 -1.4 -0.7 -2.5 -0.2 -2.5 1.1 0 2.2 2.5 1.7 3.9 -0.1 0.6 -0.8 -0.1 -1.5 -1.4z"/>
  <path d="M472.8 199.9 c-0.9 -0.9 -1.4 -2 -1.1 -2.3 0.4 -0.3 1.3 0.3 2.1 1.5 1.8 2.6 1.2 3.1 -1 0.8z"/>
  <path d="M716.6 197 c0.3 -1.4 1 -3.2 1.5 -4 0.7 -1.2 0.8 -1.1 0.6 0.5 -0.2 1.1 -0.8 2.9 -1.5 4 -1.2 1.9 -1.2 1.8 -0.6 -0.5z"/>
  <path d="M749.2 196.5 c-1.1 -1.3 -1 -1.5 0.7 -1.5 1.4 0 1.9 0.5 1.5 1.5 -0.7 1.8 -0.6 1.8 -2.2 0z"/>
  <path d="M533 196 c0 -0.5 0.5 -1 1 -1 0.6 0 0.8 -1.2 0.5 -2.7 -0.4 -2.3 -0.4 -2.5 0.4 -0.8 1.5 3 1.3 5.5 -0.4 5.5 -0.8 0 -1.5 -0.4 -1.5 -1z"/>
  <path d="M499.6 193.5 c-0.3 -0.9 -0.5 -6.5 -0.4 -12.3 l0.2 -10.7 0.5 12 c0.6 13.1 0.6 13.4 -0.3 11z"/>
  <path d="M655.3 192.3 c0.2 -1.2 0.6 -2.6 1 -2.9 1.1 -1.1 0.8 1.9 -0.3 3.6 -0.8 1.2 -0.9 1 -0.7 -0.7z"/>
  <path d="M570.7 191.4 c-0.4 -0.4 -0.7 -1.4 -0.7 -2.3 0 -1.1 0.3 -1.2 1.1 -0.4 0.6 0.6 1 1.6 0.7 2.3 -0.2 0.6 -0.7 0.8 -1.1 0.4z"/>
  <path d="M752.6 188.5 c0.4 -0.8 0.1 -1.5 -0.5 -1.5 -0.6 0 -1.1 -0.7 -1.1 -1.6 0 -0.9 0.7 -1.4 1.6 -1.2 0.8 0.2 1.5 0.6 1.5 1.1 -0.1 0.4 -0.1 1.6 -0.1 2.7 0 1.1 -0.4 2 -1 2 -0.5 0 -0.7 -0.7 -0.4 -1.5z"/>
  <path d="M467 188 c-1.1 -0.7 -1.2 -1.2 -0.3 -2.1 0.6 -0.6 0.9 -1.9 0.6 -2.8 -0.4 -0.9 -0.2 -1.2 0.3 -0.8 0.7 0.7 1.6 6.8 1 6.7 0 0 -0.8 -0.5 -1.6 -1z"/>
  <path d="M655.6 184.8 c-0.3 -1.7 -0.2 -3.6 0.4 -4.2 1.3 -1.3 2.4 -0.1 1.4 1.6 -0.5 0.7 -0.7 2.3 -0.5 3.6 0.4 3.4 -0.6 2.6 -1.3 -1z"/>
  <path d="M435.3 180.5 c0 -3.8 0.2 -5.3 0.4 -3.2 0.2 2 0.2 5.2 0 7 -0.2 1.7 -0.4 0.1 -0.4 -3.8z"/>
  <path d="M615.7 185.6 c-0.4 -0.9 0.3 -1.6 1.9 -1.9 2.4 -0.4 2.4 -0.3 0.8 1.4 -2 2.3 -2 2.3 -2.7 0.5z"/>
  <path d="M689.4 184.2 c-0.4 -1.9 -1.1 -2.9 -1.8 -2.5 -0.6 0.3 -0.7 0.2 -0.3 -0.2 0.4 -0.5 1.4 -1 2.2 -1.1 1.9 -0.3 3.2 4.3 1.6 5.9 -0.8 0.8 -1.2 0.2 -1.7 -2.1z"/>
  <path d="M467.7 178.3 c-0.2 -0.5 -0.7 -2 -1.1 -3.5 -0.5 -2.4 -0.3 -2.8 1.4 -2.8 1.7 0 1.9 0.4 1.2 1.6 -0.5 0.9 -0.7 2.5 -0.5 3.5 0.5 1.9 -0.2 2.6 -1 1.2z"/>
  <path d="M752.8 177.3 c-2.1 -0.5 -2.4 -3.3 -0.4 -3.3 0.7 0 1.6 0.9 1.9 2 0.3 1.1 0.4 1.9 0.4 1.9 -0.1 -0.1 -1 -0.3 -1.9 -0.6z"/>
  <path d="M437 168.4 c0 -1 1 -3 2.1 -4.4 l2 -2.5 -1.2 2.5 c-0.7 1.4 -1.4 3.1 -1.5 3.8 -0.4 2.3 -1.4 2.7 -1.4 0.6z"/>
  <path d="M534.1 167.2 c-0.7 -1.4 -0.4 -2 1.4 -2.8 2.3 -1.1 2.3 -1.1 0.9 1.1 -0.8 1.2 -1.1 2.5 -0.7 2.8 0.3 0.4 0.3 0.7 0 0.7 -0.3 0 -1.1 -0.8 -1.6 -1.8z"/>
  <path d="M717.7 168.3 c-0.4 -0.3 -0.7 -1.6 -0.6 -2.7 0 -1.9 0.1 -1.9 1 0.3 1 2.4 0.8 3.6 -0.4 2.4z"/>
  <path d="M637.6 163.5 c-0.3 -0.9 0 -1.5 0.9 -1.5 1.6 0 2 1.6 0.6 2.4 -0.5 0.3 -1.1 -0.1 -1.5 -0.9z"/>
  <path d="M471.7 162.6 c-0.4 -1 -0.1 -1.6 0.8 -1.6 2 0 3 -2.1 1.4 -3.1 -1 -0.6 -0.8 -0.9 0.9 -0.9 2.4 0 2.2 1 -1.1 5.4 -1.2 1.7 -1.4 1.7 -2 0.2z"/>
  <path d="M585 163.6 c0 -0.2 1.2 -1.2 2.8 -2.1 l2.7 -1.8 -1.9 2.1 c-1.7 2 -3.6 2.9 -3.6 1.8z"/>
  <path d="M537 160.8 c0 -0.9 -0.6 -1.9 -1.2 -2.1 -0.7 -0.3 -0.3 -0.6 1 -0.6 2.4 -0.1 2.7 0.6 1.2 2.9 -0.8 1.3 -1 1.3 -1 -0.2z"/>
  <path d="M747.1 161.1 c-1 -0.6 -1 -1 -0.1 -1.6 1.3 -0.8 2.4 -0.1 1.9 1.4 -0.3 0.6 -1 0.7 -1.8 0.2z"/>
  <path d="M502 156.9 c0 -1.3 0.5 -3.1 1 -3.9 0.7 -1.1 0.8 -0.5 0.4 2 -0.8 4.3 -1.4 5.1 -1.4 1.9z"/>
  <path d="M642.7 157.5 c-0.4 -0.9 -0.1 -1.5 0.9 -1.5 0.8 0 1.2 -0.4 0.9 -1 -0.3 -0.5 0.1 -1 0.9 -1 2.1 0 2 1.3 -0.3 3.4 -1.6 1.5 -1.9 1.5 -2.4 0.1z"/>
  <path d="M711.6 156.4 c-1 -2.5 0.1 -2.9 1.4 -0.5 0.6 1.2 0.7 2.1 0.1 2.1 -0.5 0 -1.2 -0.7 -1.5 -1.6z"/>
  <path d="M744.7 156.5 c-1.6 -1.1 -1.6 -1.3 -0.2 -1.9 0.9 -0.3 1.4 -0.2 1 0.3 -0.3 0.5 0.1 1.1 0.7 1.4 0.7 0.2 1.1 0.7 0.8 1 -0.3 0.3 -1.3 0 -2.3 -0.8z"/>
  <path d="M538.7 154 c-0.3 -1.4 0 -2 1 -2 1 0 1.4 -0.6 1.1 -1.8 -0.4 -1.4 0.3 -2.2 2.4 -3 2.7 -1 2.8 -0.9 1.6 0.6 -0.7 0.9 -1.9 2.3 -2.5 3 -0.7 0.7 -1.3 2 -1.3 2.7 0 2.3 -1.7 2.6 -2.3 0.5z"/>
  <path d="M597.4 151.5 c3.7 -3.2 4.6 -3.2 1.6 0 -1.3 1.4 -2.8 2.5 -3.4 2.5 -0.6 0 0.2 -1.1 1.8 -2.5z"/>
  <path d="M647.6 152.5 c-0.3 -0.9 0.1 -1.5 1 -1.5 0.8 0 1.2 -0.4 0.9 -1 -0.3 -0.5 0.1 -1 0.9 -1 2.2 0 2 2.3 -0.3 3.7 -1.5 1 -2 0.9 -2.5 -0.2z"/>
  <path d="M445.7 151.5 c0.8 -2.2 3.3 -5.1 3.3 -3.8 0 0.4 -0.9 1.9 -2 3.3 -1.6 2 -1.9 2.1 -1.3 0.5z"/>
  <path d="M706.5 148.4 c-0.9 -1.4 -1.5 -2.7 -1.3 -3 0.2 -0.2 1.2 1 2.2 2.6 2.1 3.7 1.5 4 -0.9 0.4z"/>
  <path d="M481.8 147.6 c-0.4 -1.9 0 -2.5 1.8 -2.9 2.2 -0.4 2.2 -0.3 0.6 2.2 -0.9 1.4 -1.7 2.7 -1.8 2.9 -0.1 0.2 -0.4 -0.8 -0.6 -2.2z"/>
  <path d="M652.6 147.5 c-0.3 -0.9 0.1 -1.5 1 -1.5 0.8 0 1.2 -0.4 0.9 -1 -0.3 -0.5 0.1 -1 0.9 -1 2.2 0 2 2.3 -0.3 3.7 -1.5 1 -2 0.9 -2.5 -0.2z"/>
  <path d="M606 143.8 c2.4 -2.7 4.5 -4.8 4.7 -4.8 0.8 0 0 0.9 -4.4 5 l-4.8 4.5 4.5 -4.7z"/>
  <path d="M737.2 144.3 c-0.6 -0.2 -1 -0.9 -0.7 -1.3 0.3 -0.5 -0.4 -1.4 -1.5 -2 -1.1 -0.6 -1.8 -1.5 -1.5 -2.1 0.4 -0.5 -0.1 -1.2 -0.9 -1.5 -0.9 -0.3 -1.4 -1 -1.1 -1.4 0.3 -0.5 -0.3 -1.3 -1.2 -1.9 -1 -0.5 -1.5 -1.2 -1.1 -1.6 0.3 -0.3 1.9 1.1 3.4 3.2 1.6 2.1 3.2 4 3.5 4.3 0.7 0.6 3.1 5 2.7 4.9 -0.2 0 -0.9 -0.3 -1.6 -0.6z"/>
  <path d="M657.6 142.5 c-0.3 -0.9 0 -1.5 1 -1.5 0.8 0 1.2 -0.4 0.9 -1 -0.3 -0.5 0.4 -1 1.5 -1 1.6 0 2 -0.5 1.6 -1.5 -0.3 -0.9 0 -1.5 1 -1.5 0.8 0 1.2 -0.4 0.9 -1 -0.3 -0.5 0.1 -1 0.9 -1 2.4 0 1.9 1.5 -1.2 4.7 -5.2 5.1 -5.9 5.5 -6.6 3.8z"/>
  <path d="M700.2 140.1 c-3.4 -4.3 -4.4 -6.8 -1.4 -3.5 2.2 2.4 5.6 7.4 5 7.4 -0.3 0 -1.9 -1.8 -3.6 -3.9z"/>
  <path d="M486.6 140.5 c-0.3 -1 0.1 -1.5 1.3 -1.5 1 0 2.4 -0.7 3.2 -1.6 1 -1.3 1 -1.7 -0.2 -2.5 -1.1 -0.7 -1.1 -0.9 0.4 -0.9 2.4 0 2.1 2 -0.8 5.3 -2.8 3.1 -3.1 3.2 -3.9 1.2z"/>
  <path d="M548.6 138.5 c-0.3 -0.9 0 -1.5 0.9 -1.5 0.8 0 1.5 0.7 1.5 1.5 0 0.8 -0.4 1.5 -0.9 1.5 -0.5 0 -1.1 -0.7 -1.5 -1.5z"/>
  <path d="M615.3 134.3 c2 -2.4 3.4 -4.9 3.1 -5.7 -0.3 -0.7 -2.1 -2.2 -3.9 -3.2 -2.3 -1.2 -3 -2.1 -2.2 -2.6 0.7 -0.4 1.7 -0.1 2.4 0.8 0.6 0.8 1.5 1.4 2 1.3 0.4 -0.1 1.5 1 2.3 2.4 1.5 2.6 1.4 2.8 -2.9 6.9 l-4.5 4.3 3.7 -4.2z"/>
  <path d="M493.7 133.1 c-0.3 -1.4 0 -2.1 0.9 -2.1 1.6 0 1.8 0.9 0.5 2.8 -0.6 1 -1 0.9 -1.4 -0.7z"/>
  <path d="M553.6 133.5 c-0.3 -0.9 0 -1.5 1 -1.5 0.8 0 1.2 -0.4 0.9 -1 -0.3 -0.5 0 -1 0.8 -1 0.8 0 1.7 -0.7 2.1 -1.5 0.3 -0.8 1.2 -1.5 2.1 -1.5 0.8 0 1.5 0.7 1.5 1.5 0 0.8 -0.4 1.5 -0.9 1.5 -0.5 0 -2.3 1.1 -3.9 2.5 -2.4 2 -3.1 2.2 -3.6 1z"/>
  <path d="M459.9 131.3 c1.2 -1.8 2.4 -3.3 2.7 -3.3 0.9 0 -1.5 3.7 -3.3 5.1 -1.2 1 -1.1 0.5 0.6 -1.8z"/>
  <path d="M669.7 129.5 c-0.4 -0.8 0.3 -1.5 1.8 -1.7 1.6 -0.3 2.2 -0.1 1.8 0.8 -0.7 1.9 -3.1 2.5 -3.6 0.9z"/>
  <path d="M724.7 127.5 c-2.1 -1.9 -3.5 -3.5 -3.1 -3.5 0.4 0 -2.3 -3 -6.1 -6.6 -3.7 -3.6 -6.5 -6.7 -6.3 -6.9 0.5 -0.5 8.6 7.4 14.6 14.3 3 3.4 5.2 6.2 5 6.2 -0.1 0 -2 -1.6 -4.1 -3.5z"/>
  <path d="M496.5 129 c-0.3 -0.5 0.1 -1 1 -1 0.9 0 1.3 -0.4 1 -1 -0.3 -0.5 0.2 -1 1.1 -1 1 0 1.4 -0.3 1.1 -0.7 -0.9 -0.9 1.2 -3.3 2.9 -3.3 2.3 0 1.6 1.8 -1.8 5 -3.6 3.2 -4.4 3.5 -5.3 2z"/>
  <path d="M684.7 124.4 c-1.6 -1.3 -2.7 -2.9 -2.5 -3.4 0.2 -0.6 1.6 0.6 3.1 2.5 3.3 4.1 3.2 4.3 -0.6 0.9z"/>
  <path d="M564.6 125.2 c-0.9 -1.5 4 -3.5 6.4 -2.7 2.2 0.7 2.2 0.8 -0.9 2.1 -3.9 1.6 -4.8 1.7 -5.5 0.6z"/>
  <path d="M669.6 121.5 c-1.6 -1.4 -2.5 -2.5 -1.9 -2.5 0.5 0 2 1.1 3.3 2.5 3 3.2 2.3 3.2 -1.4 0z"/>
  <path d="M505.7 121 c-0.6 -2.2 2.2 -4.4 4.9 -3.8 1.2 0.2 0.8 1 -1.4 3.1 -2.8 2.7 -3 2.7 -3.5 0.7z"/>
  <path d="M573.7 121.6 c-0.8 -2 0.2 -2.6 4.1 -2.6 2.2 0 3.2 0.4 2.9 1.3 -0.2 0.6 -1.1 1.1 -2 0.9 -0.8 -0.1 -1.8 0.2 -2.2 0.8 -0.9 1.4 -2.2 1.2 -2.8 -0.4z"/>
  <path d="M604.5 121.3 c-2.7 -1 -6.9 -1.3 -13.3 -1.1 -7.8 0.2 -9.2 0.1 -9 -1.2 0.4 -2.1 18 -2.7 19.9 -0.7 0.7 0.7 2.3 1.2 3.5 0.9 1.5 -0.3 2.6 0.3 3.3 1.7 1.3 2.4 1.1 2.4 -4.4 0.4z"/>
  <path d="M676.6 117.6 c-1.7 -1.4 -2.4 -2.6 -1.8 -3 0.6 -0.4 1.6 0.3 2.2 1.4 0.6 1.1 1.6 1.9 2.2 1.7 0.6 -0.1 1.3 0.4 1.5 1.1 0.7 1.8 -0.9 1.4 -4.1 -1.2z"/>
  <path d="M523.1 117.6 c2.2 -3 7.1 -7.7 7.5 -7.3 0.2 0.2 -1.7 2.3 -4.3 4.8 -2.6 2.4 -4 3.5 -3.2 2.5z"/>
  <path d="M661.7 112.5 c-6.4 -6.2 -7.7 -8.4 -1.9 -3.4 4.8 4.2 8.4 8 7.9 8.5 -0.1 0.2 -2.9 -2.1 -6 -5.1z"/>
  <path d="M513.5 114.1 c-0.3 -0.6 -0.2 -1.1 0.3 -1.1 0.6 0 2.4 -1.3 4.2 -3 1.8 -1.6 3.8 -3 4.6 -3 0.8 0 1.4 -0.4 1.4 -1 0 -0.5 2.4 -2.4 5.3 -4 7.4 -4.4 7.9 -4.6 11.2 -6.1 1.7 -0.7 3.8 -2 4.7 -2.7 1 -0.8 2.4 -1.2 3.2 -0.9 0.8 0.3 1.6 0 1.9 -0.7 0.6 -1.4 7.2 -3.6 11.1 -3.6 2.8 0 3.6 1.8 1.1 2.5 -2.7 0.9 -4 1.5 -7 3.5 -1.6 1.1 -4 2.4 -5.2 2.9 -1.1 0.5 -2.4 1.5 -2.8 2 -1.1 1.8 -2.8 1.2 -2.2 -0.8 0.5 -1.9 0.3 -1.9 -3.2 -0.3 -2 0.9 -4.5 2.4 -5.6 3.3 -1.1 0.9 -3.8 2.6 -6.1 3.7 -2.2 1.1 -4.6 2.8 -5.3 3.6 -0.8 0.9 -2 1.6 -2.7 1.6 -0.8 0 -1.4 0.4 -1.4 0.8 0 0.5 -1.2 1.5 -2.7 2.3 -1.6 0.7 -3.1 1.5 -3.5 1.7 -0.3 0.2 -0.9 -0.2 -1.3 -0.7z"/>
  <path d="M668.7 111.4 c-2.2 -1.4 -3.5 -3 -3.1 -3.6 0.5 -0.7 1.3 -0.4 2.4 1 1 1.2 1.9 1.9 2.2 1.7 0.2 -0.2 0.9 0.5 1.6 1.5 1.6 2.5 1.4 2.5 -3.1 -0.6z"/>
  <path d="M704.8 107.4 c-1.6 -0.8 -2.8 -1.7 -2.8 -1.9 0 -1 1.6 -0.4 4 1.5 3 2.3 2.5 2.5 -1.2 0.4z"/>
  <path d="M661.8 106.6 c-1 -0.7 -1.8 -1.9 -1.8 -2.7 0.1 -1 0.4 -0.9 1.4 0.3 0.7 1 1.6 1.5 1.9 1.1 0.4 -0.3 0.7 0.1 0.7 1 0 2 0 2 -2.2 0.3z"/>
  <path d="M649.3 102.1 c-1.7 -1.6 -3.9 -3.1 -4.9 -3.3 -1.1 -0.2 -2 -1.3 -2.2 -2.6 -0.3 -1.9 0 -2.2 2 -1.8 2.8 0.5 9.8 4.5 9.8 5.6 0 0.5 -0.6 1 -1.2 1.3 -1 0.3 -1 0.7 0.1 2 2.3 2.8 -0.4 1.9 -3.6 -1.2z"/>
  <path d="M661.3 77.6 c-1.3 -0.6 -2.3 -1.4 -2.3 -1.9 0 -0.7 1.7 0 5 2.3 2 1.3 0.1 1.1 -2.7 -0.4z"/>
 </g>
</svg>