<?xml version="1.0" encoding="utf-8"?>
<!DOCTYPE svg PUBLIC "-//W3C//DTD SVG 20010904//EN" "http://www.w3.org/TR/2001/REC-SVG-20010904/DTD/svg10.dtd">
<svg version="1.0" xmlns="http://www.w3.org/2000/svg" width="300px" height="140px" viewBox="0 0 300 140" preserveAspectRatio="xMidYMid meet">
 <g fill="#005fac">
  <path d="M129.88 96.82 c-0.28 -0.08 -0.60 -0.22 -0.73 -0.35 -0.15 -0.13 -0.95 -0.22 -1.80 -0.22 -1 0 -1.65 -0.13 -1.83 -0.35 -0.15 -0.17 -0.82 -0.40 -1.50 -0.45 -0.68 -0.08 -1.42 -0.30 -1.65 -0.55 -0.25 -0.22 -0.63 -0.35 -0.85 -0.28 -0.28 0.08 -0.63 -0.08 -0.90 -0.38 -0.25 -0.28 -0.75 -0.50 -1.13 -0.50 -0.38 0 -0.82 -0.15 -0.98 -0.35 -0.17 -0.20 -0.65 -0.45 -1.05 -0.52 -0.40 -0.10 -0.73 -0.28 -0.73 -0.40 0 -0.13 -0.15 -0.22 -0.32 -0.22 -0.20 0 -0.55 -0.22 -0.80 -0.50 -0.25 -0.28 -0.60 -0.50 -0.77 -0.50 -0.32 0 -0.95 -0.43 -1.90 -1.30 -0.25 -0.25 -0.57 -0.45 -0.73 -0.45 -0.15 0 -0.77 -0.50 -1.40 -1.13 -0.60 -0.63 -1.15 -1.13 -1.20 -1.13 -0.22 0 -1.13 -0.85 -1.13 -1.08 0 -0.10 -0.40 -0.55 -0.88 -1 -0.47 -0.43 -0.88 -0.95 -0.88 -1.10 0 -0.17 -0.17 -0.32 -0.38 -0.32 -0.20 0 -0.38 -0.17 -0.38 -0.38 0 -0.20 -0.22 -0.63 -0.50 -0.93 -0.30 -0.32 -0.68 -0.75 -0.88 -0.98 -0.20 -0.22 -0.38 -0.57 -0.38 -0.77 0 -0.22 -0.17 -0.52 -0.38 -0.70 -0.20 -0.17 -0.38 -0.50 -0.38 -0.73 0 -0.22 -0.22 -0.60 -0.50 -0.85 -0.28 -0.22 -0.50 -0.65 -0.50 -0.95 0 -0.28 -0.17 -0.68 -0.38 -0.88 -0.20 -0.22 -0.38 -0.75 -0.38 -1.23 0 -0.47 -0.15 -0.88 -0.35 -0.95 -0.20 -0.08 -0.38 -0.68 -0.45 -1.55 -0.08 -0.85 -0.28 -1.50 -0.47 -1.65 -0.25 -0.15 -0.38 -0.93 -0.43 -2.88 -0.10 -2.47 -0.15 -2.70 -0.73 -3.25 -0.65 -0.60 -0.65 -0.60 -7.38 -0.60 -4.18 0 -6.93 0.10 -7.22 0.25 -0.45 0.25 -0.47 0.70 -0.47 15.50 l0 15.25 -6.75 0 -6.75 0 0 -15.18 c0.03 -14.15 0 -15.23 -0.40 -15.50 -0.57 -0.43 -29.10 -0.47 -29.88 -0.08 -0.45 0.25 -0.47 0.70 -0.47 15.50 l0 15.25 -6.63 0 -6.63 0 0 -15.10 c0 -13.40 -0.05 -15.15 -0.40 -15.50 -0.32 -0.35 -1.52 -0.40 -9.18 -0.43 -7.68 -0.03 -8.70 -0.05 -8.05 -0.35 0.43 -0.20 1.33 -0.35 2.03 -0.38 0.82 0 1.40 -0.13 1.60 -0.38 0.20 -0.22 0.75 -0.38 1.48 -0.38 0.63 -0.03 1.60 -0.22 2.15 -0.50 0.63 -0.30 1.55 -0.47 2.42 -0.50 0.85 0 1.45 -0.13 1.50 -0.30 0.08 -0.17 0.95 -0.35 2.22 -0.45 1.45 -0.10 2.42 -0.32 3.15 -0.70 l1.08 -0.55 0.05 -13.65 0.08 -13.63 6.50 0 6.50 0 0.08 12.68 c0.03 9.32 0.13 12.77 0.35 13.02 0.30 0.38 0.85 0.35 2.95 -0.17 0.63 -0.15 1.98 -0.25 3 -0.25 1.02 0 3.28 -0.17 5 -0.40 2.15 -0.30 5.65 -0.45 11.13 -0.52 4.40 -0.05 8.10 -0.20 8.20 -0.30 0.10 -0.10 0.20 -5.50 0.17 -11.98 0 -6.50 0.08 -11.82 0.20 -11.90 0.13 -0.08 3.15 -0.15 6.70 -0.15 l6.47 -0.03 0.08 12.25 0.05 12.27 0.57 0.10 c1.13 0.22 3.38 0.43 6.05 0.55 3.92 0.15 5.85 0.35 6 0.63 0.10 0.13 0.82 0.22 1.65 0.22 1.25 0 1.48 -0.08 1.48 -0.45 0 -0.22 0.22 -0.85 0.50 -1.38 0.28 -0.50 0.50 -1.38 0.50 -1.92 0 -0.68 0.13 -1.08 0.38 -1.15 0.22 -0.10 0.38 -0.47 0.38 -0.95 0 -0.45 0.17 -1.02 0.38 -1.30 0.20 -0.25 0.38 -0.68 0.38 -0.93 0 -0.22 0.22 -0.63 0.50 -0.85 0.28 -0.25 0.50 -0.70 0.50 -1.02 0 -0.30 0.17 -0.63 0.38 -0.70 0.20 -0.10 0.38 -0.30 0.38 -0.50 0 -0.20 0.22 -0.60 0.50 -0.93 1.10 -1.23 1.25 -1.45 1.25 -1.80 0 -0.20 0.17 -0.38 0.38 -0.38 0.20 0 0.38 -0.17 0.38 -0.38 0 -0.22 0.17 -0.45 0.38 -0.52 0.20 -0.10 0.38 -0.28 0.38 -0.40 0 -0.28 1.65 -1.88 3.47 -3.40 0.60 -0.52 1.27 -1.10 1.50 -1.30 0.22 -0.20 0.73 -0.52 1.10 -0.68 0.38 -0.17 0.68 -0.43 0.68 -0.57 0 -0.13 0.22 -0.25 0.50 -0.25 0.28 0 0.50 -0.13 0.50 -0.28 0 -0.13 0.35 -0.38 0.75 -0.50 0.43 -0.15 0.75 -0.38 0.75 -0.47 0 -0.13 0.35 -0.28 0.77 -0.38 0.43 -0.10 0.82 -0.32 0.90 -0.52 0.08 -0.20 0.45 -0.35 0.88 -0.35 0.40 0 0.90 -0.17 1.10 -0.38 0.22 -0.20 0.65 -0.38 0.98 -0.38 0.32 0 0.75 -0.17 0.95 -0.38 0.20 -0.20 0.88 -0.43 1.48 -0.52 0.57 -0.10 1.30 -0.32 1.58 -0.50 0.28 -0.20 1.15 -0.35 2 -0.35 0.90 0 1.65 -0.13 1.83 -0.30 0.22 -0.22 1.65 -0.35 4.82 -0.40 3.80 -0.08 4.57 -0.03 5.10 0.30 0.40 0.25 1.15 0.40 2.20 0.40 1 0 1.75 0.13 2.08 0.38 0.25 0.20 0.88 0.38 1.38 0.38 0.52 0 1.17 0.22 1.55 0.50 0.35 0.28 0.98 0.50 1.38 0.50 0.43 0 0.80 0.15 0.90 0.38 0.08 0.20 0.40 0.38 0.73 0.38 0.35 0 0.75 0.17 0.93 0.38 0.17 0.20 0.57 0.38 0.90 0.38 0.32 0 0.60 0.13 0.60 0.25 0 0.15 0.30 0.40 0.70 0.55 0.70 0.32 3.22 1.90 3.70 2.33 0.15 0.15 0.77 0.65 1.35 1.13 1.63 1.30 3.50 3.17 3.50 3.45 0 0.13 0.17 0.30 0.38 0.40 0.20 0.08 0.38 0.25 0.38 0.40 0 0.15 0.40 0.63 0.88 1.08 0.47 0.43 0.88 0.98 0.88 1.20 0 0.22 0.17 0.47 0.38 0.57 0.20 0.08 0.38 0.38 0.38 0.65 0 0.28 0.17 0.57 0.38 0.65 0.20 0.10 0.38 0.30 0.38 0.47 0 0.15 0.22 0.55 0.50 0.88 0.28 0.32 0.50 0.82 0.50 1.13 0 0.32 0.17 0.63 0.38 0.73 0.22 0.08 0.38 0.45 0.38 0.93 0 0.45 0.17 0.93 0.40 1.10 0.22 0.15 0.45 0.80 0.55 1.50 0.08 0.68 0.28 1.40 0.47 1.58 0.20 0.22 0.32 0.98 0.32 2.15 0 1.10 0.13 1.92 0.32 2.13 0.20 0.20 0.30 1.30 0.30 3.65 0 2.35 -0.10 3.45 -0.30 3.65 -0.20 0.20 -0.32 1.02 -0.32 2.13 0 1.17 -0.13 1.92 -0.32 2.15 -0.20 0.17 -0.40 0.90 -0.47 1.58 -0.10 0.70 -0.32 1.35 -0.55 1.50 -0.22 0.17 -0.40 0.65 -0.40 1.10 0 0.47 -0.15 0.85 -0.38 0.93 -0.22 0.10 -0.38 0.47 -0.38 0.88 0 0.43 -0.15 0.80 -0.35 0.88 -0.20 0.08 -0.47 0.47 -0.63 0.88 -0.13 0.40 -0.38 0.73 -0.50 0.73 -0.15 0 -0.28 0.28 -0.28 0.60 0 0.32 -0.17 0.65 -0.38 0.75 -0.20 0.08 -0.38 0.28 -0.38 0.43 0 0.17 -0.17 0.47 -0.38 0.70 -1.50 1.60 -2.13 2.30 -2.13 2.42 0 0.20 -2.15 2.28 -3.50 3.35 -0.57 0.47 -1.25 1.05 -1.48 1.27 -0.22 0.22 -0.63 0.47 -0.90 0.57 -0.28 0.08 -0.80 0.43 -1.17 0.77 -0.38 0.35 -0.85 0.63 -1.08 0.63 -0.20 0 -0.60 0.22 -0.88 0.50 -0.28 0.28 -0.73 0.50 -1 0.50 -0.28 0 -0.57 0.17 -0.65 0.38 -0.10 0.22 -0.47 0.38 -0.88 0.38 -0.43 0 -0.80 0.15 -0.88 0.38 -0.10 0.20 -0.40 0.38 -0.70 0.38 -0.30 0 -0.95 0.22 -1.48 0.50 -0.50 0.28 -1.30 0.50 -1.77 0.50 -0.45 0 -0.98 0.17 -1.15 0.38 -0.22 0.25 -0.80 0.38 -1.98 0.38 -0.95 0.03 -1.90 0.17 -2.28 0.38 -0.47 0.28 -1.60 0.35 -4.75 0.32 -2.28 0 -4.35 -0.05 -4.63 -0.13z m11.02 -11.80 c0.52 -0.30 1.20 -0.52 1.50 -0.52 0.30 0 0.68 -0.17 0.85 -0.38 0.17 -0.20 0.50 -0.38 0.75 -0.38 0.22 0 0.70 -0.22 1.02 -0.50 0.32 -0.28 0.73 -0.60 0.88 -0.70 0.13 -0.13 0.52 -0.38 0.88 -0.55 0.32 -0.17 0.70 -0.47 0.80 -0.65 0.10 -0.20 0.32 -0.35 0.45 -0.35 0.15 0 0.65 -0.43 1.10 -0.93 2.28 -2.55 2.63 -2.97 2.63 -3.20 0 -0.15 0.22 -0.45 0.50 -0.70 0.28 -0.22 0.50 -0.63 0.50 -0.90 0 -0.25 0.17 -0.52 0.38 -0.63 0.20 -0.08 0.38 -0.40 0.38 -0.73 0 -0.35 0.17 -0.75 0.38 -0.93 0.20 -0.17 0.38 -0.68 0.38 -1.15 0 -0.45 0.17 -1 0.40 -1.23 1.08 -1.08 1.08 -11.93 0 -13 -0.22 -0.22 -0.40 -0.77 -0.40 -1.25 0 -0.50 -0.15 -0.88 -0.38 -0.98 -0.22 -0.08 -0.38 -0.45 -0.38 -0.90 0 -0.40 -0.13 -0.75 -0.28 -0.75 -0.13 0 -0.38 -0.32 -0.50 -0.73 -0.15 -0.40 -0.43 -0.80 -0.63 -0.88 -0.20 -0.08 -0.35 -0.38 -0.35 -0.65 0 -0.28 -0.13 -0.50 -0.25 -0.50 -0.15 0 -0.35 -0.20 -0.43 -0.43 -0.10 -0.25 -0.55 -0.80 -1 -1.27 -0.45 -0.45 -0.82 -0.93 -0.82 -1.05 0 -0.15 -0.10 -0.25 -0.25 -0.25 -0.13 0 -0.65 -0.40 -1.15 -0.88 -0.47 -0.47 -1.05 -0.88 -1.25 -0.88 -0.20 0 -0.43 -0.17 -0.50 -0.38 -0.10 -0.20 -0.30 -0.38 -0.47 -0.38 -0.15 0 -0.50 -0.22 -0.75 -0.50 -0.25 -0.28 -0.65 -0.50 -0.88 -0.50 -0.25 0 -0.57 -0.15 -0.73 -0.35 -0.15 -0.17 -0.73 -0.40 -1.25 -0.50 -0.55 -0.08 -1.02 -0.28 -1.08 -0.43 -0.05 -0.15 -0.60 -0.30 -1.20 -0.35 -1.08 -0.05 -1.35 -0.10 -2.70 -0.65 -0.95 -0.38 -4.63 -0.28 -5.47 0.15 -0.40 0.20 -1.35 0.43 -2.08 0.50 -0.75 0.08 -1.52 0.30 -1.75 0.50 -0.22 0.20 -0.73 0.38 -1.10 0.38 -0.38 0 -0.98 0.22 -1.33 0.50 -0.35 0.28 -0.73 0.45 -0.82 0.38 -0.10 -0.05 -0.38 0.10 -0.63 0.38 -0.25 0.28 -0.55 0.50 -0.68 0.50 -0.60 0 -3.63 2.55 -4.47 3.78 -0.32 0.47 -0.75 0.95 -0.90 1.05 -0.17 0.10 -0.32 0.38 -0.32 0.55 0 0.20 -0.17 0.38 -0.38 0.38 -0.20 0 -0.38 0.20 -0.38 0.47 0 0.25 -0.17 0.60 -0.38 0.77 -0.20 0.17 -0.38 0.50 -0.38 0.75 0 0.22 -0.22 0.63 -0.50 0.88 -0.28 0.25 -0.50 0.73 -0.50 1.05 0 0.32 -0.17 0.65 -0.38 0.73 -0.25 0.10 -0.38 0.47 -0.38 1.08 0 0.52 -0.17 1.15 -0.38 1.42 -0.47 0.65 -0.47 1.83 0.05 2.40 0.30 0.35 0.77 0.45 2.08 0.45 1.08 0 1.83 0.13 2.15 0.38 0.28 0.22 1.08 0.38 1.98 0.38 0.95 0 1.88 0.20 2.50 0.50 0.55 0.28 1.45 0.47 2.03 0.50 0.55 0 1.23 0.17 1.50 0.38 0.25 0.20 1.05 0.38 1.73 0.38 0.70 0.03 1.60 0.17 2 0.38 0.65 0.30 -0.28 0.32 -7.43 0.35 -4.47 0.03 -8.32 0.10 -8.55 0.17 -0.57 0.22 -0.57 4.70 -0.03 5.25 0.20 0.22 0.38 0.82 0.38 1.35 0 0.60 0.13 1 0.38 1.10 0.22 0.08 0.38 0.45 0.38 0.85 0 0.40 0.22 0.93 0.50 1.17 0.28 0.25 0.50 0.65 0.50 0.93 0 0.25 0.10 0.45 0.22 0.45 0.13 0 0.35 0.35 0.50 0.75 0.13 0.43 0.38 0.75 0.50 0.75 0.15 0 0.28 0.15 0.28 0.35 0 0.38 3.92 4.40 4.28 4.40 0.13 0 0.80 0.40 1.48 0.88 0.68 0.47 1.40 0.88 1.60 0.88 0.17 0 0.47 0.17 0.65 0.38 0.17 0.20 0.63 0.38 1.02 0.38 0.38 0 0.88 0.20 1.13 0.45 0.60 0.60 2.67 0.77 7.88 0.68 3.88 -0.08 4.53 -0.15 5.38 -0.60z"/>
  <path d="M131.13 64.75 c-0.08 -0.13 0.03 -0.25 0.22 -0.25 0.20 0 0.45 0.13 0.52 0.25 0.08 0.15 -0.03 0.25 -0.22 0.25 -0.20 0 -0.45 -0.10 -0.52 -0.25z"/>
  <path d="M194.25 81.15 c0 -12.45 -0.05 -14.38 -0.38 -14.65 -0.20 -0.17 -0.38 -0.52 -0.38 -0.77 0 -0.28 -0.17 -0.47 -0.38 -0.47 -0.20 0 -0.38 -0.17 -0.38 -0.38 0 -0.20 -0.22 -0.63 -0.50 -0.93 -0.30 -0.32 -0.68 -0.75 -0.88 -0.98 -0.20 -0.22 -0.38 -0.57 -0.38 -0.77 0 -0.22 -0.17 -0.45 -0.38 -0.55 -0.20 -0.08 -0.38 -0.30 -0.38 -0.50 0 -0.22 -0.22 -0.50 -0.50 -0.65 -0.28 -0.15 -0.50 -0.43 -0.50 -0.63 0 -0.20 -0.10 -0.38 -0.25 -0.38 -0.13 0 -0.30 -0.28 -0.40 -0.60 -0.08 -0.35 -0.30 -0.68 -0.50 -0.75 -0.20 -0.08 -0.35 -0.30 -0.35 -0.50 0 -0.20 -0.15 -0.47 -0.30 -0.57 -0.38 -0.25 -1.30 -1.52 -1.52 -2.13 -0.08 -0.25 -0.28 -0.45 -0.43 -0.45 -0.13 0 -0.25 -0.15 -0.25 -0.32 0 -0.17 -0.22 -0.50 -0.50 -0.75 -0.28 -0.22 -0.50 -0.57 -0.50 -0.77 0 -0.20 -0.17 -0.40 -0.38 -0.50 -0.20 -0.08 -0.38 -0.30 -0.38 -0.50 0 -0.17 -0.17 -0.40 -0.38 -0.50 -0.20 -0.08 -0.38 -0.30 -0.38 -0.47 0 -0.20 -0.22 -0.55 -0.50 -0.80 -0.28 -0.25 -0.50 -0.60 -0.50 -0.80 0 -0.17 -0.13 -0.32 -0.25 -0.32 -0.15 0 -0.38 -0.28 -0.50 -0.63 -0.13 -0.35 -0.35 -0.63 -0.50 -0.63 -0.13 0 -0.25 -0.15 -0.25 -0.32 0 -0.20 -0.22 -0.55 -0.50 -0.80 -0.28 -0.25 -0.50 -0.60 -0.50 -0.75 0 -0.17 -0.17 -0.38 -0.38 -0.47 -0.20 -0.08 -0.38 -0.35 -0.38 -0.63 0 -0.25 -0.17 -0.52 -0.38 -0.63 -0.20 -0.08 -0.38 -0.28 -0.38 -0.45 0 -0.17 -0.22 -0.47 -0.50 -0.65 -0.28 -0.17 -0.50 -0.45 -0.50 -0.65 0 -0.20 -0.17 -0.40 -0.38 -0.50 -0.20 -0.08 -0.38 -0.35 -0.38 -0.63 0 -0.25 -0.17 -0.52 -0.38 -0.63 -0.20 -0.08 -0.38 -0.28 -0.38 -0.43 0 -0.17 -0.17 -0.47 -0.38 -0.70 -0.20 -0.22 -0.57 -0.65 -0.88 -0.95 -0.28 -0.32 -0.50 -0.73 -0.50 -0.93 0 -0.20 -0.17 -0.40 -0.38 -0.50 -0.20 -0.08 -0.38 -0.28 -0.38 -0.43 0 -0.17 -0.17 -0.47 -0.38 -0.70 -0.20 -0.22 -0.57 -0.65 -0.88 -0.95 -0.28 -0.32 -0.50 -0.73 -0.50 -0.93 0 -0.20 -0.17 -0.40 -0.38 -0.50 -0.20 -0.08 -0.38 -0.32 -0.38 -0.55 0 -0.28 0.13 -0.35 0.40 -0.25 0.22 0.08 3.60 0.15 7.50 0.15 6.80 0 7.10 0.03 7.10 0.47 0 0.25 0.17 0.52 0.38 0.63 0.20 0.08 0.38 0.38 0.38 0.65 0 0.28 0.17 0.57 0.38 0.65 0.20 0.10 0.38 0.38 0.38 0.63 0 0.28 0.15 0.55 0.35 0.63 0.20 0.08 0.47 0.47 0.63 0.88 0.13 0.40 0.38 0.73 0.50 0.73 0.15 0 0.28 0.28 0.28 0.60 0 0.32 0.17 0.65 0.38 0.75 0.20 0.08 0.38 0.38 0.38 0.65 0 0.28 0.13 0.50 0.25 0.50 0.15 0 0.40 0.30 0.57 0.70 0.15 0.38 0.43 0.77 0.60 0.88 0.17 0.10 0.32 0.40 0.32 0.65 0 0.28 0.17 0.52 0.38 0.63 0.20 0.08 0.38 0.35 0.38 0.57 0 0.25 0.22 0.65 0.50 0.90 0.28 0.22 0.50 0.63 0.50 0.90 0 0.25 0.17 0.52 0.38 0.63 0.20 0.08 0.38 0.35 0.38 0.63 0 0.25 0.17 0.52 0.38 0.63 0.20 0.08 0.38 0.35 0.38 0.57 0 0.25 0.22 0.65 0.50 0.90 0.28 0.22 0.50 0.57 0.50 0.77 0 0.17 0.17 0.47 0.38 0.65 0.20 0.17 0.38 0.50 0.38 0.75 0 0.25 0.17 0.50 0.38 0.60 0.20 0.08 0.38 0.38 0.38 0.65 0 0.28 0.13 0.50 0.25 0.50 0.15 0 0.40 0.30 0.57 0.68 0.15 0.40 0.43 0.80 0.60 0.90 0.17 0.10 0.32 0.43 0.32 0.70 0 0.28 0.17 0.55 0.38 0.63 0.20 0.10 0.38 0.35 0.38 0.57 0 0.22 0.22 0.60 0.50 0.85 0.28 0.22 0.50 0.70 0.50 1.05 0 0.47 0.13 0.63 0.57 0.63 1.17 0 1.70 -0.30 1.85 -1.05 0.08 -0.40 0.30 -0.80 0.47 -0.88 0.20 -0.08 0.35 -0.32 0.35 -0.57 0 -0.25 0.17 -0.57 0.38 -0.75 0.20 -0.17 0.38 -0.47 0.38 -0.65 0 -0.20 0.22 -0.55 0.50 -0.77 0.28 -0.25 0.50 -0.63 0.50 -0.85 0 -0.22 0.17 -0.47 0.38 -0.57 0.20 -0.08 0.38 -0.38 0.38 -0.65 0 -0.28 0.17 -0.57 0.38 -0.65 0.20 -0.10 0.38 -0.30 0.38 -0.50 0 -0.20 0.22 -0.55 0.50 -0.77 0.28 -0.25 0.50 -0.70 0.50 -1 0 -0.35 0.15 -0.57 0.38 -0.57 0.20 0 0.38 -0.20 0.38 -0.47 0 -0.25 0.17 -0.60 0.38 -0.77 0.20 -0.17 0.38 -0.47 0.38 -0.65 0 -0.20 0.22 -0.55 0.50 -0.77 0.28 -0.25 0.50 -0.65 0.50 -0.90 0 -0.22 0.15 -0.50 0.35 -0.57 0.20 -0.08 0.43 -0.40 0.50 -0.75 0.10 -0.32 0.28 -0.60 0.40 -0.60 0.15 0 0.25 -0.22 0.25 -0.50 0 -0.28 0.22 -0.63 0.50 -0.80 0.28 -0.17 0.50 -0.57 0.50 -0.88 0 -0.35 0.15 -0.57 0.38 -0.57 0.20 0 0.38 -0.22 0.38 -0.47 0 -0.28 0.17 -0.65 0.38 -0.88 0.20 -0.20 0.38 -0.52 0.38 -0.75 0 -0.20 0.22 -0.50 0.50 -0.65 0.28 -0.15 0.50 -0.50 0.50 -0.77 0 -0.28 0.17 -0.55 0.38 -0.63 0.20 -0.10 0.38 -0.35 0.38 -0.63 0 -0.25 0.15 -0.55 0.32 -0.65 0.17 -0.10 0.45 -0.50 0.60 -0.88 0.17 -0.40 0.43 -0.70 0.57 -0.70 0.13 0 0.25 -0.17 0.25 -0.38 0 -0.30 1.08 -0.38 7.38 -0.43 5.40 -0.05 7.38 0 7.38 0.20 0 0.17 -0.17 0.35 -0.38 0.45 -0.20 0.08 -0.38 0.30 -0.38 0.52 0 0.20 -0.13 0.38 -0.25 0.38 -0.15 0 -0.38 0.28 -0.50 0.63 -0.13 0.35 -0.35 0.63 -0.50 0.63 -0.13 0 -0.25 0.17 -0.25 0.38 0 0.20 -0.22 0.57 -0.50 0.80 -0.28 0.25 -0.50 0.57 -0.50 0.75 0 0.17 -0.13 0.32 -0.25 0.32 -0.15 0 -0.38 0.28 -0.50 0.63 -0.13 0.35 -0.35 0.63 -0.50 0.63 -0.13 0 -0.25 0.17 -0.25 0.43 0 0.22 -0.17 0.57 -0.38 0.80 -0.20 0.22 -0.57 0.65 -0.88 0.98 -0.28 0.30 -0.50 0.73 -0.50 0.93 0 0.22 -0.17 0.45 -0.38 0.52 -0.20 0.10 -0.38 0.28 -0.38 0.45 0 0.15 -0.22 0.47 -0.50 0.73 -0.28 0.22 -0.50 0.60 -0.50 0.80 0 0.20 -0.17 0.38 -0.38 0.38 -0.20 0 -0.38 0.22 -0.38 0.50 0 0.28 -0.17 0.57 -0.38 0.65 -0.20 0.10 -0.38 0.32 -0.38 0.50 0 0.20 -0.15 0.43 -0.35 0.50 -0.20 0.08 -0.47 0.47 -0.63 0.88 -0.13 0.40 -0.38 0.73 -0.50 0.73 -0.15 0 -0.28 0.17 -0.28 0.38 0 0.22 -0.15 0.45 -0.35 0.52 -0.20 0.08 -0.43 0.40 -0.50 0.75 -0.10 0.32 -0.28 0.60 -0.40 0.60 -0.15 0 -0.38 0.28 -0.50 0.63 -0.13 0.35 -0.35 0.63 -0.50 0.63 -0.13 0 -0.25 0.17 -0.25 0.38 0 0.22 -0.17 0.45 -0.38 0.52 -0.20 0.10 -0.38 0.35 -0.38 0.63 0 0.25 -0.22 0.57 -0.50 0.73 -0.28 0.15 -0.50 0.43 -0.50 0.65 0 0.20 -0.17 0.43 -0.38 0.50 -0.20 0.10 -0.38 0.38 -0.38 0.63 0 0.28 -0.17 0.55 -0.38 0.63 -0.20 0.10 -0.38 0.28 -0.38 0.43 0 0.15 -0.17 0.43 -0.38 0.65 -0.20 0.22 -0.57 0.65 -0.88 0.98 -0.28 0.30 -0.50 0.73 -0.50 0.93 0 0.22 -0.17 0.45 -0.38 0.52 -0.20 0.10 -0.38 0.30 -0.38 0.47 0 0.15 -0.22 0.50 -0.50 0.75 -0.28 0.25 -0.50 0.60 -0.50 0.80 0 0.17 -0.17 0.32 -0.38 0.32 -0.20 0 -0.38 0.22 -0.38 0.50 0 0.28 -0.17 0.57 -0.38 0.65 -0.20 0.10 -0.38 0.30 -0.38 0.47 0 0.15 -0.22 0.50 -0.50 0.75 -0.28 0.25 -0.50 0.60 -0.50 0.80 0 0.17 -0.17 0.40 -0.38 0.47 -0.32 0.13 -0.38 2 -0.38 14.63 l0 14.48 -7.13 0 -7.13 0 0 -14.35z"/>
  <path d="M226 95.13 c0 -0.22 0.15 -0.45 0.35 -0.52 0.20 -0.08 0.43 -0.57 0.52 -1.10 0.10 -0.52 0.32 -1.02 0.52 -1.10 0.20 -0.08 0.35 -0.47 0.35 -0.90 0 -0.45 0.15 -0.82 0.38 -0.90 0.20 -0.10 0.38 -0.45 0.38 -0.85 0 -0.38 0.17 -0.82 0.38 -1 0.20 -0.17 0.43 -0.70 0.52 -1.17 0.10 -0.47 0.32 -0.93 0.50 -1 0.20 -0.08 0.35 -0.45 0.35 -0.85 0 -0.43 0.15 -0.80 0.38 -0.88 0.20 -0.10 0.38 -0.45 0.38 -0.85 0 -0.40 0.17 -0.88 0.38 -1.10 0.20 -0.20 0.45 -0.75 0.55 -1.20 0.08 -0.45 0.30 -0.93 0.50 -1.02 0.17 -0.10 0.32 -0.52 0.32 -0.95 0 -0.43 0.15 -0.80 0.38 -0.88 0.20 -0.10 0.38 -0.43 0.38 -0.77 0 -0.35 0.22 -0.90 0.50 -1.25 0.28 -0.35 0.50 -0.90 0.50 -1.25 0 -0.32 0.17 -0.65 0.38 -0.73 0.22 -0.10 0.38 -0.47 0.38 -0.88 0 -0.43 0.15 -0.80 0.38 -0.88 0.22 -0.10 0.38 -0.47 0.38 -0.95 0 -0.47 0.20 -0.95 0.50 -1.23 0.28 -0.22 0.50 -0.70 0.50 -1.05 0 -0.35 0.17 -0.70 0.38 -0.77 0.20 -0.10 0.38 -0.45 0.38 -0.85 0 -0.38 0.17 -0.82 0.38 -1 0.20 -0.17 0.38 -0.60 0.38 -0.98 0 -0.38 0.22 -0.85 0.50 -1.10 0.28 -0.25 0.50 -0.73 0.50 -1.15 0 -0.40 0.15 -0.77 0.38 -0.88 0.22 -0.08 0.38 -0.45 0.38 -0.90 0 -0.45 0.15 -0.82 0.38 -0.90 0.20 -0.10 0.38 -0.43 0.38 -0.77 0 -0.35 0.22 -0.90 0.50 -1.25 0.28 -0.35 0.50 -0.90 0.50 -1.25 0 -0.32 0.17 -0.65 0.38 -0.73 0.22 -0.10 0.38 -0.47 0.38 -0.88 0 -0.43 0.15 -0.80 0.38 -0.88 0.22 -0.10 0.38 -0.47 0.38 -0.95 0 -0.47 0.20 -0.95 0.50 -1.23 0.28 -0.22 0.50 -0.70 0.50 -1.05 0 -0.35 0.17 -0.70 0.38 -0.77 0.22 -0.10 0.38 -0.47 0.38 -0.98 0 -0.50 0.15 -0.88 0.38 -0.98 0.20 -0.08 0.38 -0.43 0.38 -0.80 0 -0.35 0.22 -0.93 0.50 -1.27 0.28 -0.35 0.50 -0.90 0.50 -1.25 0 -0.32 0.17 -0.65 0.38 -0.73 0.22 -0.10 0.38 -0.47 0.38 -0.88 0 -0.43 0.15 -0.80 0.38 -0.88 0.20 -0.10 0.38 -0.45 0.38 -0.85 0 -0.38 0.22 -0.93 0.50 -1.25 0.28 -0.32 0.50 -0.85 0.50 -1.17 0 -0.32 0.17 -0.65 0.38 -0.73 0.22 -0.10 0.38 -0.47 0.38 -0.98 0 -0.50 0.15 -0.88 0.38 -0.98 0.20 -0.08 0.38 -0.40 0.38 -0.73 0 -0.35 0.22 -0.90 0.50 -1.25 0.28 -0.35 0.50 -0.93 0.50 -1.27 0 -0.35 0.15 -0.73 0.35 -0.82 0.20 -0.10 0.38 -0.40 0.43 -0.65 0.10 -0.43 0.57 -0.45 7.10 -0.45 5.47 0 7.03 0.08 7.10 0.32 0.05 0.17 0.25 0.43 0.43 0.52 0.20 0.10 0.35 0.52 0.35 0.90 0 0.40 0.17 0.77 0.38 0.88 0.20 0.08 0.38 0.45 0.38 0.82 0 0.40 0.22 0.90 0.50 1.15 0.28 0.22 0.50 0.65 0.50 0.95 0 0.28 0.17 0.68 0.38 0.88 0.20 0.22 0.38 0.60 0.38 0.88 0 0.28 0.17 0.68 0.38 0.88 0.20 0.22 0.38 0.60 0.38 0.88 0 0.25 0.22 0.70 0.50 0.98 0.28 0.28 0.50 0.77 0.50 1.10 0 0.32 0.17 0.65 0.38 0.75 0.22 0.08 0.38 0.45 0.38 0.90 0 0.45 0.15 0.82 0.38 0.90 0.20 0.10 0.38 0.45 0.38 0.82 0 0.38 0.22 0.85 0.50 1.10 0.28 0.22 0.50 0.65 0.50 0.95 0 0.28 0.17 0.68 0.38 0.88 0.20 0.22 0.38 0.65 0.38 0.98 0 0.30 0.17 0.63 0.38 0.73 0.22 0.08 0.38 0.45 0.38 0.90 0 0.45 0.15 0.82 0.38 0.90 0.20 0.08 0.43 0.52 0.52 0.98 0.08 0.47 0.30 0.90 0.50 0.98 0.20 0.08 0.35 0.45 0.35 0.85 0 0.40 0.17 0.88 0.38 1.05 0.20 0.17 0.38 0.55 0.38 0.88 0 0.30 0.22 0.75 0.50 1 0.28 0.25 0.50 0.70 0.50 1 0 0.32 0.17 0.70 0.38 0.88 0.20 0.17 0.38 0.57 0.38 0.93 0 0.32 0.17 0.65 0.38 0.73 0.20 0.10 0.38 0.45 0.38 0.82 0 0.38 0.22 0.85 0.50 1.10 0.28 0.22 0.50 0.70 0.50 1.02 0 0.32 0.17 0.73 0.38 0.90 0.20 0.17 0.38 0.57 0.38 0.88 0 0.30 0.17 0.70 0.38 0.88 0.20 0.17 0.38 0.55 0.38 0.88 0 0.30 0.22 0.75 0.50 1 0.28 0.25 0.50 0.70 0.50 1 0 0.32 0.17 0.70 0.38 0.88 0.20 0.17 0.38 0.57 0.38 0.93 0 0.32 0.17 0.65 0.38 0.73 0.20 0.10 0.38 0.45 0.38 0.82 0 0.38 0.22 0.85 0.50 1.10 0.28 0.25 0.50 0.73 0.50 1.15 0 0.40 0.15 0.77 0.38 0.88 0.22 0.08 0.38 0.45 0.38 0.88 0 0.40 0.15 0.77 0.38 0.88 0.20 0.08 0.38 0.38 0.38 0.68 0 0.28 0.22 0.80 0.50 1.15 0.28 0.35 0.50 0.85 0.50 1.08 0 0.25 0.17 0.50 0.38 0.60 0.22 0.08 0.38 0.45 0.38 0.85 0 0.40 0.17 0.88 0.38 1.05 0.20 0.17 0.38 0.55 0.38 0.88 0 0.30 0.22 0.75 0.50 1 0.28 0.25 0.50 0.75 0.50 1.13 0 0.40 0.17 0.75 0.38 0.85 0.22 0.08 0.38 0.45 0.38 0.88 0 0.40 0.15 0.77 0.38 0.88 0.20 0.08 0.38 0.43 0.38 0.77 0 0.35 0.17 0.70 0.38 0.77 0.20 0.08 0.43 0.52 0.52 1 0.08 0.45 0.30 0.95 0.50 1.13 0.20 0.15 0.35 0.50 0.35 0.75 0 0.45 -0.35 0.47 -7.88 0.47 -6.22 0 -7.88 -0.08 -7.88 -0.32 0 -0.17 -0.22 -0.50 -0.50 -0.75 -0.28 -0.22 -0.50 -0.65 -0.50 -0.95 0 -0.28 -0.17 -0.68 -0.38 -0.88 -0.20 -0.22 -0.38 -0.70 -0.38 -1.10 0 -0.40 -0.17 -0.75 -0.38 -0.85 -0.22 -0.08 -0.38 -0.45 -0.38 -0.95 0 -0.52 -0.17 -1 -0.50 -1.27 -0.28 -0.22 -0.50 -0.65 -0.50 -0.95 0 -0.28 -0.17 -0.68 -0.38 -0.88 -0.20 -0.22 -0.38 -0.73 -0.38 -1.13 0 -0.43 -0.15 -0.80 -0.38 -0.88 -0.20 -0.10 -0.38 -0.45 -0.38 -0.82 -0.03 -0.35 -0.22 -0.90 -0.47 -1.20 l-0.47 -0.57 -13.73 0 c-13.43 0 -13.73 0 -14.15 0.50 -0.22 0.28 -0.43 0.82 -0.43 1.20 0 0.38 -0.17 0.93 -0.38 1.23 -0.20 0.28 -0.43 0.98 -0.52 1.58 -0.10 0.57 -0.32 1.10 -0.50 1.17 -0.20 0.08 -0.35 0.50 -0.35 0.95 0 0.45 -0.17 0.95 -0.38 1.13 -0.20 0.17 -0.38 0.65 -0.38 1.08 0 0.43 -0.17 0.95 -0.40 1.20 -0.22 0.25 -0.45 0.90 -0.52 1.45 -0.10 0.63 -0.28 1.02 -0.47 1.02 -0.20 0 -0.35 0.22 -0.35 0.50 0 0.50 -0.17 0.50 -7.50 0.50 -6.57 0 -7.50 -0.05 -7.50 -0.38z m44.20 -23.90 c0.05 -0.35 -0.10 -0.77 -0.30 -0.98 -0.22 -0.17 -0.40 -0.63 -0.40 -1 0 -0.38 -0.22 -0.93 -0.50 -1.25 -0.28 -0.32 -0.50 -0.85 -0.50 -1.17 0 -0.35 -0.17 -0.77 -0.38 -0.98 -0.20 -0.22 -0.38 -0.75 -0.38 -1.23 0 -0.50 -0.15 -0.88 -0.38 -0.98 -0.22 -0.08 -0.38 -0.45 -0.38 -0.95 0 -0.52 -0.17 -1 -0.50 -1.27 -0.28 -0.22 -0.50 -0.73 -0.50 -1.15 0 -0.40 -0.17 -0.85 -0.38 -1.02 -0.20 -0.17 -0.38 -0.70 -0.38 -1.17 0 -0.52 -0.15 -0.90 -0.38 -0.98 -0.20 -0.10 -0.38 -0.45 -0.38 -0.82 0 -0.35 -0.22 -0.98 -0.50 -1.40 -0.28 -0.40 -0.50 -1.05 -0.50 -1.40 0 -0.38 -0.17 -0.73 -0.38 -0.82 -0.25 -0.08 -0.38 -0.47 -0.38 -1.13 0 -0.60 -0.13 -1.02 -0.35 -1.10 -0.22 -0.10 -0.38 -0.68 -0.45 -1.67 -0.05 -0.88 -0.25 -1.63 -0.43 -1.73 -0.17 -0.13 -0.40 -1 -0.47 -2.05 -0.17 -1.75 -0.20 -1.85 -0.80 -1.85 -0.50 0 -0.63 0.15 -0.80 0.95 -0.10 0.52 -0.38 1.13 -0.57 1.33 -0.25 0.25 -0.38 0.88 -0.38 1.85 0 0.98 -0.13 1.60 -0.38 1.85 -0.20 0.20 -0.38 0.80 -0.38 1.38 0 0.55 -0.15 1.15 -0.32 1.33 -0.20 0.17 -0.40 0.77 -0.50 1.33 -0.08 0.52 -0.32 1.08 -0.55 1.17 -0.22 0.13 -0.38 0.57 -0.38 1.05 0 0.47 -0.17 0.98 -0.38 1.15 -0.20 0.17 -0.38 0.63 -0.38 1.02 0 0.38 -0.15 0.85 -0.32 1.02 -0.20 0.17 -0.40 0.77 -0.50 1.33 -0.08 0.52 -0.32 1.08 -0.55 1.17 -0.22 0.13 -0.38 0.57 -0.38 1.05 0 0.47 -0.17 0.98 -0.38 1.15 -0.20 0.17 -0.38 0.70 -0.38 1.17 0 0.47 -0.15 0.90 -0.35 0.98 -0.20 0.08 -0.43 0.63 -0.50 1.23 -0.10 0.60 -0.32 1.15 -0.52 1.23 -0.22 0.08 -0.38 0.47 -0.38 1.02 0 0.55 -0.15 0.95 -0.38 1.02 -0.25 0.10 -0.38 0.50 -0.38 1.13 l0 0.98 9.95 -0.05 9.93 -0.08 0.08 -0.65z"/>
  <path d="M6.85 64.82 c0.08 -0.10 0.43 -0.20 0.73 -0.25 0.43 -0.05 0.47 -0.03 0.17 0.17 -0.43 0.28 -1.17 0.35 -0.90 0.08z"/>
 </g>
</svg>