<?xml version="1.0" encoding="utf-8"?>
<!-- Generator: Adobe Illustrator 25.0.1, SVG Export Plug-In . SVG Version: 6.00 Build 0)  -->
<svg version="1.1" id="Layer_1" xmlns="http://www.w3.org/2000/svg" xmlns:xlink="http://www.w3.org/1999/xlink" x="0px" y="0px"
	 viewBox="0 0 1250 833" style="enable-background:new 0 0 1250 833;" xml:space="preserve">
<style type="text/css">
	.st0{fill:#D32226;}
</style>
<g transform="translate(0.000000,833.000000) scale(0.100000,-0.100000)">
	<path class="st0" d="M1807,5014c-51-18-154-92-200-143c-124-138-175-293-157-477c15-142,59-235,174-360l56-62l-44-83
		c-80-150-116-274-116-399c0-139,30-190,112-190c44,0,53,4,99,46c132,124,208,388,195,680l-7,141l86,81c46,45,89,82,93,82
		c6,0,6-20,0-47c-18-97,14-216,76-277c67-67,177-86,266-45c99,45,151,128,158,254l4,81l64,18c36,10,67,23,70,27c19,31,24-10,24-186
		c0-182,1-195,19-205c32-17,69-12,86,13c9,12,62,106,118,210c55,103,107,187,114,187c10,0,13-39,13-184c0-170,1-185,21-210
		c26-33,75-35,109-4c13,12,72,96,131,188c137,209,138,212,150,205c5-4,9-90,9-199c0-209,2-216,55-216c43,0,59,21,150,195
		c90,172,121,225,135,225c5,0,10-82,12-189c3-169,5-191,22-210c13-14,31-21,55-21c30,0,43,8,91,59c30,32,89,113,130,179
		c41,67,78,122,81,122s17-20,30-44l23-44l-39-56c-33-49-39-65-39-112c-1-49,2-59,28-81c25-21,37-24,74-20c52,6,105,51,123,105
		c11,33,8,122-7,183c-5,23,2,32,61,79c63,50,135,94,142,86c2-1-6-25-18-51c-25-57-30-168-9-230c45-138,174-205,314-163
		c25,8,61,32,93,63c60,59,83,121,83,226v68l71,47c99,67,99,67,99-191c0-143,3-204,12-213c7-7,26-12,44-12c24,0,40,9,63,35
		c17,20,31,40,31,46c0,22,175,339,187,339c10,0,13-37,13-170c0-220,13-250,109-250c31,0,49,7,76,31c39,34,115,155,115,182
		c0,32-38,18-76-28c-42-50-63-62-76-43c-4,7-8,95-8,194c0,168-2,183-21,208c-24,31-75,35-114,10c-28-18-77-94-156-239l-54-100
		l-5,150c-3,83-10,158-14,168c-11,24-38,37-78,37c-33,0-58-14-173-95c-27-19-55-35-60-35c-6,0-19,15-28,34c-18,38-69,80-108,90
		c-34,7-86-11-99-34c-6-10-10-37-10-59c0-71,64-121,158-121h32v-52c-1-139-114-221-218-158c-99,61-109,272-18,381c39,46,34,53-31,46
		c-72-8-191-65-290-141l-72-55l-44,82c-25,45-48,92-51,105c-13,39-30,24-73-66c-46-94-157-278-197-327l-25-30l-1,160
		c-1,240-13,275-88,275c-49,0-91-47-176-198c-102-181-95-179-96-17c0,175-12,208-76,213c-32,2-48-2-68-20c-15-13-77-104-139-202
		c-61-99-118-181-124-184c-10-3-13,37-13,176c0,166-2,181-21,206c-26,33-75,35-114,4c-31-24-94-119-161-243c-25-47-50-83-55-79
		c-5,3-9,64-9,135v130l41,51c92,117,144,265,137,395c-4,83-26,122-76,137c-46,13-113-23-152-82c-56-85-73-158-78-344l-4-166l-46-20
		c-59-24-123-45-126-40c-1,1-15,24-29,50c-47,81-114,112-176,81c-23-12-38-28-43-48c-22-84,51-155,160-155c32,0,32,0,32-52
		c0-183-194-246-277-89c-17,33-23,60-23,110c0,85,13,128,55,190c19,28,35,53,35,56s-13,5-29,5c-56,0-186-83-315-201
		c-31-28-59-49-63-46c-3,4-12,59-19,124c-18,157-17,388,1,488c8,44,18,97,21,118l7,37l-39-1C1862,5029,1828,5022,1807,5014z
		 M1860,4976c0-2-16-45-35-95c-83-215-102-392-66-629l22-142l-27-35c-14-19-29-35-33-35c-7,0-63,83-86,128c-53,108-72,335-39,471
		c34,139,127,285,206,324C1833,4979,1860,4985,1860,4976z M2992,4924c13-42,1-164-24-242c-24-79-54-142-68-142c-23,0-2,303,25,367
		C2951,4968,2978,4975,2992,4924z M2484,4399c34-40,33-50-6-42c-48,9-68,21-68,42C2410,4441,2449,4441,2484,4399z M5003,4402
		c15-15,27-33,27-40c0-29-85-2-95,29C4920,4437,4964,4443,5003,4402z M4354,4095c11-59-13-107-41-83c-17,14-16,52,2,88
		C4335,4139,4346,4138,4354,4095z M1810,3924c26-184-4-400-66-474c-38-44-60-54-94-40c-37,15-50,48-50,128c0,87,22,175,66,270
		c37,82,111,202,124,202C1794,4010,1803,3971,1810,3924z"/>
	<path class="st0" d="M6901,5005c-154-72-283-232-327-405c-24-96-15-252,21-345c41-108,41-102,3-101c-18,0-58-3-90-7l-56-7l-6,63
		c-9,84-24,148-41,170c-12,17-18,18-49,7c-58-19-63-33-32-89c14-27,26-58,26-70c0-20-2-19-42,9c-78,54-215,64-272,19
		c-21-16-26-29-26-64c0-36,5-47,34-73c45-39,120-57,234-56l92,1v-43c0-52,8-74,26-74c19,0,33,30,42,92l7,53l55,12c30,6,79,12,108,12
		c53,1,55,0,118-61c62-59,74-83,55-103c-5-6-27-46-49-90c-82-165-116-333-92-449c16-77,44-106,103-106c88,0,172,96,233,267
		c52,145,66,241,62,437l-3,169l85,78c46,44,87,79,90,79c4,0,4-38,2-84c-5-103,14-171,67-229c88-98,234-104,337-14
		c66,58,87,105,92,209l4,86l37,7c20,4,55,15,79,25l42,19v-188c0-169,2-190,18-204c26-24,65-21,89,6c11,12,49,78,85,147
		c94,178,131,243,145,247c8,3,12-47,15-187c3-188,4-192,27-211c31-25,74-24,105,4c23,20,143,197,228,337c21,34,42,58,48,55
		c6-4,10-79,10-194c0-169,2-190,18-204c21-19,54-22,82-7c10,5,59,89,110,187c101,194,118,223,131,223c5,0,9-73,9-162
		c0-223,12-258,89-258c43,0,92,52,190,202c119,184,104,171,134,111c23-44,24-53,12-63c-47-39-79-131-64-185c25-89,145-86,201,4
		c31,49,38,104,22,175l-13,61l54,51c55,51,155,113,155,96c0-5-7-24-17-42c-9-19-18-66-21-105c-6-96,15-168,68-228s109-81,195-75
		c148,12,236,120,239,295l1,73l68,46c98,68,97,69,97-182c0-171,2-205,16-218c18-18,56-21,84-6c10,5,59,88,109,185
		c97,188,119,225,131,225c5,0,10-81,12-181l3-181l33-29c54-48,127-36,180,31c40,51,90,143,85,156c-9,25-32,15-82-37
		c-27-28-54-48-60-44c-7,4-11,66-11,179c0,179-8,229-40,246c-33,18-77,11-110-16c-31-26-113-158-166-266c-16-32-32-58-36-58
		s-8,67-8,149c0,135-2,151-21,175c-32,40-92,37-155-9c-77-56-137-95-146-95c-4,0-14,12-22,28c-8,15-27,39-43,54
		c-57,54-120,59-163,13c-31-34-24-109,14-142c30-25,85-43,135-43h34l-6-55c-12-116-72-180-160-172c-125,11-184,180-117,335
		c12,28,30,58,41,68c51,46-6,58-106,24c-72-25-132-59-210-120c-33-25-65-49-72-53c-7-5-29,29-64,98c-29,58-57,105-63,105
		c-6-1-27-35-46-77c-40-88-150-275-195-331l-30-37l-5,196c-4,175-7,199-24,218c-23,25-81,28-113,6c-23-16-102-139-169-262
		c-21-40-42-73-46-73c-5,0-8,67-8,149c0,135-2,151-21,175c-15,20-29,26-58,26c-45,0-72-18-102-67c-131-217-223-353-230-341
		c-5,7-9,92-9,189c0,162-1,177-20,197c-14,15-33,22-57,22c-50,0-91-46-175-195c-103-185-97-184-98-20v141l41,54
		c87,116,130,238,132,373c0,63-3,83-20,105c-81,109-206,31-268-168c-12-38-19-105-22-217l-6-161l-56-25c-31-14-70-28-87-32
		c-27-5-32-3-37,17c-10,37-74,106-112,118c-40,13-71,6-102-23c-28-25-31-91-7-126c22-30,89-61,137-61h37v-58c0-68-23-117-70-149
		c-66-46-153-21-198,56c-24,41-27,56-27,131c1,72,5,93,27,136c15,27,34,56,42,63c24,20,19,41-9,41c-54,0-174-75-308-193
		c-37-33-69-58-72-56c-9,9-35,301-35,391c0,51,7,136,15,188s18,116,21,143l7,47h-39C6973,5030,6931,5019,6901,5005z M6970,4971
		c0-5-16-51-36-102c-78-203-97-399-60-636l19-122l-24-35c-13-20-27-36-31-36c-13,0-57,65-88,131c-100,214-72,513,67,701
		C6865,4938,6970,5006,6970,4971z M8101,4938c17-31,5-190-19-258c-22-64-60-140-69-140c-11,0,5,314,17,350c14,37,38,70,51,70
		C8086,4960,8095,4950,8101,4938z M7595,4404c36-38,33-55-7-48c-41,8-73,37-65,58C7533,4438,7568,4433,7595,4404z M10115,4405
		c14-13,25-32,25-41c0-13-6-15-32-10c-40,8-73,39-65,60C10052,4438,10088,4433,10115,4405z M6233,4206c34-14,97-71,97-87
		s-113-10-150,9c-41,20-52,58-24,79C6179,4223,6193,4223,6233,4206z M9464,4114c11-28,6-80-8-99c-12-16-16-17-30-6
		c-20,17-20,41,1,86C9445,4133,9455,4138,9464,4114z M6914,3993c18-59,27-239,17-318c-24-177-93-292-162-270c-32,11-59,64-59,118
		c0,66,27,190,57,262c26,64,123,225,135,225C6906,4010,6911,4002,6914,3993z"/>
</g>
</svg>
