<?xml version="1.0" standalone="no"?>
<!DOCTYPE svg PUBLIC "-//W3C//DTD SVG 20010904//EN"
 "http://www.w3.org/TR/2001/REC-SVG-20010904/DTD/svg10.dtd">
<svg version="1.0" xmlns="http://www.w3.org/2000/svg"
 width="1151.000000pt" height="478.000000pt" viewBox="0 0 1151.000000 478.000000"
 preserveAspectRatio="xMidYMid meet">

<g transform="translate(0.000000,478.000000) scale(0.100000,-0.100000)"
fill="#000000" stroke="none">
<path d="M8231 4759 c-489 -55 -948 -294 -1263 -658 -226 -261 -373 -555 -443
-891 -33 -154 -45 -449 -26 -607 98 -796 673 -1454 1444 -1653 559 -144 1144
-33 1620 307 112 80 325 289 406 398 180 241 292 482 355 765 75 339 57 679
-55 1015 -226 680 -812 1184 -1519 1306 -134 23 -394 32 -519 18z m399 -1109
c282 -67 510 -280 603 -563 25 -79 30 -112 34 -227 5 -151 -7 -231 -53 -346
-45 -114 -93 -185 -188 -280 -174 -174 -351 -246 -601 -247 -160 0 -233 17
-370 83 -177 86 -299 208 -386 385 -68 140 -83 209 -82 380 0 121 4 152 27
228 83 276 282 483 554 571 124 41 326 48 462 16z"/>
<path d="M1550 4683 c-9 -2 -136 -298 -325 -756 -170 -414 -513 -1245 -761
-1847 l-451 -1095 28 -8 c15 -4 287 -6 604 -5 l576 3 220 575 c365 954 503
1305 514 1303 11 -2 119 -228 564 -1184 l317 -684 463 0 462 0 330 710 c447
961 540 1156 553 1152 13 -4 103 -231 452 -1141 l278 -724 111 -7 c142 -8
1081 -2 1090 7 7 6 -259 655 -1258 3077 -186 451 -259 616 -273 622 -10 4
-170 8 -355 8 l-336 1 -353 -792 c-537 -1206 -693 -1549 -703 -1545 -12 4
-282 602 -878 1944 l-174 393 -340 -1 c-187 -1 -347 -3 -355 -6z"/>
<path d="M9264 609 c-167 -64 -248 -260 -173 -420 91 -193 332 -244 496 -105
18 15 47 57 65 94 29 58 33 76 32 142 0 127 -60 222 -176 280 -75 37 -163 40
-244 9z m203 -109 c64 -29 103 -95 103 -176 0 -74 -11 -109 -48 -147 -42 -45
-75 -57 -151 -57 -63 0 -73 3 -113 33 -58 44 -78 87 -78 165 0 66 20 121 57
154 54 49 157 62 230 28z"/>
<path d="M9830 318 l0 -308 50 0 50 0 0 129 0 129 31 6 c17 3 45 6 61 6 33 0
96 29 119 56 44 50 48 148 8 212 -28 47 -76 64 -207 71 l-112 6 0 -307z m210
179 c31 -16 39 -61 14 -88 -13 -14 -31 -19 -71 -19 l-53 0 0 60 0 60 43 0 c23
0 53 -6 67 -13z"/>
<path d="M11139 613 c-124 -41 -201 -147 -207 -282 -5 -104 21 -172 89 -236
72 -67 126 -89 224 -89 89 0 157 24 227 81 l37 30 -39 38 -38 37 -47 -33 c-43
-31 -55 -34 -129 -37 -75 -3 -84 -1 -127 26 -65 42 -93 101 -87 187 3 53 9 71
34 102 17 21 48 48 70 60 66 38 183 27 243 -22 16 -14 35 -25 43 -25 17 0 68
51 68 68 0 18 -76 69 -136 92 -65 24 -159 26 -225 3z"/>
<path d="M7980 610 c0 -6 -22 -141 -50 -299 -27 -158 -50 -291 -50 -295 0 -4
24 -6 52 -4 l53 3 16 90 c9 50 24 134 34 188 9 55 21 95 25 90 4 -4 33 -87 65
-183 32 -96 61 -179 65 -184 5 -5 28 -6 52 -2 l43 7 60 175 c50 147 72 200 76
182 0 -2 15 -84 32 -183 l32 -180 53 -3 54 -3 -6 28 c-7 35 -96 569 -96 578 0
3 -26 5 -57 3 l-56 -3 -63 -186 c-34 -103 -66 -195 -72 -205 -13 -23 -4 -44
-85 201 l-64 190 -56 3 c-37 2 -57 -1 -57 -8z"/>
<path d="M10270 565 l0 -55 55 0 55 0 0 -250 0 -250 50 0 50 0 0 250 0 250 60
0 60 0 0 55 0 55 -165 0 -165 0 0 -55z"/>
<path d="M10690 315 l0 -305 55 0 55 0 0 305 0 305 -55 0 -55 0 0 -305z"/>
<path d="M8712 233 l3 -48 100 0 100 0 3 48 3 47 -106 0 -106 0 3 -47z"/>
</g>
</svg>
