<?xml version="1.0" encoding="utf-8"?>
<!DOCTYPE svg PUBLIC "-//W3C//DTD SVG 20010904//EN" "http://www.w3.org/TR/2001/REC-SVG-20010904/DTD/svg10.dtd">
<svg version="1.0" xmlns="http://www.w3.org/2000/svg" width="300px" height="140px" viewBox="0 0 300 140" preserveAspectRatio="xMidYMid meet">
 <g fill="#cc3338">
  <path d="M80.25 59.70 l0 -59.58 69.75 0 69.75 0 0 59.58 0 59.55 -69.75 0 -69.75 0 0 -59.55z m69.53 12.40 c0.88 0.08 2.22 0.28 2.97 0.43 0.75 0.15 2.90 0.32 4.75 0.40 3.03 0.10 3.67 0.05 6.30 -0.55 8.45 -1.88 15.07 -6.50 19.80 -13.80 3.53 -5.45 5.25 -12.25 4.65 -18.23 -1.02 -10.20 -7.05 -19.20 -16.13 -24.13 -2.53 -1.40 -4.13 -2.03 -7.25 -2.90 l-2.50 -0.70 -26.88 -0.08 -26.88 -0.05 9.57 9.55 9.55 9.57 0 30.38 0 30.38 10.23 -10.23 10.23 -10.23 1.58 0.17z"/>
  <path d="M155.25 66.10 c-5.25 -0.47 -10.32 -2.95 -14.18 -6.90 -2.95 -3.03 -4.65 -6.07 -5.70 -10.27 -0.63 -2.53 -0.68 -3 -0.57 -6.75 0.15 -5.80 0.95 -8.50 3.83 -12.88 4.60 -7.05 12.90 -10.75 22.17 -9.88 8.13 0.77 15.32 5.75 18.50 12.77 1.13 2.53 1.17 2.70 1.95 5.68 0.38 1.55 0.30 7.60 -0.13 9.82 -1.48 7.38 -5.85 13.02 -12.50 16.20 -1.25 0.60 -3.22 1.30 -4.38 1.60 -2.10 0.47 -6.72 0.80 -9 0.60z"/>
 </g>
 <g fill="#fefefe">
  <path d="M161.45 134.85 c-0.13 -0.10 -0.20 -2.83 -0.20 -6.03 l0 -5.85 6.07 0.08 6.10 0.08 0.90 0.70 0.93 0.70 0 2.25 c0 3.92 -0.45 4.25 -6.13 4.43 -2.38 0.05 -4.07 0.22 -4.18 0.38 -0.08 0.15 -0.10 0.85 -0.03 1.55 0.08 0.73 0.03 1.38 -0.10 1.45 -0.40 0.25 -3.20 0.47 -3.38 0.28z m9.75 -7.30 c0.50 -0.32 0.08 -0.98 -0.75 -1.15 -0.43 -0.08 -1.83 -0.15 -3.10 -0.15 l-2.35 0 0 0.75 0 0.75 2.95 0 c1.60 0 3.08 -0.10 3.25 -0.20z"/>
  <path d="M192.30 134.80 c-0.22 -0.15 -0.30 -1.52 -0.25 -5.95 l0.08 -5.72 1.83 -0.08 1.80 -0.08 0 4.32 c0 2.38 0.08 4.90 0.15 5.57 0.08 0.70 0.03 1.38 -0.08 1.55 -0.25 0.35 -3.10 0.68 -3.53 0.38z"/>
  <path d="M89.90 134.20 c-0.20 -0.75 -0.20 -10.30 0 -10.80 0.13 -0.35 0.88 -0.40 5.75 -0.40 5.82 0 6.75 0.13 7.90 1.17 0.65 0.60 0.65 4.95 -0.03 5.75 -0.80 0.98 -2.47 1.33 -6.28 1.33 l-3.50 0 0 1.35 c0 2.10 -0.05 2.15 -2 2.15 -1.55 0 -1.70 -0.05 -1.85 -0.55z m10.30 -6.97 c0.13 -0.65 -1.23 -0.98 -3.97 -0.98 l-2.47 0 0 0.75 0 0.77 3.17 -0.08 c2.72 -0.08 3.20 -0.13 3.28 -0.47z"/>
  <path d="M107.63 134.38 c-0.40 -0.17 -1.02 -0.63 -1.38 -1 -0.60 -0.65 -0.63 -0.75 -0.60 -4.38 0 -4.10 0.15 -4.63 1.42 -5.40 0.73 -0.43 1.30 -0.47 5.57 -0.47 6.85 0 6.85 0 6.85 5.72 0 2.20 -0.13 3.88 -0.30 4.25 -0.15 0.35 -0.75 0.88 -1.33 1.15 -0.93 0.45 -1.50 0.50 -5.28 0.47 -2.92 0 -4.45 -0.13 -4.97 -0.35z m7.97 -3.53 c0.08 -0.22 0.15 -1.15 0.15 -2.10 0 -1.25 -0.10 -1.77 -0.40 -2.03 -0.55 -0.45 -3.83 -0.60 -4.95 -0.22 l-0.90 0.30 0 2.05 c0 1.15 0.08 2.15 0.17 2.22 0.08 0.10 1.42 0.17 2.97 0.17 2.33 0 2.83 -0.08 2.95 -0.40z"/>
  <path d="M123.57 134.32 c-1.45 -0.73 -1.60 -1.40 -1.52 -6.57 l0.08 -4.63 1.83 -0.08 1.80 -0.08 0 3.75 c0 2.05 0.08 3.90 0.15 4.13 0.13 0.35 0.70 0.40 3.70 0.40 4.80 0 4.65 -0.05 4.65 1.90 l0 1.60 -4.93 -0.03 c-3.97 0 -5.10 -0.08 -5.75 -0.40z"/>
  <path d="M146.10 134.57 c-0.30 -0.05 -0.90 -0.43 -1.38 -0.80 l-0.85 -0.73 0 -4.13 c0 -4.03 0.03 -4.15 0.60 -4.78 0.90 -0.95 1.98 -1.15 6.40 -1.13 6.45 0 6.72 0.22 6.75 5.47 0.05 4.20 -0.15 4.85 -1.58 5.65 -1 0.57 -1.27 0.60 -5.25 0.57 -2.30 -0.03 -4.40 -0.10 -4.70 -0.15z m7.60 -5.65 l0.08 -2.17 -0.70 -0.28 c-0.85 -0.32 -4.25 -0.17 -5 0.25 -0.52 0.28 -0.57 0.47 -0.57 2.25 0 1.08 0.08 2.03 0.17 2.13 0.10 0.08 1.48 0.13 3.05 0.10 l2.90 -0.08 0.08 -2.20z"/>
  <path d="M181.43 134.57 c-0.10 -0.08 -0.17 -2 -0.17 -4.25 l0 -4.07 -2.25 0 -2.28 0 0.08 -1.55 0.08 -1.58 6.38 0 6.38 0 0.08 1.55 0.08 1.55 -2.33 0.08 -2.33 0.08 -0.08 4.20 -0.05 4.18 -1.73 0 c-0.93 0 -1.77 -0.08 -1.85 -0.17z"/>
  <path d="M200.50 134.48 c-0.35 -0.15 -0.93 -0.55 -1.30 -0.90 l-0.70 -0.68 0 -4.07 c0 -3.97 0.03 -4.13 0.60 -4.70 0.95 -0.95 2.22 -1.15 7.45 -1.08 l4.82 0.08 0 1.50 0 1.50 -4.28 0.13 c-3.10 0.10 -4.38 0.22 -4.68 0.47 -0.32 0.25 -0.43 0.75 -0.43 1.95 0 2.65 -0.10 2.58 4.38 2.58 2.10 0 4.13 0.10 4.50 0.25 0.60 0.22 0.65 0.32 0.57 1.67 l-0.08 1.45 -5.13 0.05 c-2.97 0.03 -5.38 -0.05 -5.75 -0.20z"/>
  <path d="M127 63.30 l0 -30.92 -10.25 -10.25 c-5.63 -5.63 -10.15 -10.30 -10.05 -10.38 0.10 -0.08 12.82 -0.08 28.30 0 l28.13 0.13 2.50 0.70 c3.13 0.88 4.72 1.50 7.25 2.90 8.82 4.78 14.90 13.68 16.10 23.52 0.85 6.90 -0.90 14.55 -4.63 20.33 -4.70 7.28 -11.30 11.88 -19.73 13.80 -2.28 0.52 -3.38 0.63 -6.45 0.63 -2.05 0 -4.18 -0.10 -4.75 -0.22 -0.57 -0.13 -1.83 -0.38 -2.78 -0.52 l-1.70 -0.32 -10.80 10.80 c-5.93 5.93 -10.85 10.77 -10.98 10.77 -0.10 0 -0.17 -13.93 -0.17 -30.95z m36.47 1.42 c1.17 -0.28 3.15 -0.98 4.38 -1.58 8.23 -3.90 13.10 -11.88 12.88 -21.02 -0.08 -2.65 -0.15 -3.33 -0.75 -5.50 -0.32 -1.20 -0.45 -1.50 -1.42 -3.67 -2.40 -5.32 -7.43 -9.75 -13.30 -11.70 -9.57 -3.22 -20.45 0.47 -25.88 8.80 -2.70 4.13 -3.65 7.10 -3.83 12.10 -0.10 2.95 -0.05 3.55 0.57 6 1.05 4.22 2.75 7.28 5.70 10.30 3.85 3.95 8.98 6.45 14.18 6.90 1.95 0.15 5.30 -0.13 7.47 -0.63z"/>
 </g>
 <g fill="#353636">
  <path d="M80.28 128.63 c0.03 -6.18 0.10 -11 0.17 -10.68 0.10 0.32 0.25 0.57 0.38 0.57 0.10 -0.03 31.40 -0.03 69.55 -0.03 l69.38 0 0 10.70 0 10.68 -69.75 0 -69.75 0 0.03 -11.25z m83.78 4.07 c-0.17 -2.20 -0.32 -2.13 4.28 -2.25 2.72 -0.10 4.28 -0.25 4.72 -0.47 1.02 -0.52 1.45 -1.48 1.45 -3.20 0 -1.42 -0.05 -1.52 -0.93 -2.20 l-0.90 -0.70 -5.35 -0.08 -5.32 -0.08 0 5.10 c0 2.80 0.05 5.15 0.13 5.22 0.08 0.08 0.55 0.05 1.08 -0.03 l0.93 -0.15 -0.08 -1.17z m30.95 1.05 c0.08 -0.13 0.10 -2.40 0.05 -5.13 l-0.08 -4.90 -1.05 0.08 -1.05 0.08 -0.08 4.97 c-0.03 3.28 0.03 5.05 0.20 5.15 0.32 0.20 1.83 0 2 -0.25z m-102.13 -0.25 c0.10 -0.28 0.15 -0.93 0.13 -1.45 -0.03 -0.50 -0.05 -1.08 -0.03 -1.23 0.03 -0.25 0.90 -0.32 3.53 -0.32 5.55 0 6.72 -0.63 6.75 -3.53 0 -1.83 -0.20 -2.17 -1.83 -2.85 -1.25 -0.52 -10.55 -0.55 -10.75 -0.05 -0.20 0.50 -0.22 8.52 -0.03 9.27 0.13 0.55 0.30 0.65 1.10 0.65 0.75 0 1 -0.13 1.13 -0.50z m24.25 0 c0.57 -0.28 1.17 -0.80 1.33 -1.15 0.17 -0.35 0.30 -1.85 0.30 -3.50 0 -4.75 -0.28 -4.97 -6.10 -4.97 -3.47 0 -4.13 0.05 -4.80 0.47 -1.25 0.75 -1.38 1.15 -1.38 4.57 -0.03 2.92 0.03 3.15 0.57 3.75 1.02 1.10 1.83 1.27 5.55 1.30 3.03 0.03 3.63 -0.05 4.53 -0.47z m16.38 -0.35 c0 -1.10 -0.35 -1.17 -4.68 -1.13 -2.65 0.03 -3.42 -0.03 -3.60 -0.30 -0.13 -0.20 -0.22 -2.08 -0.22 -4.18 l0 -3.83 -1.05 0.08 -1.08 0.08 -0.08 3.88 c-0.13 6.03 0.08 6.20 6.53 6.22 l4.18 0.03 0 -0.85z m21.75 0.30 c0.57 -0.32 1.15 -0.77 1.27 -1.02 0.15 -0.22 0.25 -1.85 0.28 -3.58 0 -2.75 -0.05 -3.22 -0.47 -3.83 -0.75 -0.98 -1.85 -1.25 -5.45 -1.25 -3.67 -0.03 -4.78 0.20 -5.65 1.13 -0.57 0.60 -0.60 0.77 -0.60 4.03 l0 3.38 0.85 0.73 c1.08 0.88 1.17 0.90 5.32 0.95 3.08 0.03 3.50 -0.03 4.45 -0.52z m29.05 -3.63 l0.08 -4.20 2.33 -0.08 2.33 -0.08 -0.08 -0.80 -0.08 -0.80 -5.63 0 -5.63 0 -0.08 0.82 -0.08 0.80 2.25 0 2.28 0 0 4.07 c0 2.25 0.08 4.18 0.17 4.25 0.08 0.10 0.57 0.17 1.10 0.17 l0.98 0 0.05 -4.18z m26.40 3.38 c0.13 -1.05 -0.70 -1.23 -5.05 -1.17 -4.55 0.08 -4.40 0.17 -4.40 -3.28 0 -3.30 -0.17 -3.17 5 -3.22 2.28 -0.03 4.22 -0.15 4.32 -0.25 0.13 -0.13 0.17 -0.47 0.13 -0.80 -0.08 -0.60 -0.08 -0.60 -4.15 -0.68 -4.45 -0.08 -5.78 0.15 -6.70 1.08 -0.57 0.57 -0.60 0.75 -0.60 3.95 0 3.30 0 3.33 0.70 4 1.10 1.05 1.67 1.15 6.30 1.10 l4.38 -0.05 0.08 -0.68z"/>
  <path d="M164.15 128.38 c-0.05 -0.13 -0.08 -0.80 -0.05 -1.50 l0.03 -1.25 2.88 -0.08 c4.75 -0.13 5.57 0.15 5.30 1.90 -0.08 0.57 -0.28 0.85 -0.68 0.95 -1.02 0.25 -7.38 0.22 -7.47 -0.03z"/>
  <path d="M93.03 128.50 c-0.10 -0.08 -0.15 -0.75 -0.15 -1.50 l0.03 -1.38 3 -0.08 c4.55 -0.13 5.47 0.20 5.18 1.77 -0.08 0.45 -0.22 0.90 -0.32 1 -0.20 0.22 -7.43 0.38 -7.72 0.17z"/>
  <path d="M109.40 132.05 c-0.65 -0.13 -0.80 -0.93 -0.70 -3.60 l0.08 -2.45 0.95 -0.28 c1.27 -0.38 5.82 -0.20 6.35 0.25 0.35 0.28 0.43 0.82 0.43 2.88 0 1.38 -0.10 2.67 -0.22 2.85 -0.13 0.22 -1.08 0.32 -3.33 0.38 -1.73 0.03 -3.33 0 -3.55 -0.03z"/>
  <path d="M147.60 132 c-0.70 -0.13 -0.73 -0.20 -0.90 -1.75 -0.10 -0.88 -0.10 -2.17 0 -2.88 0.17 -1.15 0.25 -1.27 1.05 -1.55 1.08 -0.35 5.22 -0.43 6.10 -0.08 0.65 0.22 0.65 0.25 0.65 3.10 0 1.80 -0.10 2.92 -0.28 3.05 -0.32 0.20 -5.57 0.28 -6.63 0.10z"/>
 </g>
 <g fill="#d86468">
  <path d="M80.38 21.50 c0 -11.90 0.03 -16.75 0.05 -10.82 0.05 5.95 0.05 15.70 0 21.63 -0.03 5.95 -0.05 1.10 -0.05 -10.80z"/>
 </g>
</svg>