<?xml version="1.0" encoding="iso-8859-1"?>
<!-- Generator: Adobe Illustrator 18.0.0, SVG Export Plug-In . SVG Version: 6.00 Build 0)  -->
<!DOCTYPE svg PUBLIC "-//W3C//DTD SVG 1.1//EN" "http://www.w3.org/Graphics/SVG/1.1/DTD/svg11.dtd">
<svg version="1.1" id="Capa_1" xmlns="http://www.w3.org/2000/svg" xmlns:xlink="http://www.w3.org/1999/xlink" x="0px" y="0px"
	 viewBox="0 0 475.016 475.016" style="enable-background:new 0 0 475.016 475.016;" xml:space="preserve">
<g>
	<path d="M182.714,176.628c-36.538-7.748-75.193-8.825-114.89-3.201c-8.503,1.205-15.958,5.692-20.993,12.637
		c-5.012,6.912-6.952,15.345-5.463,23.744c0.678,3.822,1.347,7.395,1.988,10.618c2.898,14.566,6.042,27.697,9.345,39.029
		c5.041,17.294,18.96,30.234,36.338,33.772l1.197,0.241c6.56,1.292,13.251,1.947,19.886,1.947c44.251,0,83.571-28.314,97.843-70.456
		l0.867-2.563c3.219-9.518,2.212-19.982-2.761-28.711C201.089,184.935,192.574,178.718,182.714,176.628z M199.343,219.246
		l-0.848,2.504c-12.896,38.079-48.41,63.664-88.372,63.664c-5.988,0-12.028-0.592-17.934-1.755l-1.166-0.234
		c-13.717-2.792-24.723-13.05-28.721-26.769c-3.222-11.054-6.296-23.9-9.138-38.182c-0.628-3.155-1.284-6.658-1.949-10.411
		c-1.011-5.705,0.307-11.433,3.712-16.129c3.428-4.729,8.507-7.784,14.299-8.605c38.536-5.459,76.021-4.422,111.413,3.082
		c7.069,1.499,13.172,5.955,16.745,12.224C200.945,204.884,201.666,212.377,199.343,219.246z"/>
	<path d="M179.56,191.502c-20.004-4.242-41.022-6.393-62.469-6.393c-5.685,0-11.503,0.156-17.292,0.463
		c-2.757,0.146-4.874,2.5-4.728,5.258c0.146,2.758,2.507,4.87,5.258,4.728c5.613-0.298,11.252-0.449,16.762-0.449
		c20.751,0,41.07,2.078,60.395,6.175c2.868,0.608,5.243,2.34,6.689,4.877c1.434,2.517,1.712,5.415,0.784,8.16
		c-0.885,2.616,0.519,5.454,3.135,6.338c0.531,0.18,1.071,0.265,1.602,0.265c2.085,0,4.031-1.315,4.736-3.4
		c1.856-5.488,1.299-11.281-1.568-16.314C189.984,196.158,185.259,192.71,179.56,191.502z"/>
	<path d="M431.659,220.425c0.64-3.22,1.309-6.792,1.987-10.618c1.489-8.399-0.451-16.832-5.462-23.743
		c-5.035-6.945-12.491-11.433-20.994-12.637c-39.697-5.623-78.352-4.546-114.889,3.201c-9.86,2.09-18.375,8.307-23.359,17.056
		c-4.973,8.729-5.979,19.193-2.762,28.709l0.868,2.565c14.271,42.142,53.592,70.456,97.843,70.456
		c6.635,0,13.325-0.655,19.904-1.951l1.19-0.239c17.366-3.535,31.286-16.475,36.326-33.769
		C425.614,248.13,428.759,234.999,431.659,220.425z M412.713,256.656c-3.999,13.719-15.004,23.976-28.709,26.766l-1.16,0.233
		c-5.924,1.167-11.964,1.759-17.952,1.759c-39.962,0-75.476-25.584-88.372-63.664l-0.865-2.559
		c-2.305-6.815-1.584-14.308,1.977-20.558c3.572-6.27,9.676-10.725,16.745-12.224c20.509-4.348,41.716-6.525,63.427-6.525
		c15.756,0,31.78,1.147,47.985,3.443c5.793,0.821,10.872,3.877,14.3,8.605c3.405,4.696,4.724,10.424,3.713,16.127
		c-0.667,3.757-1.323,7.261-1.95,10.412C419.008,232.763,415.933,245.609,412.713,256.656z"/>
	<path d="M405.059,188.481c-15.797-2.237-31.655-3.372-47.135-3.372c-5.997,0-12.041,0.171-17.964,0.508
		c-2.757,0.157-4.864,2.519-4.708,5.276c0.157,2.757,2.515,4.871,5.276,4.708c5.734-0.326,11.587-0.492,17.396-0.492
		c15.012,0,30.398,1.101,45.732,3.273c1.673,0.237,3.137,1.116,4.123,2.476c0.976,1.346,1.339,2.919,1.051,4.549
		c-0.482,2.719,1.331,5.314,4.051,5.796c0.295,0.052,0.588,0.078,0.878,0.078c2.379,0,4.488-1.705,4.917-4.128
		c0.763-4.302-0.232-8.622-2.801-12.164C413.283,191.412,409.442,189.101,405.059,188.481z"/>
	<path d="M473.848,315.43l-38.799-46.286c0.694-1.773,1.32-3.583,1.86-5.435c7.719-26.48,12.685-56.005,14.378-66.868h9.887
		c2.762,0,5-2.239,5-5v-24.326c0-2.216-1.459-4.168-3.585-4.796c-92.869-27.396-164.466-12.54-198.876-1.244
		c-17.143,5.627-35.266,5.628-52.411,0c-34.41-11.295-106.003-26.153-198.876,1.244c-2.126,0.627-3.585,2.58-3.585,4.796v24.326
		c0,2.761,2.239,5,5,5h9.887c1.693,10.863,6.66,40.388,14.378,66.869c0.54,1.852,1.166,3.662,1.86,5.435L1.168,315.43
		c-0.939,1.121-1.341,2.597-1.099,4.04c0.243,1.442,1.104,2.707,2.359,3.459c5.514,3.309,11.602,4.919,17.636,4.919
		c9.06,0,17.995-3.635,24.666-10.614l18.181-19.024c6.967,4.821,14.95,8.274,23.579,10.011l0.809,0.161
		c7.579,1.494,15.152,2.215,22.647,2.214c43.651-0.002,84.395-24.485,104.952-63.397l42.35-5.866
		c19.439,42.299,62.02,69.265,107.823,69.263c7.49,0,15.07-0.721,22.646-2.214l0.703-0.14c8.669-1.741,16.685-5.204,23.678-10.042
		l18.189,19.033c6.671,6.98,15.605,10.614,24.666,10.614c6.033,0,12.122-1.612,17.636-4.919c1.255-0.753,2.116-2.017,2.358-3.459
		C475.189,318.027,474.787,316.551,473.848,315.43z M37.5,310.326c-6.442,6.74-15.866,9.07-24.43,6.472l31.73-37.853
		c2.886,4.767,6.367,9.104,10.345,12.917L37.5,310.326z M219.896,236.412c0.877-2.16,1.715-4.345,2.471-6.577
		c2.567-7.58,4.833-14.31,6.532-19.373c1.242-3.701,4.702-6.188,8.608-6.188c3.906,0,7.366,2.487,8.608,6.188
		c1.699,5.062,3.965,11.792,6.532,19.372c0.222,0.655,0.47,1.295,0.702,1.944L219.896,236.412z M386.456,298.438l-0.672,0.133
		c-53.068,10.46-106.231-20.471-123.665-71.944c-2.563-7.57-4.825-14.292-6.522-19.347c-2.612-7.779-9.881-13.005-18.089-13.005
		c-8.208,0-15.478,5.227-18.088,13.005c-1.697,5.055-3.96,11.777-6.524,19.347c-17.433,51.474-70.599,82.403-123.665,71.944
		l-0.766-0.153c-19.544-3.934-35.161-18.305-40.758-37.506c-9.421-32.32-14.672-69.393-14.724-69.764
		c-0.346-2.469-2.458-4.307-4.952-4.307h-9.19v-15.57c88.519-25.208,156.481-11.083,189.342-0.295
		c19.185,6.299,39.466,6.297,58.649,0c32.861-10.786,100.827-24.911,189.342,0.295v15.57h-9.19c-2.493,0-4.606,1.837-4.952,4.307
		c-0.052,0.371-5.295,37.419-14.722,69.763C421.709,280.123,406.053,294.503,386.456,298.438z M437.516,310.326l-17.652-18.471
		c3.979-3.813,7.462-8.148,10.349-12.913l31.733,37.857C453.383,319.397,443.957,317.066,437.516,310.326z"/>
</g>
<g>
</g>
<g>
</g>
<g>
</g>
<g>
</g>
<g>
</g>
<g>
</g>
<g>
</g>
<g>
</g>
<g>
</g>
<g>
</g>
<g>
</g>
<g>
</g>
<g>
</g>
<g>
</g>
<g>
</g>
</svg>
